<svg width="439" height="439" viewBox="0 0 439 439" fill="none" xmlns="http://www.w3.org/2000/svg">
<path fill-rule="evenodd" clip-rule="evenodd" d="M367.196 26.8944C363.783 29.5106 360.704 29.5658 353.846 27.1351C348.729 25.3214 348.073 25.3259 340.423 27.2102C335.998 28.2997 331.134 29.6034 329.612 30.1067C321.53 32.7825 314.157 34.6205 309.895 35.0212C307.264 35.2684 304.277 36.2001 303.257 37.0909C299.834 40.0813 294.811 42.0009 288.361 42.7847C284.837 43.2119 277.868 44.9505 272.874 46.6482C263.896 49.7004 262.317 50.3363 249.501 56.0654C245.842 57.7024 241.924 58.7345 240.618 58.4067C239.331 58.0854 235.789 58.9729 232.745 60.3804C229.7 61.7878 224.738 63.3012 221.717 63.7439C216.521 64.5055 212.371 65.6812 188.567 73.1422C183.091 74.8588 176.122 76.902 173.08 77.6825C170.038 78.4629 166.553 79.7136 165.336 80.4631C164.119 81.2126 160.261 82.4026 156.763 83.108C153.265 83.8145 150.402 84.8532 150.402 85.4173C150.402 85.9814 149.282 86.4461 147.913 86.4505C146.543 86.4538 143.93 87.444 142.105 88.6505C140.28 89.857 137.961 90.8472 136.952 90.8505C135.945 90.8549 132.709 92.0681 129.762 93.5473C126.816 95.0265 122.038 96.4427 119.144 96.6933C116.251 96.945 113.016 97.9065 111.954 98.8315C109.531 100.941 104.171 103.362 95.6432 106.197C85.5024 109.568 74.8228 114.073 72.878 115.8C71.9178 116.654 70.7286 117.351 70.2352 117.351C68.7218 117.351 66.3999 121.081 66.3633 123.571C66.3434 124.867 65.1365 126.708 63.6796 127.659C61.0943 129.35 61.0313 129.76 61.0003 145.172C60.9715 159.9 62.9418 179.817 65.183 187.447C65.7184 189.268 66.412 194.981 66.7251 200.141C67.0381 205.302 68.0725 213.498 69.0238 218.355C69.9741 223.212 70.7529 229.551 70.7529 232.442C70.7529 235.458 71.7308 239.773 73.0472 242.568C75.2033 247.145 75.2321 247.604 73.5218 250.209C72.0771 252.408 71.962 253.464 72.961 255.326C73.6524 256.617 73.9145 259.054 73.5428 260.743C73.0849 262.824 73.4178 264.271 74.5761 265.229C75.5152 266.007 76.2841 267.165 76.2841 267.802C76.2841 268.439 77.1337 269.896 78.1713 271.04C79.7112 272.739 79.813 273.511 78.7244 275.251C77.0761 277.885 76.9965 281.455 78.5651 282.422C79.7555 283.156 82.0741 288.021 82.2644 290.183C82.3219 290.832 83.1981 293.068 84.2125 295.151C86.8464 300.557 89.4627 309.875 90.268 316.715C91.1962 324.592 93.3732 326.518 100.279 325.573C103.157 325.179 105.941 324.427 106.469 323.901C108.441 321.933 107.426 284.722 105.172 276.419C104.423 273.658 104.169 269.471 104.583 266.717C105.123 263.121 104.873 261.384 103.61 259.983C100.749 256.803 99.2186 244.706 98.9763 223.323C98.8414 211.426 98.1212 199.906 97.2528 195.726C95.0802 185.275 95.5525 145.852 97.8922 142.287C99.66 139.595 103.159 138.513 119.593 135.578C124.247 134.747 129.972 133.113 132.315 131.947C134.657 130.781 141.054 128.977 146.53 127.939C152.006 126.902 158.975 124.907 162.017 123.507C168.253 120.638 173.724 118.822 178.611 117.997C180.436 117.689 185.165 116.688 189.12 115.77C196.574 114.043 204.119 112.515 214.564 110.619C217.91 110.012 223.137 108.346 226.179 106.917C229.221 105.489 233.803 103.763 236.362 103.08C238.92 102.397 242.519 100.573 244.361 99.0269C246.598 97.1492 248.436 96.4461 249.898 96.9086C252.097 97.6051 264.568 94.1202 270.046 91.2777C271.661 90.4399 273.794 89.7544 274.786 89.7544C275.778 89.7544 280.431 88.5368 285.125 87.0499C311.281 78.7609 321.822 76.3644 326.445 77.656C330.666 78.8349 335.144 84.5342 335.144 88.7256C335.144 90.2103 335.662 93.1598 336.297 95.2815C337.614 99.6826 338.575 109.889 339.104 125.078C339.305 130.846 339.811 140.036 340.228 145.5C340.854 153.701 340.967 194.631 340.441 222.771C340.22 234.619 341.003 250.308 341.945 252.893C343.946 258.386 344.611 289.427 344.121 354.369C344.003 369.799 343.819 371.257 341.844 372.311C340.518 373.02 323.473 373.664 297.318 373.996C274.011 374.29 246.479 375.083 236.135 375.756C225.792 376.431 193.684 377.078 164.783 377.195C118.214 377.382 111.86 377.614 108.918 379.235C101.756 383.178 101.059 383.29 93.9916 381.645C83.7125 379.252 74.5617 382.518 78.449 387.19C79.168 388.055 81.1914 389.076 82.9459 389.461C84.7003 389.845 87.2801 391.015 88.6773 392.059C90.0744 393.105 95.9475 395.364 101.728 397.081C107.508 398.797 113.381 400.641 114.778 401.176C116.175 401.712 119.302 402.15 121.727 402.15C124.152 402.15 127.823 402.853 129.883 403.713C131.962 404.579 139.709 405.598 147.271 406.001C154.774 406.4 164.096 407.16 167.989 407.689C171.881 408.219 176.425 408.381 178.087 408.05C179.754 407.717 181.446 407.993 181.862 408.665C182.381 409.502 183.262 409.538 184.675 408.784C187.957 407.031 251.78 407.711 269.322 409.686C274.798 410.302 285.75 411.556 293.66 412.472C315.042 414.949 337.938 415.74 344.891 414.243C349.347 413.282 351.523 413.289 353.897 414.27C356.544 415.364 357.729 415.206 361.573 413.25C365.342 411.331 366.118 410.38 366.118 407.685C366.118 405.647 367.356 403.027 369.437 400.663C371.883 397.883 372.762 395.767 372.782 392.621C372.797 390.273 373.277 386.365 373.849 383.936C374.419 381.507 374.965 375.066 375.059 369.623C375.171 363.199 375.781 358.887 376.799 357.337C378.154 355.273 378.151 354.32 376.771 350.326C375.421 346.412 375.405 345.264 376.675 342.822C377.499 341.237 377.957 339.589 377.692 339.162C376.584 337.374 376.092 288.803 377.145 285.199C377.982 282.337 377.889 280.833 376.768 279.127C375.664 277.446 375.42 273.932 375.823 265.559C376.205 257.662 375.968 253.777 375.039 252.66C374.052 251.475 374.022 250.475 374.924 248.795C375.721 247.308 375.846 243.967 375.287 239.066C374.819 234.961 374.55 230.857 374.689 229.946C375.217 226.51 378.435 122.453 378.063 120.873C377.965 120.453 378.25 104.96 378.699 86.4428C379.147 67.9253 379.088 49.4995 378.566 45.4969C378.045 41.4942 378.039 36.9573 378.555 35.4141C379.235 33.3775 378.925 31.5969 377.421 28.9112C374.966 24.5256 371.242 23.7915 367.196 26.8944ZM92.5037 116.523C92.1973 117.283 91.9462 116.661 91.9462 115.143C91.9462 113.626 92.1973 113.005 92.5037 113.764C92.8113 114.523 92.8113 115.765 92.5037 116.523ZM244.985 131.516C242.552 132.607 236.578 134.37 231.71 135.435C220.685 137.847 207.715 141.664 206.322 142.906C205.744 143.422 203.346 143.844 200.995 143.844C198.643 143.844 195.732 144.371 194.528 145.014C193.323 145.658 188.253 147.181 183.262 148.4C178.27 149.62 171.697 151.898 168.655 153.465C165.613 155.032 160.635 156.737 157.593 157.254C144.478 159.484 141.957 160.08 139.34 161.573C137.819 162.441 136.076 163.173 135.468 163.199C132.92 163.309 115.28 169.63 112.049 171.592C110.119 172.762 107.463 175.543 106.147 177.77C103.983 181.43 103.922 181.944 105.518 183.109C106.49 183.817 107.154 185.51 106.994 186.87C106.596 190.274 109.842 192.3 112.771 190.475C115.421 188.824 117.215 188.71 117.215 190.192C117.215 190.791 115.473 192.007 113.343 192.896C108.28 195.006 108.411 196.83 113.627 196.83C117.505 196.83 117.874 197.124 119.159 201.228C119.93 203.696 120.534 211.379 120.534 218.74C120.534 225.951 121.057 234.528 121.697 237.799C122.87 243.795 121.913 259.959 119.302 278.241C118.174 286.147 118.203 286.321 121.694 292.41C124.546 297.384 125.014 299.043 124.118 301.004C123.293 302.813 123.824 307.236 126.195 318.297C127.949 326.471 129.403 334.151 129.428 335.366C129.453 336.58 130.962 339.312 132.783 341.437C135.935 345.117 136.398 345.287 142.524 345.023C146.062 344.871 151.728 343.835 155.116 342.72C161.125 340.742 161.405 340.744 166.624 342.804C174.376 345.863 196.926 346.17 202.22 343.288C205.986 341.238 211.45 340.605 233.923 339.616C240.775 339.314 247.571 338.41 249.475 337.547C251.337 336.704 253.93 336.294 255.239 336.635C256.679 337.01 259.165 336.302 261.535 334.841C265.016 332.694 265.451 331.909 265.451 327.775C265.451 323.88 264.737 322.361 261.05 318.417C258.631 315.827 256.128 311.772 255.489 309.405C254.851 307.039 253.844 304.804 253.252 304.439C252.66 304.074 252.176 303.037 252.176 302.133C252.176 300.137 242.544 283.267 240.741 282.105C240.033 281.649 238.544 280.2 237.43 278.884C235.807 276.965 235.65 276.037 236.64 274.191C238.559 270.613 244.973 268.172 262.977 264.172C265.572 263.594 268.651 262.613 269.819 261.989C270.987 261.364 272.968 260.854 274.221 260.854C276.511 260.854 283.15 253.043 283.15 250.351C283.15 247.394 278.542 243.261 274.53 242.618C266.36 241.31 265.356 240.88 264.358 238.261C263.8 236.798 262.358 235.072 261.152 234.429C258.426 232.973 246.639 232.894 242.917 234.306C241.397 234.884 236.609 235.615 232.279 235.932C227.949 236.249 224.001 236.759 223.504 237.065C222.453 237.713 196.792 240.028 184.695 240.565C180.132 240.767 173.679 241.815 170.355 242.891C164.935 244.646 164.232 245.234 163.551 248.584C162.592 253.291 164.27 258.255 167.065 258.984C168.591 259.383 169.208 260.509 169.208 262.893C169.208 264.736 169.746 266.576 170.404 266.981C171.062 267.387 171.321 268.825 170.981 270.179C170.641 271.532 171.044 273.571 171.877 274.709C173.15 276.444 173.674 276.545 175.134 275.336C176.597 274.125 177.454 274.308 180.508 276.482C183.852 278.862 185.289 279.076 198.523 279.159C206.433 279.207 213.496 279.332 214.22 279.435C214.943 279.536 215.879 281.979 216.301 284.864C216.721 287.748 217.801 291.969 218.7 294.244C219.598 296.519 220.088 299.019 219.79 299.797C219.303 301.061 199.904 303.358 185.802 303.82C183.672 303.89 179.441 304.655 176.399 305.519C173.356 306.385 168.129 307.394 164.783 307.761C161.437 308.13 157.01 308.691 154.945 309.007C151.232 309.578 151.198 309.546 151.773 305.917C152.092 303.9 151.744 297.779 151 292.315C150.257 286.851 149.863 281.559 150.127 280.555C150.389 279.553 149.957 275.827 149.169 272.276C147.132 263.12 147.852 251.286 150.677 247.472C153.057 244.261 153.054 243.842 150.49 225.786C149.863 221.372 148.808 216.748 148.143 215.51C146.563 212.563 147.82 206.873 150.757 203.684C153.578 200.619 170.569 192.428 179.717 189.721C183.368 188.641 188.097 187.129 190.227 186.361C195.719 184.38 209.434 180.473 217.882 178.481C221.837 177.55 226.887 176.267 229.103 175.632C231.32 174.996 233.685 174.816 234.358 175.232C235.031 175.647 235.582 178.533 235.582 181.646C235.582 184.759 236.297 190.318 237.17 194C238.044 197.681 239.067 203.49 239.445 206.907C240.371 215.278 243.066 217.788 251.856 218.469L258.416 218.977L261.439 213.014C264.331 207.312 264.649 207.056 268.703 207.162C275.526 207.34 278.412 205.145 279.193 199.181C281.304 183.062 281.798 173.882 280.772 169.785C280.164 167.357 279.206 163.574 278.643 161.378C277.294 156.119 277.35 152.169 278.846 147.191C279.965 143.465 279.794 142.707 276.91 138.563C273.052 133.02 272.625 132.83 261.579 131.734C256.711 131.251 251.982 130.558 251.07 130.195C250.157 129.83 247.419 130.425 244.985 131.516ZM295.526 271.66C291.743 274.924 290.629 276.716 290.145 280.315C289.771 283.095 290.012 285.147 290.768 285.613C292.422 286.633 292.334 290.988 290.626 292.692C289.533 293.783 289.567 294.255 290.792 295.011C291.925 295.71 292.146 297.302 291.632 301.046C291.116 304.801 291.508 307.585 293.127 311.683C294.332 314.735 295.319 318.397 295.319 319.819C295.319 322.744 299.392 324.954 305.081 325.115C310.965 325.282 312.81 322.146 313.606 310.625C313.757 308.447 314.242 305.3 314.685 303.632C315.252 301.489 314.895 299.705 313.47 297.56C311.864 295.144 311.502 292.683 311.702 285.54C311.967 276.052 310.834 271.343 307.721 268.982C304.434 266.491 300.521 267.351 295.526 271.66ZM299.744 276.952C299.744 278.902 297.362 278.563 296.679 276.516C296.437 275.794 297.029 275.205 297.993 275.205C298.956 275.205 299.744 275.991 299.744 276.952Z" fill="black"/>
</svg>
