<svg width="40" height="40" viewBox="0 0 40 40" fill="none" xmlns="http://www.w3.org/2000/svg">
<path fill-rule="evenodd" clip-rule="evenodd" d="M33.458 2.44996C33.147 2.68833 32.8665 2.69336 32.2416 2.47189C31.7754 2.30663 31.7156 2.30703 31.0185 2.47873C30.6153 2.578 30.1721 2.69678 30.0335 2.74265C29.2971 2.98646 28.6253 3.15392 28.2369 3.19043C27.9972 3.21296 27.7251 3.29785 27.6322 3.37902C27.3202 3.65149 26.8626 3.8264 26.2748 3.89782C25.9538 3.93674 25.3188 4.09515 24.8637 4.24985C24.0457 4.52795 23.9018 4.58589 22.7341 5.1079C22.4006 5.25706 22.0437 5.3511 21.9247 5.32123C21.8075 5.29196 21.4847 5.37283 21.2073 5.50107C20.9299 5.62931 20.4778 5.7672 20.2025 5.80754C19.729 5.87694 19.351 5.98406 17.182 6.66388C16.6831 6.82028 16.0481 7.00646 15.7709 7.07757C15.4937 7.14868 15.1762 7.26264 15.0653 7.33093C14.9544 7.39922 14.6029 7.50765 14.2841 7.57192C13.9654 7.63629 13.7046 7.73094 13.7046 7.78234C13.7046 7.83373 13.6026 7.87608 13.4778 7.87648C13.353 7.87678 13.1149 7.967 12.9486 8.07694C12.7823 8.18687 12.571 8.27709 12.4791 8.27739C12.3873 8.27779 12.0924 8.38833 11.8239 8.52311C11.5555 8.65789 11.1201 8.78693 10.8565 8.80976C10.5929 8.8327 10.2981 8.9203 10.2013 9.00459C9.98055 9.1968 9.49219 9.41737 8.71515 9.67566C7.79116 9.98284 6.81807 10.3933 6.64087 10.5507C6.55338 10.6285 6.44502 10.692 6.40007 10.692C6.26218 10.692 6.05061 11.0319 6.04728 11.2588C6.04547 11.3769 5.9355 11.5445 5.80275 11.6312C5.56719 11.7853 5.56144 11.8227 5.55862 13.227C5.556 14.5689 5.73552 16.3837 5.93973 17.0789C5.98852 17.2448 6.05172 17.7654 6.08024 18.2356C6.10877 18.7058 6.20301 19.4526 6.2897 19.8951C6.37628 20.3377 6.44724 20.9152 6.44724 21.1787C6.44724 21.4534 6.53635 21.8466 6.65629 22.1013C6.85274 22.5184 6.85536 22.5601 6.69953 22.7975C6.56789 22.9979 6.55741 23.0941 6.64843 23.2638C6.71143 23.3814 6.73532 23.6034 6.70145 23.7573C6.65972 23.9469 6.69006 24.0788 6.79559 24.1661C6.88117 24.237 6.95122 24.3425 6.95122 24.4005C6.95122 24.4586 7.02863 24.5913 7.12318 24.6956C7.26349 24.8503 7.27276 24.9208 7.17358 25.0793C7.02339 25.3192 7.01613 25.6445 7.15906 25.7326C7.26752 25.7995 7.47879 26.2428 7.49613 26.4398C7.50137 26.499 7.5812 26.7026 7.67363 26.8924C7.91362 27.3851 8.15201 28.2341 8.22539 28.8573C8.30995 29.575 8.50832 29.7505 9.13759 29.6644C9.39976 29.6285 9.65346 29.56 9.70154 29.5121C9.88126 29.3327 9.78873 25.9422 9.58341 25.1857C9.51517 24.9341 9.49199 24.5526 9.52969 24.3017C9.57887 23.974 9.55609 23.8158 9.44109 23.6881C9.18033 23.3984 9.04093 22.2961 9.01885 20.3478C9.00655 19.2638 8.94094 18.2141 8.86181 17.8332C8.66385 16.8809 8.70689 13.2889 8.92007 12.964C9.08114 12.7188 9.39996 12.6203 10.8974 12.3528C11.3214 12.2771 11.8431 12.1282 12.0565 12.0219C12.2699 11.9157 12.8528 11.7513 13.3518 11.6568C13.8507 11.5623 14.4857 11.3805 14.7629 11.253C15.3311 10.9916 15.8295 10.826 16.2749 10.7509C16.4412 10.7228 16.8721 10.6316 17.2324 10.548C17.9116 10.3906 18.599 10.2514 19.5507 10.0786C19.8556 10.0233 20.3319 9.87149 20.6091 9.74134C20.8863 9.61119 21.3038 9.45388 21.5369 9.39172C21.77 9.32947 22.098 9.16331 22.2658 9.02239C22.4696 8.8513 22.637 8.78724 22.7703 8.82938C22.9706 8.89285 24.1069 8.57531 24.6061 8.31632C24.7532 8.23998 24.9476 8.17752 25.038 8.17752C25.1284 8.17752 25.5523 8.06658 25.98 7.93109C28.3632 7.17584 29.3237 6.95747 29.7449 7.07515C30.1295 7.18257 30.5375 7.70187 30.5375 8.08377C30.5375 8.21906 30.5848 8.48781 30.6426 8.68112C30.7626 9.08214 30.8502 10.0121 30.8984 11.3961C30.9167 11.9216 30.9628 12.759 31.0008 13.2568C31.0578 14.004 31.0681 17.7335 31.0202 20.2975C31.0001 21.377 31.0714 22.8065 31.1572 23.0421C31.3395 23.5426 31.4001 26.3709 31.3555 32.2882C31.3448 33.6941 31.328 33.827 31.148 33.923C31.0272 33.9876 29.4741 34.0463 27.091 34.0765C24.9673 34.1033 22.4587 34.1756 21.5163 34.2369C20.5738 34.2984 17.6482 34.3573 15.0149 34.368C10.7717 34.3851 10.1927 34.4062 9.92471 34.5538C9.27215 34.9131 9.20865 34.9234 8.56466 34.7735C7.62807 34.5555 6.79428 34.853 7.14848 35.2787C7.214 35.3575 7.39835 35.4505 7.55822 35.4856C7.71808 35.5206 7.95313 35.6272 8.08044 35.7224C8.20775 35.8176 8.74287 36.0235 9.26953 36.1799C9.79619 36.3363 10.3313 36.5043 10.4586 36.5531C10.5859 36.6019 10.8709 36.6418 11.0918 36.6418C11.3128 36.6418 11.6472 36.7059 11.835 36.7842C12.0244 36.8632 12.7303 36.956 13.4193 36.9927C14.1029 37.029 14.9523 37.0983 15.307 37.1465C15.6616 37.1948 16.0757 37.2096 16.2271 37.1794C16.379 37.149 16.5332 37.1742 16.5711 37.2354C16.6184 37.3117 16.6986 37.315 16.8274 37.2463C17.1264 37.0866 22.9417 37.1485 24.5401 37.3285C25.0391 37.3846 26.037 37.4988 26.7577 37.5823C28.7059 37.808 30.7921 37.88 31.4256 37.7437C31.8316 37.6562 32.0299 37.6568 32.2462 37.7462C32.4874 37.8458 32.5954 37.8315 32.9456 37.6532C33.289 37.4783 33.3598 37.3917 33.3598 37.1461C33.3598 36.9604 33.4726 36.7218 33.6622 36.5063C33.885 36.2531 33.9652 36.0602 33.967 35.7736C33.9683 35.5597 34.0121 35.2035 34.0642 34.9822C34.1162 34.7609 34.1659 34.1741 34.1744 33.6781C34.1846 33.0927 34.2403 32.6998 34.333 32.5586C34.4565 32.3705 34.4562 32.2837 34.3305 31.9198C34.2074 31.5632 34.206 31.4586 34.3217 31.2361C34.3968 31.0917 34.4385 30.9415 34.4143 30.9026C34.3134 30.7396 34.2686 26.3141 34.3645 25.9857C34.4407 25.7249 34.4323 25.5879 34.3302 25.4324C34.2296 25.2792 34.2073 24.9591 34.2441 24.1962C34.2789 23.4766 34.2573 23.1227 34.1726 23.0209C34.0827 22.9129 34.08 22.8217 34.1621 22.6687C34.2348 22.5332 34.2462 22.2288 34.1952 21.7822C34.1526 21.4082 34.1281 21.0342 34.1408 20.9512C34.1888 20.6381 34.4821 11.1569 34.4482 11.0129C34.4392 10.9747 34.4652 9.56301 34.5062 7.87577C34.547 6.18854 34.5415 4.50965 34.494 4.14494C34.4465 3.78024 34.446 3.36685 34.493 3.22624C34.5549 3.04067 34.5267 2.87843 34.3896 2.63372C34.166 2.23411 33.8267 2.16723 33.458 2.44996ZM8.42909 10.6166C8.40117 10.6858 8.37829 10.6292 8.37829 10.4909C8.37829 10.3526 8.40117 10.296 8.42909 10.3651C8.45712 10.4343 8.45712 10.5475 8.42909 10.6166ZM22.3226 11.9827C22.1009 12.0821 21.5566 12.2427 21.1131 12.3397C20.1084 12.5595 18.9267 12.9073 18.7998 13.0205C18.7471 13.0675 18.5287 13.106 18.3144 13.106C18.1001 13.106 17.8349 13.1539 17.7251 13.2126C17.6153 13.2712 17.1534 13.41 16.6986 13.5211C16.2438 13.6322 15.6449 13.8398 15.3677 13.9826C15.0905 14.1253 14.6369 14.2807 14.3597 14.3278C13.1648 14.531 12.9351 14.5853 12.6966 14.7214C12.558 14.8004 12.3993 14.8671 12.3438 14.8695C12.1117 14.8795 10.5044 15.4555 10.21 15.6343C10.0342 15.7409 9.79216 15.9942 9.67221 16.1972C9.47505 16.5306 9.46951 16.5775 9.61486 16.6836C9.70346 16.7482 9.76394 16.9024 9.74942 17.0263C9.71314 17.3365 10.0089 17.521 10.2758 17.3548C10.5172 17.2043 10.6807 17.194 10.6807 17.329C10.6807 17.3835 10.5219 17.4944 10.3279 17.5754C9.86655 17.7677 9.87854 17.9338 10.3538 17.9338C10.7071 17.9338 10.7408 17.9606 10.8578 18.3345C10.928 18.5594 10.9831 19.2595 10.9831 19.9301C10.9831 20.5872 11.0307 21.3688 11.0891 21.6668C11.1959 22.2131 11.1088 23.6859 10.8709 25.3517C10.7681 26.0721 10.7707 26.0879 11.0888 26.6427C11.3487 27.0959 11.3913 27.2471 11.3096 27.4258C11.2345 27.5906 11.2828 27.9936 11.4989 29.0014C11.6587 29.7462 11.7912 30.446 11.7935 30.5567C11.7958 30.6673 11.9333 30.9163 12.0992 31.1099C12.3863 31.4452 12.4286 31.4607 12.9868 31.4367C13.3091 31.4228 13.8254 31.3283 14.1341 31.2267C14.6816 31.0465 14.7071 31.0467 15.1826 31.2344C15.889 31.5132 17.9436 31.5412 18.4261 31.2785C18.7692 31.0918 19.267 31.034 21.3147 30.9439C21.939 30.9165 22.5582 30.8341 22.7318 30.7554C22.9014 30.6786 23.1377 30.6413 23.2569 30.6723C23.3881 30.7065 23.6146 30.642 23.8305 30.5089C24.1477 30.3133 24.1874 30.2418 24.1874 29.8651C24.1874 29.5101 24.1223 29.3717 23.7864 29.0124C23.5659 28.7764 23.3379 28.4069 23.2797 28.1912C23.2215 27.9757 23.1298 27.772 23.0759 27.7387C23.0219 27.7055 22.9778 27.611 22.9778 27.5286C22.9778 27.3468 22.1002 25.8097 21.9359 25.7038C21.8714 25.6622 21.7357 25.5302 21.6342 25.4103C21.4863 25.2355 21.472 25.1509 21.5622 24.9827C21.7371 24.6566 22.3215 24.4342 23.962 24.0697C24.1984 24.0171 24.479 23.9277 24.5854 23.8709C24.6918 23.814 24.8723 23.7675 24.9865 23.7675C25.1951 23.7675 25.8001 23.0558 25.8001 22.8105C25.8001 22.541 25.3802 22.1644 25.0146 22.1059C24.2702 21.9867 24.1787 21.9475 24.0878 21.7089C24.037 21.5755 23.9055 21.4183 23.7957 21.3597C23.5473 21.227 22.4733 21.2199 22.1341 21.3485C21.9956 21.4011 21.5594 21.4678 21.1649 21.4967C20.7704 21.5256 20.4106 21.572 20.3654 21.5999C20.2696 21.6589 17.9314 21.8698 16.8292 21.9188C16.4135 21.9372 15.8255 22.0327 15.5226 22.1307C15.0287 22.2907 14.9647 22.3442 14.9026 22.6494C14.8152 23.0783 14.9681 23.5306 15.2229 23.5971C15.3619 23.6334 15.4181 23.736 15.4181 23.9533C15.4181 24.1211 15.4671 24.2888 15.5271 24.3257C15.587 24.3627 15.6106 24.4938 15.5797 24.6171C15.5486 24.7404 15.5854 24.9262 15.6613 25.0299C15.7772 25.188 15.825 25.1971 15.9581 25.087C16.0913 24.9767 16.1694 24.9934 16.4477 25.1914C16.7524 25.4083 16.8834 25.4278 18.0892 25.4353C18.8099 25.4397 19.4535 25.4511 19.5194 25.4605C19.5853 25.4697 19.6706 25.6923 19.709 25.9551C19.7473 26.2179 19.8457 26.6026 19.9276 26.8099C20.0095 27.0171 20.0541 27.2449 20.0269 27.3158C19.9825 27.4309 18.215 27.6402 16.93 27.6824C16.736 27.6887 16.3505 27.7584 16.0733 27.8372C15.7961 27.916 15.3198 28.008 15.0149 28.0415C14.71 28.0751 14.3066 28.1262 14.1185 28.155C13.7802 28.207 13.7771 28.2041 13.8294 27.8734C13.8586 27.6896 13.8268 27.1319 13.7591 26.634C13.6914 26.1362 13.6555 25.654 13.6795 25.5626C13.7034 25.4712 13.664 25.1318 13.5922 24.8082C13.4066 23.9739 13.4722 22.8957 13.7297 22.5482C13.9465 22.2556 13.9462 22.2173 13.7126 20.5722C13.6555 20.17 13.5593 19.7487 13.4987 19.6358C13.3548 19.3674 13.4693 18.8489 13.7369 18.5583C13.9939 18.2791 15.5421 17.5327 16.3757 17.2861C16.7083 17.1877 17.1392 17.0499 17.3332 16.9799C17.8337 16.7995 19.0833 16.4434 19.8531 16.262C20.2135 16.1771 20.6736 16.0602 20.8755 16.0024C21.0775 15.9444 21.293 15.928 21.3543 15.9659C21.4157 16.0037 21.4659 16.2667 21.4659 16.5503C21.4659 16.834 21.531 17.3405 21.6105 17.6759C21.6901 18.0114 21.7834 18.5406 21.8178 18.852C21.9022 19.6147 22.1477 19.8434 22.9487 19.9055L23.5464 19.9518L23.8219 19.4084C24.0853 18.8889 24.1143 18.8656 24.4837 18.8753C25.1054 18.8915 25.3684 18.6915 25.4395 18.1481C25.6319 16.6794 25.6768 15.8429 25.5834 15.4696C25.5279 15.2483 25.4407 14.9036 25.3893 14.7036C25.2665 14.2244 25.2716 13.8645 25.4079 13.4109C25.5098 13.0715 25.4943 13.0024 25.2315 12.6248C24.8799 12.1197 24.841 12.1024 23.8346 12.0025C23.3911 11.9585 22.9602 11.8954 22.877 11.8623C22.7938 11.8291 22.5444 11.8833 22.3226 11.9827ZM26.9277 24.7521C26.583 25.0495 26.4815 25.2127 26.4374 25.5406C26.4034 25.794 26.4253 25.981 26.4942 26.0234C26.6449 26.1163 26.6369 26.5131 26.4813 26.6684C26.3817 26.7678 26.3847 26.8109 26.4964 26.8798C26.5996 26.9434 26.6198 27.0885 26.5729 27.4296C26.5259 27.7717 26.5616 28.0254 26.7091 28.3988C26.8189 28.6769 26.9088 29.0106 26.9088 29.1401C26.9088 29.4066 27.28 29.608 27.7983 29.6227C28.3344 29.6379 28.5025 29.3521 28.5751 28.3024C28.5888 28.1039 28.6331 27.8172 28.6734 27.6652C28.7251 27.47 28.6925 27.3074 28.5627 27.112C28.4164 26.8918 28.3834 26.6676 28.4016 26.0168C28.4257 25.1523 28.3225 24.7232 28.0389 24.5081C27.7394 24.2811 27.3828 24.3594 26.9277 24.7521ZM27.312 25.2343C27.312 25.4119 27.095 25.381 27.0327 25.1945C27.0108 25.1288 27.0647 25.075 27.1525 25.075C27.2403 25.075 27.312 25.1467 27.312 25.2343Z" fill="black"/>
</svg>
