<svg width="341" height="341" viewBox="0 0 341 341" fill="currentColor" xmlns="http://www.w3.org/2000/svg">
<path d="M22.3984 54.0755C18.6161 57.2668 17.375 59.0989 16.3113 62.9403C15.6021 65.5406 15.4248 66.959 15.2475 71.8051C15.0702 75.5283 16.6659 82.1474 18.7343 86.2843C21.5711 91.8396 23.1076 93.6717 26.1808 95.09C27.54 95.681 29.1948 96.6857 29.8449 97.3358C30.495 97.9268 31.4406 98.6359 31.9133 98.8723C32.3861 99.1087 33.6272 99.8179 34.5728 100.468C35.5775 101.059 38.296 102.536 40.6009 103.718C42.9648 104.9 45.0333 106.082 45.2106 106.437C45.447 106.732 46.038 106.969 46.688 106.969C47.279 106.969 47.87 107.323 48.0473 107.796C48.2246 108.21 49.1111 108.742 50.0567 108.919C50.9432 109.096 53.7208 110.456 56.2029 111.933C58.6851 113.411 60.99 114.652 61.4036 114.652C61.7582 114.652 62.0537 114.888 62.0537 115.125C62.0537 115.42 63.7676 116.484 65.8361 117.488C67.9636 118.552 70.0321 119.734 70.5049 120.207C70.9185 120.68 72.3369 121.566 73.6962 122.216C74.9964 122.926 77.2421 124.344 78.6605 125.408C80.0789 126.531 82.4428 128.244 83.9203 129.249C85.3977 130.254 87.4071 131.79 88.3527 132.618C90.4211 134.45 102.536 141.778 106.732 143.728C108.328 144.497 110.81 145.915 112.288 146.92C113.765 147.924 116.425 149.579 118.198 150.525C123.576 153.421 125.289 154.543 125.289 154.957C125.289 155.253 125.526 155.43 125.88 155.43C126.353 155.43 130.549 158.03 136.518 162.108C137.346 162.64 141.01 165.122 144.674 167.604C150.288 171.387 154.071 174.755 167.131 187.757C175.819 196.326 183.915 204.068 185.216 204.896C186.457 205.782 188.702 207.673 190.239 209.092C191.716 210.51 194.317 212.578 195.912 213.642C197.567 214.765 199.695 216.42 200.699 217.306C204.305 220.557 208.855 223.63 212.933 225.521C214.765 226.408 216.302 227.353 216.302 227.649C216.302 227.885 216.656 228.121 217.129 228.121C217.543 228.121 218.252 228.476 218.606 228.949C219.02 229.422 220.084 230.013 221.029 230.19C221.916 230.367 223.157 231.076 223.748 231.726C224.28 232.317 225.107 232.849 225.521 232.849C225.935 232.849 226.526 233.322 226.88 233.854C227.294 234.681 227.589 234.74 228.299 234.149C229.008 233.558 229.303 233.677 230.072 234.8C230.603 235.568 232.14 236.809 233.558 237.459C234.977 238.168 237.459 239.468 239.055 240.414C241.064 241.596 242.364 242.01 243.192 241.714C244.669 241.182 248.688 242.955 250.047 244.787C250.993 246.028 251.111 246.028 251.524 245.083C251.879 244.078 251.997 244.078 253.297 245.319C254.302 246.265 255.07 246.501 256.252 246.206C257.493 245.851 258.203 246.147 259.562 247.447C261.276 249.042 261.335 249.042 262.162 247.979C262.99 246.856 262.99 246.856 264.408 248.156L265.826 249.456L266.122 247.506C266.299 246.087 266.063 245.201 265.294 244.314C264.644 243.664 264.349 242.896 264.585 242.719C264.763 242.482 264.703 242.305 264.349 242.305C263.817 242.305 259.444 236.395 259.444 235.686C259.444 235.213 244.964 213.642 243.132 211.278C242.364 210.274 241.3 209.092 240.828 208.56C240.355 208.028 239.941 207.378 239.941 207.082C239.941 206.787 238.7 204.955 237.223 203.004C235.745 201.054 233.44 197.981 232.14 196.208C230.781 194.435 228.121 191.066 226.289 188.762C224.398 186.457 223.039 184.388 223.216 184.152C223.453 183.975 223.275 183.797 222.921 183.797C222.211 183.797 218.666 180.429 218.666 179.719C218.666 179.188 214.174 174.932 213.642 174.932C212.756 174.932 213.524 177.296 214.883 178.538C217.838 181.256 228.121 194.435 227.294 194.435C227.117 194.435 225.757 192.78 224.162 190.712C222.625 188.703 219.079 184.506 216.302 181.433C209.387 173.691 182.438 146.801 175.228 140.36C171.977 137.523 168.904 134.686 168.432 134.213C167.959 133.682 165.831 131.968 163.704 130.372C161.576 128.776 159.508 127.062 159.153 126.59C158.739 126.058 158.385 125.88 158.385 126.117C158.385 126.59 148.752 119.971 148.456 119.261C148.338 119.025 148.042 118.789 147.747 118.789C147.511 118.789 144.142 116.838 140.241 114.415C136.4 111.992 132.322 109.392 131.199 108.683C130.076 107.974 127.121 106.319 124.698 105.019C122.275 103.718 119.971 102.3 119.616 101.886C119.261 101.414 118.67 101.059 118.375 101.059C118.02 101.059 116.838 100.409 115.715 99.6997C114.593 98.9314 113.056 98.1041 112.229 97.9268C110.692 97.5131 108.092 95.9765 99.5815 90.5985C97.9858 89.5938 95.9173 88.4119 95.0308 87.9982C94.0853 87.5845 93.3761 87.0526 93.3761 86.8162C93.3761 86.5798 92.726 86.2252 91.8986 86.0479C91.0712 85.8115 89.0028 84.7477 87.2889 83.684C83.8021 81.4382 68.3182 73.5781 63.2357 71.4505C57.1485 68.9684 47.87 64.2996 47.87 63.7677C47.87 63.4722 48.1655 63.2358 48.461 63.2358C48.8747 63.2358 48.8747 62.8812 48.5201 62.172C48.1655 61.5219 45.3879 60.3399 40.66 58.8625C31.677 56.0848 29.5494 55.1983 29.5494 54.1937C29.5494 53.1299 27.6582 51.416 26.4763 51.416C25.9444 51.416 24.1123 52.598 22.3984 54.0755ZM45.8016 62.6448C45.9789 62.9403 45.7425 63.2358 45.2697 63.2358C44.7378 63.2358 44.3241 62.9403 44.3241 62.6448C44.3241 62.2902 44.5605 62.0538 44.856 62.0538C45.2106 62.0538 45.6243 62.2902 45.8016 62.6448ZM107.264 96.9221C108.269 97.5722 108.801 98.1041 108.564 98.1041C107.914 98.1041 104.605 96.3902 104.605 96.0356C104.605 95.4446 105.55 95.7992 107.264 96.9221ZM230.19 197.39C230.722 198.336 231.017 199.163 230.899 199.163C230.781 199.163 230.131 198.336 229.421 197.39C228.653 196.385 228.358 195.617 228.653 195.617C229.008 195.617 229.658 196.385 230.19 197.39ZM237.577 207.437C237.577 207.732 237.459 208.028 237.341 208.028C237.163 208.028 236.868 207.732 236.691 207.437C236.513 207.082 236.632 206.846 236.927 206.846C237.282 206.846 237.577 207.082 237.577 207.437Z" fill="black"/>
<path d="M272.15 137.227C267.836 138.823 263.699 143.906 262.103 149.52C260.803 154.13 260.271 164.649 261.098 168.727C262.162 173.928 263.64 179.838 264.881 183.797C265.531 185.925 266.949 191.066 268.013 195.322C270.909 206.432 272.8 213.288 273.923 216.302C280.778 235.213 286.688 254.716 288.047 262.812C289.229 270.2 289.761 275.578 289.17 275.223C288.875 275.046 287.22 274.75 285.506 274.514C283.792 274.337 280.069 273.746 277.292 273.273C274.455 272.8 269.254 272.15 265.649 271.795C257.434 271.086 249.87 270.2 246.442 269.55C240.946 268.427 232.849 267.186 222.507 265.885C219.611 265.472 216.656 264.881 216.006 264.467C215.356 264.053 213.169 263.522 211.101 263.285C209.092 263.049 207.082 262.576 206.668 262.162C206.255 261.808 204.364 260.98 202.354 260.389C198.808 259.326 198.749 259.326 196.74 260.567C195.617 261.217 194.258 261.808 193.726 261.808C193.135 261.808 192.662 262.221 192.662 262.812C192.662 264.053 190.003 267.54 188.643 267.954C187.58 268.309 181.847 276.582 181.138 278.828C180.901 279.596 181.079 281.369 181.492 282.729C182.142 284.974 182.615 285.447 185.511 286.806C189.057 288.52 199.399 290.825 203.123 290.766C204.364 290.766 209.092 291.298 213.642 291.948C218.193 292.657 223.039 293.307 224.339 293.426C227.412 293.78 230.072 294.726 229.658 295.435C229.481 295.73 229.894 295.967 230.663 295.967C232.613 295.967 250.165 297.858 251.17 298.153C252.884 298.626 259.739 299.572 269.195 300.517C271.5 300.754 273.568 301.049 273.805 301.227C274.041 301.345 277.587 301.581 281.724 301.699C285.802 301.818 289.407 302.172 289.761 302.527C290.116 302.881 290.766 302.881 291.712 302.468C292.775 301.995 293.721 301.995 295.553 302.586C297.621 303.295 298.153 303.295 299.631 302.409C300.517 301.877 301.818 301.404 302.468 301.404C303.118 301.404 304.063 300.754 304.595 299.926C305.186 299.099 306.25 298.153 307.018 297.858C307.905 297.503 308.614 296.617 308.85 295.671C309.087 294.785 310.091 293.189 311.155 292.244C313.401 290.057 317.538 283.201 317.124 282.197C317.006 281.783 317.951 279.242 319.252 276.523C320.966 273.036 321.675 270.791 321.734 268.84C321.793 266.89 322.029 266.181 322.561 266.358C323.507 266.772 323.507 264.644 322.561 263.699C321.557 262.694 320.906 262.812 320.906 263.935C320.906 265.649 319.961 264.231 319.843 262.28C319.784 261.217 319.311 259.03 318.779 257.493C318.247 255.957 318.011 254.007 318.188 253.179C318.483 252.175 318.365 251.82 317.951 252.056C317.597 252.293 317.36 251.524 317.36 250.106C317.36 248.806 316.829 246.087 316.238 244.019C315.588 241.95 314.997 239.055 314.937 237.577C314.819 236.1 314.583 234.504 314.346 234.031C314.11 233.558 313.637 231.667 313.224 229.894C312.81 228.121 311.982 225.521 311.392 224.221C310.801 222.862 310.091 220.734 309.796 219.493C308.85 215.592 308.791 215.415 308.318 215.061C307.727 214.647 304.359 205.073 304.359 203.714C304.359 203.182 304.122 202.709 303.827 202.709C303.531 202.709 303.118 201.586 302.881 200.168C302.645 198.808 302.113 197.035 301.699 196.208C300.754 194.376 299.394 190.771 299.335 190.003C299.276 189.648 298.567 187.875 297.681 185.925C296.794 184.034 296.085 182.32 296.085 182.083C296.085 181.906 295.258 179.601 294.253 177.001C293.248 174.401 292.244 171.446 291.948 170.5C290.766 166.481 289.643 163.704 285.388 154.484C284.206 151.943 283.792 148.397 284.856 150.111C285.329 150.879 285.447 150.879 285.684 150.111C286.156 148.693 286.393 142.428 285.979 142.428C285.743 142.428 285.388 141.778 285.211 140.951C284.974 140.123 284.442 139.473 284.029 139.473C283.556 139.473 282.788 139.119 282.374 138.705C281.665 137.996 279.478 137.405 275.4 136.755C274.573 136.636 273.155 136.873 272.15 137.227Z" fill="black"/>
<path d="M201.29 164.354C204.068 167.486 210.924 174.342 211.219 174.342C212.106 174.342 211.455 172.037 210.51 171.741C209.919 171.505 209.151 170.5 208.737 169.377C208.264 168.136 207.259 167.013 205.959 166.304C204.836 165.713 203.891 165.063 203.891 164.827C203.891 164.472 201.231 163.113 200.522 163.113C200.345 163.113 200.64 163.704 201.29 164.354Z" fill="black"/>
</svg>
