<svg width="341" height="341" viewBox="0 0 341 341" fill="none" xmlns="http://www.w3.org/2000/svg">
<path d="M318.602 54.0755C322.384 57.2668 323.625 59.0989 324.689 62.9403C325.398 65.5406 325.575 66.959 325.753 71.8051C325.93 75.5283 324.334 82.1474 322.266 86.2843C319.429 91.8396 317.892 93.6717 314.819 95.09C313.46 95.681 311.805 96.6857 311.155 97.3358C310.505 97.9268 309.559 98.6359 309.087 98.8723C308.614 99.1087 307.373 99.8179 306.427 100.468C305.423 101.059 302.704 102.536 300.399 103.718C298.035 104.9 295.967 106.082 295.789 106.437C295.553 106.732 294.962 106.969 294.312 106.969C293.721 106.969 293.13 107.323 292.953 107.796C292.775 108.21 291.889 108.742 290.943 108.919C290.057 109.096 287.279 110.456 284.797 111.933C282.315 113.411 280.01 114.652 279.596 114.652C279.242 114.652 278.946 114.888 278.946 115.125C278.946 115.42 277.232 116.484 275.164 117.488C273.036 118.552 270.968 119.734 270.495 120.207C270.081 120.68 268.663 121.566 267.304 122.216C266.004 122.926 263.758 124.344 262.34 125.408C260.921 126.531 258.557 128.244 257.08 129.249C255.602 130.254 253.593 131.79 252.647 132.618C250.579 134.45 238.464 141.778 234.268 143.728C232.672 144.497 230.19 145.915 228.712 146.92C227.235 147.924 224.575 149.579 222.802 150.525C217.424 153.421 215.711 154.543 215.711 154.957C215.711 155.253 215.474 155.43 215.12 155.43C214.647 155.43 210.451 158.03 204.482 162.108C203.654 162.64 199.99 165.122 196.326 167.604C190.712 171.387 186.929 174.755 173.869 187.757C165.181 196.326 157.085 204.068 155.784 204.896C154.543 205.782 152.298 207.673 150.761 209.092C149.284 210.51 146.683 212.578 145.088 213.642C143.433 214.765 141.305 216.42 140.301 217.306C136.696 220.557 132.145 223.63 128.067 225.521C126.235 226.408 124.698 227.353 124.698 227.649C124.698 227.885 124.344 228.121 123.871 228.121C123.457 228.121 122.748 228.476 122.394 228.949C121.98 229.422 120.916 230.013 119.971 230.19C119.084 230.367 117.843 231.076 117.252 231.726C116.72 232.317 115.893 232.849 115.479 232.849C115.065 232.849 114.474 233.322 114.12 233.854C113.706 234.681 113.411 234.74 112.701 234.149C111.992 233.558 111.697 233.677 110.928 234.8C110.397 235.568 108.86 236.809 107.442 237.459C106.023 238.168 103.541 239.468 101.945 240.414C99.9361 241.596 98.6359 242.01 97.8085 241.714C96.331 241.182 92.3123 242.955 90.953 244.787C90.0075 246.028 89.8893 246.028 89.4756 245.083C89.121 244.078 89.0028 244.078 87.7026 245.319C86.6979 246.265 85.9296 246.501 84.7477 246.206C83.5066 245.851 82.7974 246.147 81.4381 247.447C79.7243 249.042 79.6652 249.042 78.8378 247.979C78.0104 246.856 78.0104 246.856 76.592 248.156L75.1737 249.456L74.8782 247.506C74.7009 246.087 74.9373 245.201 75.7055 244.314C76.3556 243.664 76.6511 242.896 76.4147 242.719C76.2374 242.482 76.2965 242.305 76.6511 242.305C77.183 242.305 81.5563 236.395 81.5563 235.686C81.5563 235.213 96.0355 213.642 97.8676 211.278C98.6359 210.274 99.6997 209.092 100.172 208.56C100.645 208.028 101.059 207.378 101.059 207.082C101.059 206.787 102.3 204.955 103.777 203.004C105.255 201.054 107.56 197.981 108.86 196.208C110.219 194.435 112.879 191.066 114.711 188.762C116.602 186.457 117.961 184.388 117.784 184.152C117.548 183.975 117.725 183.797 118.079 183.797C118.789 183.797 122.335 180.429 122.335 179.719C122.335 179.188 126.826 174.932 127.358 174.932C128.244 174.932 127.476 177.296 126.117 178.538C123.162 181.256 112.879 194.435 113.706 194.435C113.883 194.435 115.243 192.78 116.838 190.712C118.375 188.703 121.921 184.506 124.698 181.433C131.613 173.691 158.562 146.801 165.772 140.36C169.023 137.523 172.096 134.686 172.568 134.213C173.041 133.682 175.169 131.968 177.296 130.372C179.424 128.776 181.492 127.062 181.847 126.59C182.261 126.058 182.615 125.88 182.615 126.117C182.615 126.59 192.248 119.971 192.544 119.261C192.662 119.025 192.958 118.789 193.253 118.789C193.489 118.789 196.858 116.838 200.759 114.415C204.6 111.992 208.678 109.392 209.801 108.683C210.924 107.974 213.879 106.319 216.302 105.019C218.725 103.718 221.029 102.3 221.384 101.886C221.739 101.414 222.33 101.059 222.625 101.059C222.98 101.059 224.162 100.409 225.285 99.6997C226.407 98.9314 227.944 98.1041 228.771 97.9268C230.308 97.5131 232.908 95.9765 241.419 90.5985C243.014 89.5938 245.083 88.4119 245.969 87.9982C246.915 87.5845 247.624 87.0526 247.624 86.8162C247.624 86.5798 248.274 86.2252 249.101 86.0479C249.929 85.8115 251.997 84.7477 253.711 83.684C257.198 81.4382 272.682 73.5781 277.764 71.4505C283.851 68.9684 293.13 64.2996 293.13 63.7677C293.13 63.4722 292.835 63.2358 292.539 63.2358C292.125 63.2358 292.125 62.8812 292.48 62.172C292.835 61.5219 295.612 60.3399 300.34 58.8625C309.323 56.0848 311.451 55.1983 311.451 54.1937C311.451 53.1299 313.342 51.416 314.524 51.416C315.056 51.416 316.888 52.598 318.602 54.0755ZM295.198 62.6448C295.021 62.9403 295.258 63.2358 295.73 63.2358C296.262 63.2358 296.676 62.9403 296.676 62.6448C296.676 62.2902 296.44 62.0538 296.144 62.0538C295.789 62.0538 295.376 62.2902 295.198 62.6448ZM233.736 96.9221C232.731 97.5722 232.199 98.1041 232.436 98.1041C233.086 98.1041 236.395 96.3902 236.395 96.0356C236.395 95.4446 235.45 95.7992 233.736 96.9221ZM110.81 197.39C110.278 198.336 109.983 199.163 110.101 199.163C110.219 199.163 110.869 198.336 111.579 197.39C112.347 196.385 112.642 195.617 112.347 195.617C111.992 195.617 111.342 196.385 110.81 197.39ZM103.423 207.437C103.423 207.732 103.541 208.028 103.659 208.028C103.837 208.028 104.132 207.732 104.309 207.437C104.487 207.082 104.368 206.846 104.073 206.846C103.718 206.846 103.423 207.082 103.423 207.437Z" fill="black"/>
<path d="M68.8501 137.227C73.1643 138.823 77.3013 143.906 78.8969 149.52C80.1971 154.13 80.729 164.649 79.9016 168.727C78.8378 173.928 77.3603 179.838 76.1193 183.797C75.4692 185.925 74.0508 191.066 72.987 195.322C70.0912 206.432 68.2 213.288 67.0772 216.302C60.2217 235.213 54.3118 254.716 52.9525 262.812C51.7706 270.2 51.2387 275.578 51.8297 275.223C52.1252 275.046 53.7799 274.75 55.4938 274.514C57.2077 274.337 60.9309 273.746 63.7085 273.273C66.5453 272.8 71.746 272.15 75.351 271.795C83.5657 271.086 91.1304 270.2 94.5581 269.55C100.054 268.427 108.151 267.186 118.493 265.885C121.389 265.472 124.344 264.881 124.994 264.467C125.644 264.053 127.831 263.522 129.899 263.285C131.909 263.049 133.918 262.576 134.332 262.162C134.745 261.808 136.636 260.98 138.646 260.389C142.192 259.326 142.251 259.326 144.26 260.567C145.383 261.217 146.742 261.808 147.274 261.808C147.865 261.808 148.338 262.221 148.338 262.812C148.338 264.053 150.997 267.54 152.357 267.954C153.42 268.309 159.153 276.582 159.862 278.828C160.099 279.596 159.921 281.369 159.508 282.729C158.858 284.974 158.385 285.447 155.489 286.806C151.943 288.52 141.601 290.825 137.878 290.766C136.636 290.766 131.909 291.298 127.358 291.948C122.807 292.657 117.961 293.307 116.661 293.426C113.588 293.78 110.928 294.726 111.342 295.435C111.519 295.73 111.106 295.967 110.337 295.967C108.387 295.967 90.8349 297.858 89.8302 298.153C88.1163 298.626 81.2609 299.572 71.8051 300.517C69.5002 300.754 67.4318 301.049 67.1954 301.227C66.959 301.345 63.413 301.581 59.2761 301.699C55.1983 301.818 51.5933 302.172 51.2387 302.527C50.8841 302.881 50.234 302.881 49.2884 302.468C48.2246 301.995 47.2791 301.995 45.447 302.586C43.3785 303.295 42.8467 303.295 41.3692 302.409C40.4827 301.877 39.1825 301.404 38.5325 301.404C37.8824 301.404 36.9368 300.754 36.4049 299.926C35.8139 299.099 34.7501 298.153 33.9818 297.858C33.0954 297.503 32.3862 296.617 32.1498 295.671C31.9134 294.785 30.9087 293.189 29.8449 292.244C27.5992 290.057 23.4623 283.201 23.876 282.197C23.9942 281.783 23.0486 279.242 21.7484 276.523C20.0345 273.036 19.3253 270.791 19.2662 268.84C19.2071 266.89 18.9708 266.181 18.4389 266.358C17.4933 266.772 17.4933 264.644 18.4389 263.699C19.4435 262.694 20.0936 262.812 20.0936 263.935C20.0936 265.649 21.0392 264.231 21.1574 262.28C21.2165 261.217 21.6893 259.03 22.2212 257.493C22.7531 255.957 22.9895 254.007 22.8122 253.179C22.5167 252.175 22.6349 251.82 23.0486 252.056C23.4032 252.293 23.6396 251.524 23.6396 250.106C23.6396 248.806 24.1714 246.087 24.7624 244.019C25.4125 241.95 26.0035 239.055 26.0626 237.577C26.1808 236.1 26.4172 234.504 26.6536 234.031C26.89 233.558 27.3628 231.667 27.7765 229.894C28.1902 228.121 29.0175 225.521 29.6085 224.221C30.1995 222.862 30.9087 220.734 31.2042 219.493C32.1498 215.592 32.2089 215.415 32.6817 215.061C33.2727 214.647 36.6413 205.073 36.6413 203.714C36.6413 203.182 36.8777 202.709 37.1732 202.709C37.4687 202.709 37.8824 201.586 38.1188 200.168C38.3552 198.808 38.887 197.035 39.3007 196.208C40.2463 194.376 41.6056 190.771 41.6647 190.003C41.7238 189.648 42.433 187.875 43.3194 185.925C44.2059 184.034 44.9151 182.32 44.9151 182.083C44.9151 181.906 45.7425 179.601 46.7472 177.001C47.7519 174.401 48.7565 171.446 49.052 170.5C50.234 166.481 51.3569 163.704 55.612 154.484C56.794 151.943 57.2077 148.397 56.1439 150.111C55.6711 150.879 55.5529 150.879 55.3165 150.111C54.8437 148.693 54.6073 142.428 55.021 142.428C55.2574 142.428 55.612 141.778 55.7893 140.951C56.0257 140.123 56.5576 139.473 56.9713 139.473C57.4441 139.473 58.2123 139.119 58.626 138.705C59.3352 137.996 61.5219 137.405 65.5997 136.755C66.4271 136.636 67.8454 136.873 68.8501 137.227Z" fill="black"/>
<path d="M139.71 164.354C136.932 167.486 130.076 174.342 129.781 174.342C128.894 174.342 129.545 172.037 130.49 171.741C131.081 171.505 131.849 170.5 132.263 169.377C132.736 168.136 133.741 167.013 135.041 166.304C136.164 165.713 137.109 165.063 137.109 164.827C137.109 164.472 139.769 163.113 140.478 163.113C140.655 163.113 140.36 163.704 139.71 164.354Z" fill="black"/>
</svg>
