<svg width="341" height="341" viewBox="0 0 341 341" fill="none" xmlns="http://www.w3.org/2000/svg">
<path d="M172.451 16.5849C176.426 15.7003 178.244 15.8001 181.29 17.0144C183.346 17.8435 184.363 18.4326 187.625 20.7253C190.152 22.46 193.692 26.7921 195.37 30.1994C197.595 34.8135 198.029 36.7278 197.427 39.4402C197.137 40.6219 196.97 42.2022 197.072 42.95C197.135 43.6684 197.129 44.6385 197.048 45.0649C196.967 45.4912 196.813 46.6544 196.768 47.5952C196.654 48.5452 196.267 51.0554 195.893 53.1485C195.489 55.2802 195.232 57.2188 195.376 57.5109C195.452 57.8122 195.312 58.3157 194.988 58.7404C194.694 59.1265 194.632 59.6888 194.853 60.0396C195.036 60.361 194.942 61.2044 194.587 61.9102C194.262 62.5775 193.768 65.0675 193.499 67.4233C193.229 69.779 192.894 71.9015 192.688 72.1717C192.511 72.4034 192.519 72.7139 192.673 72.8314C192.867 72.9783 192.71 74.6265 192.337 76.4771C191.974 78.3956 191.717 80.3343 191.791 80.8781C191.895 81.3833 191.768 82.7504 191.517 83.9615C191.333 85.1633 191.143 87.3353 191.133 88.7905C191.162 90.2751 191.106 92.6712 191.028 94.1357C190.95 95.6001 190.955 97.6764 191.026 98.7053C191.195 100.967 189.958 112.524 189.144 116.234C188.852 117.658 188.544 119.984 188.466 121.449C188.388 122.913 188.147 125.473 187.882 127.101C187.099 132.054 186.981 133.731 187.252 133.937C187.445 134.084 187.443 134.326 187.267 134.558C187.031 134.867 186.643 138.9 186.34 144.826C186.276 145.631 186.076 149.258 185.876 152.885C185.555 158.433 185.877 162.578 187.884 177.572C189.167 187.506 190.203 196.643 190.097 197.903C190.059 199.155 190.179 201.562 190.342 203.27C190.535 204.94 190.594 207.667 190.496 209.238C190.406 210.877 190.43 213.089 190.51 214.186C190.842 218.157 190.588 222.657 189.794 226.26C189.462 227.898 189.316 229.372 189.509 229.518C189.664 229.636 189.642 229.985 189.407 230.294C189.2 230.564 189.079 231.204 189.212 231.67C189.316 232.176 189.173 233.164 188.818 233.87C188.492 234.537 188.338 235.7 188.469 236.41C188.591 237.051 188.528 237.856 188.321 238.126C188.115 238.396 188.13 239.017 188.302 239.513C188.638 240.194 188.529 240.417 187.789 240.586C187.049 240.756 186.979 241.008 187.331 242.068C187.569 242.797 187.617 244.418 187.336 245.667C187.093 246.946 186.708 249.214 186.532 250.726C186.305 252.626 185.928 253.681 185.322 254.075C184.238 254.776 183.397 258.282 183.919 260.081C184.261 261.315 184.202 261.392 183.376 261.193C182.542 260.925 182.483 261.002 182.648 262.468C182.767 263.594 182.539 264.214 181.756 264.839C180.906 265.474 180.746 266.084 180.92 267.618C181.111 269.531 181.081 269.569 179.973 269.581C178.825 269.563 178.825 269.563 178.97 271.136L179.114 272.709L177.69 271.933C176.673 271.343 176.21 270.748 176.012 269.806C175.91 269.058 175.554 268.483 175.321 268.55C175.077 268.548 174.991 268.421 175.167 268.19C175.432 267.842 173.741 262.048 173.277 261.696C172.967 261.461 166.055 241.281 165.419 238.909C165.144 237.908 164.9 236.626 164.787 236.053C164.675 235.479 164.455 234.886 164.262 234.739C164.068 234.592 163.487 232.871 162.946 230.937C162.404 229.002 161.54 225.969 161.027 224.239C160.543 222.47 159.662 219.058 159.066 216.716C158.498 214.335 157.821 212.419 157.578 212.417C157.344 212.484 157.316 212.28 157.493 212.048C157.846 211.585 157.407 207.594 156.943 207.242C156.594 206.977 156.045 201.928 156.311 201.581C156.752 201.002 157.918 202.679 158.053 204.183C158.361 207.465 161.868 220.732 162.281 220.192C162.369 220.076 161.962 218.366 161.403 216.295C160.853 214.293 159.871 209.891 159.243 206.549C157.618 198.184 153.435 167.216 152.809 159.304C152.571 155.771 152.244 152.353 152.17 151.81C152.058 151.236 151.995 148.995 152.01 146.812C152.026 144.629 151.934 142.426 151.801 141.959C151.659 141.425 151.719 141.105 151.874 141.223C152.184 141.458 152.649 131.875 152.331 131.33C152.235 131.135 152.228 130.824 152.375 130.631C152.493 130.477 152.894 127.307 153.251 123.555C153.578 119.841 153.907 115.885 154.002 114.799C154.097 113.713 154.486 110.96 154.841 108.731C155.197 106.502 155.417 104.292 155.323 103.854C155.19 103.388 155.252 102.825 155.399 102.632C155.576 102.401 155.739 101.305 155.834 100.219C155.89 99.1041 156.114 97.6891 156.41 97.0605C156.905 95.8512 157.194 93.3888 157.913 85.1567C158.05 83.615 158.306 81.6763 158.477 80.8916C158.677 80.0683 158.682 79.3407 158.527 79.2232C158.373 79.1057 158.464 78.5048 158.76 77.8762C159.018 77.2182 159.352 75.3383 159.509 73.69C159.776 70.2961 162.343 56.2748 163.482 51.8972C164.89 46.6872 166.455 38.3056 166.107 38.0412C165.914 37.8944 165.611 37.9699 165.464 38.163C165.258 38.4332 165.026 38.257 164.738 37.6729C164.489 37.1181 165.099 34.7162 166.487 30.8934C169.144 23.6448 169.624 21.8143 168.966 21.315C168.269 20.7863 168.089 18.6991 168.678 17.927C168.943 17.5795 170.63 16.9702 172.451 16.5849ZM166.402 36.132C166.507 36.3946 166.819 36.3871 167.054 36.0782C167.319 35.7308 167.332 35.3137 167.138 35.1668C166.906 34.9906 166.634 35.0275 166.486 35.2205C166.31 35.4522 166.258 35.8399 166.402 36.132ZM158.226 93.3183C158.151 94.2977 158.234 94.9095 158.352 94.7551C158.676 94.3304 159.203 91.3167 158.97 91.1404C158.583 90.8467 158.344 91.6407 158.226 93.3183ZM162.773 223.552C163.127 224.37 163.522 224.974 163.581 224.897C163.639 224.819 163.422 223.984 163.156 223.05C162.88 222.049 162.525 221.474 162.377 221.667C162.201 221.899 162.38 222.705 162.773 223.552ZM165.672 233.371C165.865 233.518 166.118 233.588 166.176 233.511C166.265 233.395 166.219 233.055 166.113 232.792C165.969 232.5 165.756 232.46 165.609 232.653C165.432 232.884 165.439 233.195 165.672 233.371Z" fill="black"/>
<path d="M102.465 221.061C105.66 219.036 111.05 218.86 115.521 220.608C119.188 222.049 126.342 226.93 128.601 229.497C131.477 232.777 134.611 236.68 136.586 239.458C137.655 240.94 140.316 244.422 142.572 247.232C148.406 254.646 151.953 259.288 153.367 261.52C162.337 275.397 172.164 288.951 176.789 293.863C181.039 298.307 184.296 301.327 184.358 300.765C184.389 300.483 185.02 299.256 185.719 298.019C186.457 296.811 187.925 294.085 188.999 292.035C190.103 289.947 192.269 286.227 193.833 283.696C197.461 277.977 200.65 272.595 201.932 270.033C203.935 265.884 207.157 259.978 211.459 252.576C212.631 250.479 213.716 248.255 213.769 247.624C213.822 246.994 214.563 245.301 215.439 243.833C216.285 242.403 216.977 240.855 216.912 240.379C216.886 239.933 217.286 238.286 217.901 236.68C218.971 233.835 219 233.796 220.814 233.1C221.799 232.69 222.864 232.096 223.129 231.748C223.423 231.362 223.93 231.259 224.317 231.553C225.129 232.169 228.738 232.165 229.686 231.483C230.449 230.964 238.723 231.332 240.548 231.984C241.168 232.212 242.241 233.209 242.925 234.155C244.072 235.695 244.146 236.239 243.593 238.807C242.949 241.975 239.305 249.876 237.411 252.279C236.793 253.09 234.786 256.443 232.944 259.738C231.141 263.064 229.152 266.552 228.582 267.46C227.283 269.644 226.577 271.851 227.247 271.934C227.529 271.965 227.478 272.352 227.095 272.854C226.123 274.128 218.616 286.534 218.309 287.337C217.765 288.692 214.968 293.64 210.876 300.287C209.882 301.91 209.045 303.408 209.044 303.651C209.003 303.864 207.391 306.298 205.407 309.059C203.453 311.782 201.889 314.313 201.944 314.721C202 315.129 201.676 315.553 200.934 315.965C200.094 316.425 199.623 317.043 199.097 318.534C198.531 320.237 198.266 320.585 196.949 321.109C196.159 321.424 195.202 322.038 194.878 322.463C194.554 322.888 193.657 323.182 192.85 323.118C192.014 323.093 190.865 323.318 190.288 323.673C189.614 324.076 188.681 324.099 187.944 323.783C187.245 323.497 185.7 323.36 184.55 323.585C181.999 323.966 175.448 323.261 174.996 322.491C174.784 322.208 172.649 321.563 170.221 321.061C167.083 320.448 165.259 319.795 163.953 318.864C162.646 317.934 162.064 317.736 161.915 318.171C161.715 318.994 160.321 317.937 160.173 316.849C160.016 315.694 160.417 315.328 161.152 315.886C162.275 316.738 161.817 315.415 160.599 314.369C159.932 313.801 158.735 312.406 157.994 311.294C157.253 310.183 156.093 309.06 155.463 308.764C154.658 308.458 154.484 308.204 154.845 308.052C155.177 307.938 154.791 307.401 153.863 306.696C153.011 306.05 151.496 304.352 150.436 302.937C149.405 301.485 147.803 299.659 146.865 298.887C145.956 298.075 145.029 297.128 144.837 296.738C144.645 296.349 143.642 295.1 142.687 293.949C141.732 292.797 140.441 290.964 139.884 289.932C139.289 288.87 138.249 287.35 137.583 286.54C135.5 283.984 135.413 283.857 135.417 283.372C135.44 282.78 130.849 275.821 129.958 275.146C129.61 274.881 129.418 274.492 129.565 274.299C129.713 274.106 129.183 273.277 128.372 272.418C127.6 271.588 126.704 270.36 126.368 269.678C125.639 268.15 123.956 265.47 123.482 265.05C123.279 264.835 122.472 263.49 121.636 261.942C120.839 260.423 120.07 259.108 119.915 258.99C119.799 258.902 118.702 257.216 117.5 255.268C116.297 253.319 114.863 251.194 114.391 250.531C112.348 247.762 111.088 245.648 107.171 238.286C106.095 236.251 103.979 234.218 104.571 235.765C104.839 236.455 104.78 236.533 104.159 236.305C102.995 235.909 98.7744 232.95 98.9805 232.68C99.0983 232.525 98.8492 231.971 98.3957 231.444C97.9716 230.878 97.8109 230.208 98.017 229.937C98.2526 229.628 98.4032 228.95 98.3384 228.474C98.2273 227.659 98.9298 225.937 100.536 222.95C100.871 222.35 101.732 221.541 102.465 221.061Z" fill="black"/>
<path d="M155.537 188.255C156.204 191.626 157.278 199.511 157.131 199.704C156.689 200.283 155.504 198.713 155.781 197.949C155.921 197.445 155.646 196.444 155.116 195.616C154.539 194.69 154.304 193.476 154.488 192.274C154.66 191.246 154.706 190.306 154.551 190.188C154.319 190.012 154.754 187.599 155.107 187.136C155.195 187.02 155.435 187.507 155.537 188.255Z" fill="black"/>
</svg>
