<svg width="282" height="277" viewBox="0 0 282 277" fill="currentColor" xmlns="http://www.w3.org/2000/svg">
<path d="M30.4692 113.503C30.1155 124.522 30.5213 135.199 29.1169 145.634C28.2532 152.05 29.3386 157.839 29.8035 163.984C30.3232 170.855 31.3478 178.044 29.7232 185.031C28.4794 190.38 30.8747 195.475 30.6512 200.839C30.3408 208.291 30.0912 215.795 30.9202 223.291C31.2541 226.309 29.2043 229.137 29.2273 232.441C29.2701 238.592 31.1533 241.453 37.1134 242.197C43.038 242.937 49.2484 242.704 54.8382 244.467C61.3828 246.531 68.008 246.932 74.6367 247.687C78.0561 248.076 81.5903 247.323 85.0532 247.49C96.3465 248.034 107.392 246.337 118.503 244.626C124.534 243.696 130.793 244.06 136.945 244.133C147.551 244.26 158.108 243.321 168.689 242.999C177.451 242.732 186.235 242.876 195 243.146C202.72 243.384 209.895 239.992 217.623 240.229C221.772 240.356 225.881 240.11 230.041 240.858C237.141 242.135 240.211 238.506 240.641 231.408C241.272 220.994 242.827 210.621 244.32 200.278C246.037 188.387 248.484 176.592 249.917 164.672C251.003 155.635 263.714 146.367 273.527 148.55C276.18 149.141 278.055 150.688 278.063 153.136C278.101 163.826 277.723 174.31 275.065 184.985C273.018 193.203 272.432 202.137 271.512 210.741C270.671 218.606 270.351 226.659 269.837 234.624C269.668 237.245 269.071 239.81 269.42 242.501C270.149 248.113 267.27 253.489 268.675 259.343C269.423 262.459 266.605 265.081 263.103 264.99C258.97 264.882 255.162 267.084 250.911 266.076C238.806 263.208 227.401 267.707 215.815 269.863C205.135 271.85 194.33 270.902 183.619 271.882C181.987 272.031 180.329 271.714 178.712 272.344C173.982 274.185 169.159 272.681 164.616 271.908C159.461 271.031 154.828 272.878 149.922 273.044C144.467 273.228 138.929 272.544 133.661 273.076C125.354 273.914 117.039 273.078 108.737 274.322C101.391 275.423 93.8342 275.295 86.3692 275.321C84.2065 275.328 82.0969 274.91 80.058 275.879C77.8602 276.923 75.8192 276.712 74.0635 275.025C72.2941 273.324 70.1941 272.543 67.8034 272.256C58.0807 271.088 48.3501 270.002 38.7476 267.97C34.282 267.025 29.8838 268.785 25.4285 269.062C18.4515 269.496 13.0422 265.367 6.69008 264.171C3.92296 263.65 3.33014 259.959 3.19941 257.442C2.85135 250.741 0.001248 244.507 0.938115 237.453C2.40991 226.37 0.895192 214.986 3.86303 203.973C4.49634 201.623 5.07746 199.222 2.57238 197.143C1.18798 195.993 1.13475 193.762 1.29235 191.944C2.15305 182.011 2.05866 172.13 0.214856 162.298C-0.616115 157.866 1.22578 153.62 1.30433 149.158C1.41408 142.924 1.97374 136.847 0.89742 130.557C0.383885 127.555 2.61696 124.271 2.11792 120.672C1.50914 116.281 -0.25426 111.911 2.46988 107.212C3.6189 105.231 -0.593677 102.372 0.52979 99.3703C3.15238 92.3634 -0.482485 85.3732 0.749593 78.2216C1.33561 74.82 1.67323 71.1659 2.10784 67.6105C3.27509 58.0617 2.81219 48.4378 2.78453 38.8354C2.76151 30.8481 0.283177 22.0116 8.21248 16.149C12.8627 12.7108 17.5579 8.83199 23.8052 8.48566C26.3881 8.34248 28.6191 7.19196 30.9332 6.31057C33.3072 5.40637 35.4919 4.42845 38.0403 5.97166C39.3843 6.7855 40.9764 6.42248 42.2387 5.36253C43.3558 4.42448 44.8446 3.88885 45.9554 4.54941C50.5115 7.25869 54.7305 5.19676 58.8922 3.77267C66.4892 1.17305 74.1307 2.04813 81.8426 2.77686C85.8714 3.15756 89.4762 0.855225 93.8984 0C94.8523 9.33084 103.391 10.1265 109.368 12.9345C118.423 17.1884 119.861 25.0099 121.868 33.002C122.344 34.8955 121.042 35.3836 119.545 36.1352C108.327 41.7675 97.216 39.8895 87.0565 34.286C78.9062 29.7906 70.6532 29.8598 62.095 30.2043C59.4446 30.311 56.8453 31.0152 54.2962 29.1321C53.7481 31.3285 52.7507 33.0241 50.6865 31.2955C47.956 29.0091 45.8508 29.9763 43.6567 31.9261C42.6376 32.8317 41.4884 33.5673 40.0486 33.2658C34.6913 32.1443 33.6637 35.5688 33.5797 39.6222C33.5078 43.0904 34.1364 46.5819 33.9579 50.0374C32.8725 71.0486 31.6448 92.0524 30.4692 113.503Z" fill="black"/>
<path d="M123.884 130.107C129.567 126.14 134.916 122.292 140.248 118.499C146.002 114.406 151.162 109.401 158.212 106.734C164.573 104.328 169.866 99.2103 175.833 95.6267C182.564 91.5843 189.417 87.79 195.848 83.2208C198.862 81.0789 201.543 78.667 204.263 76.248C208.401 72.5684 214.074 71.0622 217.656 66.477C218.529 65.3592 219.832 64.6944 219.964 63.0323C220.066 61.7503 220.843 60.6859 222.154 60.6938C227.396 60.7254 229.934 57.1561 232.245 53.2995C234.455 49.6097 239.246 49.5827 241.822 46.3915C242.697 45.3073 244.625 45.0385 244.192 42.326C239.562 41.5167 234.746 41.8392 229.871 42.1384C224.225 42.485 218.959 44.9609 213.194 44.6453C204.612 44.1754 196.007 43.5192 187.447 45.0794C186.808 45.1958 185.791 44.7721 185.51 45.0917C178.156 53.4727 169.719 45.1611 161.857 46.5373C158.563 47.1139 155.871 44.6506 156.64 40.4713C157.155 37.6757 156.366 34.9044 156.811 32.046C158.082 23.8839 163.089 19.8692 171.332 21.1912C175.746 21.8991 179.902 20.4044 184.19 20.1031C195.13 19.3342 206.132 19.2016 216.998 17.4988C218.874 17.2049 220.613 17.904 222.417 18.1086C227.013 18.6295 231.441 18.4732 234.489 14.1169C235.886 12.1205 237.909 11.6454 239.577 13.434C241.818 15.8361 244.187 15.3382 246.904 14.8394C250.157 14.2423 253.488 13.831 256.767 15.0096C258.212 15.529 259.839 15.7402 261.139 14.8782C268.456 10.0286 272.213 17.5742 277.184 19.8946C280.669 21.5211 280.926 26.2882 281.122 30.4658C281.732 43.5121 277.52 56.0116 277.171 68.9786C277.053 73.3433 275.852 78.1134 274.384 82.5173C273.177 86.1395 271.879 89.7203 275.095 93.5966C270.804 94.2352 270.097 96.2755 270.911 99.8915C272.05 104.952 269.528 109.746 268.117 114.411C266.212 120.709 265.755 127.81 259.504 132.316C254.822 135.692 249.925 138.439 244.308 139.279C239.327 140.024 233.169 132.079 235.002 127.303C237.576 120.596 239.972 113.747 240.032 106.651C240.111 97.2829 244.612 89.2112 246.307 80.3709C246.612 78.7768 247.478 77.1854 245.573 75.3289C239.09 81.2537 231.275 85.3947 224.618 91.2288C219.664 95.57 214.451 99.9283 208.645 102.892C203.473 105.532 200.608 110.222 196.28 113.472C194.963 114.462 193.787 116.066 191.967 115.6C187.415 114.433 184.233 117.27 181.117 119.482C172.958 125.272 165.063 131.435 157.124 137.531C155.642 138.668 154.315 139.752 152.29 139.755C151.373 139.756 149.9 140.173 149.626 140.81C147.232 146.366 141.405 148.421 137.776 152.697C134.978 155.994 130.708 158.012 129.302 162.557C129.18 162.95 128.015 163.414 127.55 163.246C122.258 161.347 117.953 165.634 112.826 165.457C108.506 165.308 104.271 165.171 101.759 161.483C98.4845 156.678 99.075 150.129 102.901 146.483C109.252 140.43 116.226 135.107 123.884 130.107Z" fill="black"/>
</svg>
