<svg width="1412" height="331" viewBox="0 0 1412 331" fill="none" xmlns="http://www.w3.org/2000/svg">
<path fill-rule="evenodd" clip-rule="evenodd" d="M0 151.481V302.962L2.25 303.476C6.291 304.4 69.277 306.027 75.662 305.373C81.485 304.777 81.849 304.86 81.373 306.683C80.886 308.542 82 308.706 106.182 310.328C120.107 311.262 140.711 312.508 151.969 313.096C163.228 313.684 173.204 314.574 174.139 315.074C175.192 315.638 175.965 315.614 176.169 315.011C176.48 314.096 179.979 314.398 197.75 316.874C200.898 317.313 203 317.227 203 316.66C203 316.086 206.831 315.97 212.75 316.365C262.309 319.675 292.189 320.404 371.349 320.233C442.243 320.08 453.396 320.253 454.671 321.528C456.554 323.411 460 323.437 460 321.567C460 320.779 460.788 319.889 461.75 319.588C465.395 318.449 512.469 318.601 517 319.766C521.326 320.879 522.944 320.682 530 318.187C532.399 317.339 536.414 317.253 537.5 318.027C538.05 318.419 540.075 319.007 542 319.335C548.433 320.431 656.388 322.231 709.5 322.128C715.55 322.117 725 322.421 730.5 322.804C736 323.187 742.75 323.216 745.5 322.868C748.25 322.52 757.475 322.619 766 323.087C774.525 323.554 787.8 323.955 795.5 323.977C811.158 324.022 820.217 324.84 819.416 326.136C819.122 326.611 819.584 327 820.441 327C821.298 327 822 326.521 822 325.935C822 325.246 825.959 324.873 833.25 324.876C849.225 324.882 886.281 323.346 891.826 322.446C894.397 322.03 921.475 321.604 952 321.502C982.525 321.399 1011.21 320.954 1015.75 320.514C1021.29 319.975 1024 320.053 1024 320.749C1024 322.655 1020.6 323.206 1006.5 323.586C998.8 323.794 990.25 324.421 987.5 324.981C984.75 325.54 981.15 325.981 979.5 325.96C972.231 325.869 932.259 329.131 930 330C928.368 330.627 943.817 330.814 974.5 330.538C1017.63 330.151 1044.35 328.999 1082 325.908C1089.43 325.298 1109.9 324.372 1127.5 323.849C1145.1 323.327 1161.08 322.845 1163 322.778C1164.92 322.711 1177.52 323.25 1190.99 323.976C1213.3 325.178 1217.11 325.135 1233.66 323.498C1250.19 321.862 1251.92 321.51 1252.85 319.6C1253.76 317.715 1253.87 317.69 1253.93 319.357C1253.98 320.628 1254.5 321.022 1255.58 320.607C1256.45 320.273 1258.14 319.968 1259.33 319.93C1261.42 319.862 1261.42 319.83 1259.5 319.08C1258.3 318.612 1260.95 318.3 1266.1 318.3C1270.83 318.3 1275.29 317.941 1276 317.502C1276.71 317.063 1279.81 316.576 1282.89 316.421C1285.98 316.266 1293.68 315.624 1300 314.996C1311.66 313.837 1332.61 312.255 1339 312.051C1341.99 311.955 1342.23 311.784 1340.66 310.867C1339.64 310.278 1338.17 308.251 1337.38 306.362C1335.39 301.596 1328.73 299.098 1327.77 302.758C1327.18 305.031 1320.75 308.5 1318.63 307.688C1316.37 306.819 1316.46 302.034 1318.75 301.889C1319.71 301.827 1321.62 301.715 1323 301.639C1324.38 301.562 1325.64 301.05 1325.8 300.5C1325.97 299.95 1327.21 298.923 1328.55 298.218C1329.9 297.513 1331 296.468 1331 295.897C1331 295.325 1331.71 295.564 1332.57 296.429C1334.88 298.736 1336 298.355 1336.03 295.25C1336.06 292.583 1336.11 292.56 1337.57 294.495C1338.87 296.207 1339.21 296.278 1340.02 294.995C1340.54 294.173 1340.98 293.962 1340.98 294.527C1340.99 295.093 1340.3 296.555 1339.44 297.777C1338 299.832 1338.02 300 1339.72 300C1342.28 300 1346 297.205 1346 295.277C1346 294.391 1346.32 293.991 1346.72 294.387C1347.12 294.783 1347.45 296.095 1347.47 297.303C1347.49 299.14 1348.07 299.499 1351 299.5C1353.63 299.5 1354.5 299.076 1354.51 297.788C1354.52 295.808 1356.56 293.504 1358.3 293.491C1358.96 293.487 1360.57 294.747 1361.88 296.292C1363.88 298.649 1364.91 299.054 1368.28 298.801C1370.72 298.618 1372.71 297.833 1373.36 296.798C1374.72 294.629 1373.51 293.335 1371.6 294.92C1370.46 295.865 1369.21 295.809 1365.82 294.659L1361.5 293.193L1365.21 292.492C1369.29 291.722 1391.59 292.468 1396.75 293.547C1398.93 294.004 1400 293.848 1400 293.072C1400 291.124 1396.66 288.31 1393.5 287.594C1391.85 287.221 1388.6 286.501 1386.29 285.995C1383.97 285.488 1381.2 284.198 1380.13 283.126C1377.59 280.586 1367.82 279.523 1354.54 280.342C1328.41 281.953 1326.45 282.006 1329.54 281.02C1341.14 277.323 1358.09 275.999 1378.5 277.197C1384.55 277.552 1388.04 277.625 1386.25 277.358C1384.46 277.091 1383 276.399 1383 275.82C1383 275.127 1386.41 274.904 1392.99 275.169C1399.3 275.422 1403.14 275.189 1403.41 274.535C1403.71 273.837 1404.12 273.854 1404.67 274.586C1405.69 275.925 1412 278.166 1412 277.189C1412 275.909 1408.59 274.329 1403 273.024C1399.97 272.317 1397.05 271.429 1396.5 271.05C1395.95 270.672 1394.18 270.279 1392.57 270.178C1388.92 269.947 1383.86 266.88 1385.97 266.177C1386.76 265.914 1387.56 266.194 1387.77 266.798C1388.03 267.595 1388.79 267.596 1390.54 266.802C1391.86 266.2 1392.68 265.285 1392.36 264.767C1392.04 264.25 1392.84 263.916 1394.14 264.024C1395.44 264.133 1397.62 264.156 1399 264.075L1401.5 263.929L1399 262.423C1396.51 260.92 1396.51 260.917 1400.25 261.257C1404.43 261.638 1405.34 260.375 1401.57 259.429C1398.12 258.562 1397.5 256.164 1400.53 255.402C1401.89 255.062 1403.67 255.044 1404.5 255.361C1405.32 255.678 1406 255.477 1406 254.914C1406 253.54 1395.76 249.081 1390.23 248.048C1387.79 247.592 1385.07 246.495 1384.18 245.61C1382.7 244.13 1382.75 244 1384.79 244C1386 244 1387 243.55 1387 243C1387 242.45 1387.44 242 1387.97 242C1388.5 242 1388.68 242.675 1388.36 243.5C1387.94 244.608 1388.5 245 1390.52 245C1392.74 245 1393.03 244.74 1392.09 243.608C1390.54 241.742 1387.06 240.507 1377.5 238.43C1373.1 237.475 1369.1 236.343 1368.62 235.916C1367.28 234.737 1374.57 233.675 1379.06 234.394C1382.76 234.986 1382.96 234.901 1381.86 233.154C1381.22 232.122 1379.52 230.813 1378.1 230.245C1375.75 229.313 1375.98 229.202 1380.41 229.106L1385.32 229L1381.7 226.25C1375.87 221.827 1376.84 221.318 1388 222.951C1396.91 224.255 1396.88 222.737 1387.92 218.705C1383.43 216.685 1379.36 215.278 1378.88 215.576C1378.39 215.874 1378 215.694 1378 215.176C1378 214.657 1376.99 213.892 1375.75 213.475C1373.85 212.834 1374.15 212.623 1377.72 212.109C1385.92 210.927 1379.28 208.038 1362.32 205.416L1353.5 204.051L1361.5 204.544C1371.01 205.131 1382.42 206.491 1386.25 207.495C1388.99 208.213 1390.44 206.356 1387.75 205.573C1387.06 205.373 1383.8 204.463 1380.5 203.55C1377.2 202.638 1372.7 201.078 1370.5 200.083C1367.63 198.786 1366.05 198.56 1364.91 199.285C1363.96 199.881 1362.12 199.964 1360.41 199.487C1358.27 198.895 1357.97 198.569 1359.26 198.264C1360.23 198.036 1360.77 197.433 1360.45 196.924C1360.12 196.379 1364.5 196 1371.14 196C1377.33 196 1381.97 195.624 1381.45 195.164C1380.29 194.139 1368.39 191.348 1361.25 190.423C1351.43 189.15 1355.73 187.902 1367.5 188.606C1373.82 188.984 1379 189.02 1379 188.685C1379 187.435 1365.75 183.906 1355.51 182.43C1350.87 181.76 1349.6 181.007 1353.08 180.985C1354.41 180.976 1356.18 180.533 1357 180C1358.21 179.218 1358.06 179.028 1356.22 179.015C1354.96 179.007 1353.68 178.325 1353.36 177.5C1352.89 176.263 1350.04 175.976 1337.14 175.864C1323.99 175.75 1322.61 175.607 1328.5 174.963C1332.35 174.542 1336.69 173.732 1338.15 173.163C1339.6 172.593 1340.97 172.304 1341.19 172.519C1341.4 172.734 1343.36 172.275 1345.54 171.499C1347.72 170.723 1351.21 170.068 1353.31 170.044C1355.64 170.017 1356.87 169.604 1356.48 168.977C1356.14 168.414 1353.2 168.058 1349.97 168.185C1346.73 168.313 1343.74 168.076 1343.32 167.658C1342.91 167.241 1348.77 166.969 1356.34 167.055C1363.92 167.141 1370.33 167.003 1370.58 166.748C1371.23 166.098 1360.36 164 1356.33 164C1354.5 164 1353 163.55 1353 163C1353 162.45 1354.09 162 1355.42 162C1356.75 162 1358.02 161.437 1358.25 160.75C1358.59 159.765 1359.01 159.78 1360.28 160.821C1361.41 161.757 1363.26 161.933 1366.66 161.424C1372.6 160.533 1370.79 159.683 1359.13 157.899C1348.78 156.314 1349.49 154.51 1360.14 155.332C1367.53 155.901 1370.57 154.951 1366 153.5C1364.9 153.151 1364 152.5 1364 152.054C1364 150.457 1358.36 149.053 1350 148.568C1337.16 147.823 1337.06 147.798 1343.5 146.921C1346.8 146.471 1352.2 146.343 1355.5 146.637C1359.92 147.03 1362.02 146.778 1363.48 145.681C1365.35 144.276 1365.19 144.151 1360.76 143.486C1357.94 143.064 1355.02 141.823 1353.48 140.391C1352.06 139.076 1350.13 137.964 1349.2 137.921C1348.16 137.873 1347.98 137.647 1348.75 137.338C1351.24 136.334 1349.92 135 1346.44 135C1344.48 135 1343.13 134.599 1343.43 134.11C1343.74 133.62 1342.35 132.914 1340.36 132.54C1336.72 131.857 1336.78 130.674 1340.5 129.636C1342.35 129.119 1329.72 129.472 1327.5 129.999C1324.72 130.66 1314 129.867 1314 129C1314 128.45 1315.55 128 1317.45 128C1319.35 128 1323.23 127.501 1326.07 126.891C1330.26 125.993 1331.41 126.041 1332.11 127.141C1332.79 128.219 1332.97 128.23 1332.98 127.193C1333 126.192 1335.35 125.93 1343.04 126.072C1348.56 126.175 1353.39 125.935 1353.79 125.54C1354.18 125.144 1353.21 123.786 1351.62 122.522L1348.75 120.223L1353.87 119.517C1356.69 119.13 1359 118.405 1359 117.906C1359 116.853 1356.83 116.763 1332 116.79C1319.53 116.803 1315.29 116.563 1319 116.053C1325.73 115.127 1349.34 112.662 1356.45 112.142C1359.66 111.908 1356.93 110.298 1351.5 109.228C1348.75 108.685 1345.08 108.365 1343.34 108.515C1327.37 109.896 1315 110.129 1315 109.049C1315 108.192 1312.48 107.948 1306 108.179C1297.06 108.498 1294.52 107.838 1299.7 106.54C1301.81 106.009 1302.08 105.665 1300.95 104.947C1299.82 104.233 1300 104.027 1301.75 104.015C1302.99 104.007 1304 103.55 1304 103C1304 102.45 1303.32 102 1302.5 102C1300.56 102 1300.56 100.108 1302.49 99.364C1304.54 98.579 1303.37 97 1300.74 97C1299.2 97 1298.9 96.695 1299.68 95.916C1300.32 95.277 1305.72 94.763 1312.82 94.666C1323.55 94.518 1324.6 94.352 1322.33 93.163C1320.85 92.382 1317.44 91.938 1314.14 92.095C1302.86 92.635 1288.39 91.912 1290.5 90.914C1291.88 90.26 1290.5 90.123 1286 90.47C1282.42 90.746 1278.9 90.588 1278.16 90.12C1276.01 88.759 1280.87 88.015 1299 86.927C1308.07 86.383 1320.45 85.337 1326.5 84.603C1336.63 83.376 1337.02 83.251 1331.5 83.032C1325.78 82.806 1325.66 82.752 1329 81.859C1330.92 81.344 1335.28 80.909 1338.69 80.892C1342.84 80.872 1345.27 80.386 1346.08 79.408C1346.74 78.609 1348.08 78.208 1349.06 78.518C1350.03 78.828 1351.12 78.613 1351.47 78.041C1351.83 77.468 1351.98 76.955 1351.81 76.9C1351.04 76.652 1315.67 74.837 1308.5 74.678C1304.1 74.58 1299.65 74.725 1298.6 75C1297.56 75.275 1296.51 74.938 1296.27 74.25C1295.94 73.296 1298.87 72.972 1308.67 72.883C1324.85 72.736 1334.55 71.814 1334.31 70.446C1334.1 69.219 1341.02 68.807 1342.5 69.959C1343.85 71.015 1349.43 68.842 1349.8 67.115C1350.04 65.955 1346.29 65.805 1326.78 66.193C1303.41 66.657 1300.56 66.525 1301.49 65.018C1301.77 64.571 1300.75 64.25 1299.24 64.303C1297.73 64.356 1293.8 64.241 1290.5 64.047L1284.5 63.695L1291 62.964C1294.58 62.563 1301.59 62.181 1306.6 62.117C1321.34 61.928 1331 60.871 1331 59.447C1331 57.765 1296.47 58.497 1275.17 60.631C1266.73 61.476 1259.57 61.905 1259.25 61.584C1258.93 61.263 1259.6 61 1260.75 61C1261.9 61 1263 60.502 1263.2 59.893C1263.42 59.227 1268.95 58.377 1277.04 57.761C1284.44 57.198 1290.71 56.547 1290.97 56.314C1291.23 56.082 1290.82 55.507 1290.06 55.038C1288.29 53.94 1295.1 53.239 1314 52.575C1334.55 51.853 1339.34 50.588 1331.43 47.978C1327.7 46.747 1325.49 47.436 1328.03 49.039C1329.14 49.742 1328.81 49.973 1326.69 49.985C1325.07 49.994 1324.14 49.577 1324.5 49C1324.9 48.349 1318.21 47.931 1305.31 47.801C1294.41 47.692 1288.88 47.489 1293 47.35C1306.81 46.885 1338.49 44.746 1339.4 44.217C1339.9 43.93 1339.51 43.111 1338.53 42.397C1336.89 41.198 1336.95 41.05 1339.38 40.441C1340.82 40.079 1342 39.408 1342 38.949C1342 38.49 1343.91 37.968 1346.25 37.788L1350.5 37.46L1344.5 35.567C1339.01 33.833 1334.91 33.673 1295.8 33.667C1272.31 33.663 1253.31 33.312 1253.57 32.888C1253.83 32.463 1256.12 31.804 1258.66 31.424C1261.19 31.044 1264.11 29.893 1265.13 28.866C1266.16 27.84 1267.87 27 1268.94 27C1270.01 27 1271.16 26.555 1271.49 26.012C1272.52 24.344 1247.59 25.592 1234 27.887C1227.12 29.049 1220.38 29.964 1219 29.921C1215.62 29.814 1254.58 23.098 1259 23.026C1263.01 22.961 1266.94 21.115 1263.5 20.913C1262.39 20.848 1263.06 20.417 1265 19.948C1267.88 19.25 1283.17 18.396 1320.5 16.847C1322.7 16.756 1317.37 16.367 1308.65 15.982C1299.93 15.597 1292.5 14.834 1292.15 14.285C1291.79 13.737 1289.81 12.978 1287.75 12.599C1285.69 12.22 1284 11.464 1284 10.92C1284 10.277 1283.33 10.288 1282.09 10.95C1279.21 12.493 1263 13.387 1263 12.004C1263 11.387 1262.53 11.175 1261.95 11.533C1258.58 13.611 1245.05 12.352 1246.44 10.09C1247.54 8.32 1271.7 4.971 1283.25 4.99C1290.53 5.003 1290.74 3.361 1283.57 2.466C1275.73 1.486 1253.51 3.548 1224.5 7.949C1202.45 11.295 1189.83 12.72 1171 13.992C1161.38 14.642 1150.57 15.534 1146.98 15.974C1143.35 16.418 1138.02 16.364 1134.98 15.852C1131.97 15.345 1126.8 15.186 1123.5 15.498C1102.03 17.532 1051.76 17.936 1039.74 16.172C1033.27 15.224 1029.68 15.118 1027.75 15.82C1025.91 16.494 1024.8 16.491 1024.38 15.811C1024.01 15.211 1021.68 15.042 1018.63 15.396C1015.81 15.724 1008.32 16.266 1002 16.6C995.675 16.935 990.05 17.492 989.5 17.839C988.95 18.186 985.125 18.561 981 18.674C976.875 18.786 969 19.313 963.5 19.846C958 20.378 948.085 20.999 941.466 21.226C933.271 21.507 928.432 22.137 926.298 23.201C924.269 24.214 922.822 24.422 922.193 23.793C921.218 22.818 892.442 22.609 890.894 23.565C890.45 23.84 890.364 24.784 890.701 25.664C891.333 27.311 900.051 27.285 937.5 25.525C957.795 24.572 943.618 26.803 918.989 28.439C884.706 30.715 698 30.767 698 28.5C698 27.231 695.605 27 682.441 27C673.537 27 667.119 27.383 667.435 27.895C667.74 28.388 667.377 29.025 666.63 29.312C665.883 29.599 650.473 29.389 632.386 28.845C604.958 28.021 599.214 27.598 597.776 26.297C596.311 24.972 595.586 24.929 592.971 26.012C590.764 26.926 587.565 27.076 581.695 26.542C577.188 26.131 569.114 25.796 563.754 25.795C557.203 25.795 554.221 25.451 554.657 24.745C555.099 24.03 553.903 23.942 550.903 24.469C548.481 24.894 545.15 25.197 543.5 25.142C522.676 24.448 512.87 23.975 498.5 22.971C480.102 21.686 476.53 21.574 407 20.093C319.751 18.234 278.748 16.52 274.836 14.568C273.276 13.79 272 13.51 272 13.945C272 14.806 264.057 14.471 248.711 12.962C243.327 12.433 235.509 12 231.338 12C227.167 12 216.723 11.342 208.127 10.538C199.532 9.733 183.05 8.355 171.5 7.474C159.95 6.593 144.425 4.976 137 3.881C121.77 1.633 78.427 0.085 29.25 0.032L0 0V151.481ZM1276.5 10C1276.84 10.55 1277.77 11 1278.56 11C1279.35 11 1280 10.55 1280 10C1280 9.45 1279.07 9 1277.94 9C1276.81 9 1276.16 9.45 1276.5 10ZM849.417 24.317C843.127 24.978 841.333 25.513 841.333 26.725C841.333 28.078 842.717 28.199 851.822 27.642C857.591 27.289 864.341 27 866.822 27C871.59 27 872.128 26.406 867.982 25.719C866.617 25.493 864.825 25.05 864 24.735C861 23.589 857.34 23.485 849.417 24.317ZM875.756 24.664C876.447 24.943 876.758 25.582 876.447 26.085C876.126 26.605 878.394 26.931 881.691 26.84C885.213 26.743 886.22 26.521 884.25 26.277C882.462 26.055 881 25.452 881 24.937C881 24.421 879.538 24.036 877.75 24.079C875.962 24.122 875.065 24.386 875.756 24.664ZM637.813 26.683C638.534 26.972 639.397 26.936 639.729 26.604C640.061 26.272 639.471 26.036 638.417 26.079C637.252 26.127 637.015 26.364 637.813 26.683ZM651 27C651 27.55 651.927 28 653.059 28C654.191 28 654.84 27.55 654.5 27C654.16 26.45 653.234 26 652.441 26C651.648 26 651 26.45 651 27ZM834 27C834 27.55 834.675 28 835.5 28C836.325 28 837 27.55 837 27C837 26.45 836.325 26 835.5 26C834.675 26 834 26.45 834 27ZM1336 49.393C1336 50.888 1338.13 52.021 1340.83 51.967C1342.17 51.94 1342.03 51.538 1340.14 49.967C1337.36 47.652 1336 47.463 1336 49.393ZM1286.25 54.706C1285.01 54.944 1282.99 54.944 1281.75 54.706C1280.51 54.467 1281.53 54.272 1284 54.272C1286.47 54.272 1287.49 54.467 1286.25 54.706ZM1295 55.883C1295 57.005 1298.55 57.969 1302.75 57.986C1304.98 57.996 1306 57.528 1306 56.5C1306 55.348 1304.72 55 1300.5 55C1297.47 55 1295 55.398 1295 55.883ZM1290.73 74.604C1290.4 74.936 1289.53 74.972 1288.81 74.683C1288.01 74.364 1288.25 74.127 1289.42 74.079C1290.47 74.036 1291.06 74.272 1290.73 74.604ZM1272.73 75.604C1272.4 75.936 1271.53 75.972 1270.81 75.683C1270.01 75.364 1270.25 75.127 1271.42 75.079C1272.47 75.036 1273.06 75.272 1272.73 75.604ZM1324.5 82C1324.16 82.55 1322.22 82.993 1320.19 82.985C1317.44 82.973 1316.88 82.723 1318 82C1320 80.71 1325.3 80.71 1324.5 82ZM1294.75 94.689C1293.79 94.941 1292.21 94.941 1291.25 94.689C1290.29 94.438 1291.08 94.232 1293 94.232C1294.92 94.232 1295.71 94.438 1294.75 94.689ZM1287.27 95.656C1286.59 95.93 1285.24 95.947 1284.27 95.693C1283.3 95.439 1283.85 95.215 1285.5 95.195C1287.15 95.175 1287.95 95.382 1287.27 95.656ZM1305.27 105.693C1306.24 105.947 1307.59 105.93 1308.27 105.656C1308.95 105.382 1308.15 105.175 1306.5 105.195C1304.85 105.215 1304.3 105.439 1305.27 105.693ZM1343.57 119.89C1343.27 120.379 1341.33 121.094 1339.26 121.478C1333.98 122.459 1317.38 123.286 1318.14 122.529C1318.48 122.186 1323.65 121.313 1329.63 120.59C1343.88 118.867 1344.21 118.85 1343.57 119.89ZM1298.75 128.689C1297.79 128.941 1296.21 128.941 1295.25 128.689C1294.29 128.438 1295.08 128.232 1297 128.232C1298.92 128.232 1299.71 128.438 1298.75 128.689ZM1281 130C1280.18 130.533 1277.92 130.931 1276 130.885C1272.79 130.808 1272.71 130.734 1275 130C1276.38 129.56 1278.62 129.161 1280 129.115C1281.97 129.049 1282.18 129.238 1281 130ZM1332.73 148.604C1332.4 148.936 1331.53 148.972 1330.81 148.683C1330.01 148.364 1330.25 148.127 1331.42 148.079C1332.47 148.036 1333.06 148.272 1332.73 148.604ZM1327.73 168.604C1327.4 168.936 1326.53 168.972 1325.81 168.683C1325.01 168.364 1325.25 168.127 1326.42 168.079C1327.47 168.036 1328.06 168.272 1327.73 168.604ZM1334.25 168.662C1333.56 168.94 1332.44 168.94 1331.75 168.662C1331.06 168.385 1331.62 168.158 1333 168.158C1334.38 168.158 1334.94 168.385 1334.25 168.662ZM1303 281.883C1301.2 282.871 1284.86 285.189 1284.21 284.548C1283.59 283.924 1287.33 283.072 1295 282.088C1304.37 280.886 1304.84 280.874 1303 281.883ZM1260.5 286.925C1259.4 287.364 1256.25 287.988 1253.5 288.312L1248.5 288.902L1253 287.549C1258.12 286.011 1264.02 285.519 1260.5 286.925ZM1319.25 295.662C1318.56 295.94 1317.44 295.94 1316.75 295.662C1316.06 295.385 1316.62 295.158 1318 295.158C1319.38 295.158 1319.94 295.385 1319.25 295.662ZM1356.51 295.989C1356.16 296.555 1356.56 296.723 1357.45 296.382C1359.18 295.717 1359.5 295 1358.06 295C1357.54 295 1356.84 295.445 1356.51 295.989ZM1303.29 298C1303 299.1 1302.59 300 1302.38 300C1302.17 300 1302 299.1 1302 298C1302 296.9 1302.41 296 1302.91 296C1303.41 296 1303.58 296.9 1303.29 298ZM1290.36 298.5C1289.73 300.141 1286 300.595 1286 299.031C1286 298.499 1286.63 298.304 1287.4 298.6C1288.17 298.895 1289.1 298.656 1289.46 298.068C1290.43 296.489 1291.03 296.772 1290.36 298.5ZM1292.31 301.872C1294.56 302.227 1291.4 303.967 1287.43 304.563C1281.97 305.381 1280.85 304.665 1284.56 302.722C1286.93 301.48 1288.64 301.293 1292.31 301.872ZM1348.15 306.209C1345.94 308.524 1344.36 310.767 1344.62 311.192C1345.15 312.058 1360.22 311.041 1361 310.086C1361.52 309.446 1365.44 309.102 1373.04 309.027C1376.82 308.989 1377.6 308.653 1377.72 307.011C1377.81 305.926 1377.45 304.779 1376.94 304.461C1376.42 304.142 1376 304.414 1376 305.063C1376 305.959 1375.66 305.966 1374.61 305.091C1373.85 304.456 1371.82 303.838 1370.11 303.718C1368.4 303.598 1367 303.163 1367 302.75C1367 302.337 1366.32 302 1365.5 302C1364.68 302 1364 302.403 1364 302.895C1364 303.401 1362.48 303.447 1360.5 303C1357.6 302.347 1357 302.494 1356.97 303.855C1356.94 305.331 1356.8 305.32 1355.61 303.75C1353.66 301.187 1352.59 301.541 1348.15 306.209ZM1379 305.878C1379 306.36 1379.68 307.315 1380.5 308C1381.75 309.04 1382 308.896 1382 307.122C1382 305.902 1381.36 305 1380.5 305C1379.68 305 1379 305.395 1379 305.878ZM116.958 307.47C115.996 308.433 114.627 308.705 112.994 308.259L110.5 307.577L113.5 306.907C118.21 305.855 118.523 305.906 116.958 307.47ZM1384 306.969C1384 307.501 1384.68 307.678 1385.5 307.362C1386.32 307.045 1387 306.609 1387 306.393C1387 306.177 1386.32 306 1385.5 306C1384.68 306 1384 306.436 1384 306.969ZM146.441 308.532C148.216 309.874 147.857 310 142.25 310C135.67 310 132.832 308.393 138.231 307.725C144.06 307.003 144.474 307.044 146.441 308.532ZM1236.38 308.552C1236.72 309.442 1236.56 309.843 1235.99 309.493C1235.45 309.157 1235 308.459 1235 307.941C1235 306.503 1235.72 306.82 1236.38 308.552ZM1225 309C1225 309.55 1224.3 310 1223.44 310C1222.58 310 1222.16 309.55 1222.5 309C1222.84 308.45 1223.54 308 1224.06 308C1224.58 308 1225 308.45 1225 309ZM1220.5 310C1220.16 310.55 1219.43 311 1218.88 311C1218.33 311 1218.16 310.55 1218.5 310C1218.84 309.45 1219.57 309 1220.12 309C1220.67 309 1220.84 309.45 1220.5 310ZM185 311C186.984 312.282 186.45 312.325 172.071 312.034C155.334 311.696 153.683 310.137 170 310.079C177.425 310.052 184.175 310.467 185 311ZM1206.5 311C1206.16 311.55 1205.46 312 1204.94 312C1204.42 312 1204 311.55 1204 311C1204 310.45 1204.7 310 1205.56 310C1206.42 310 1206.84 310.45 1206.5 311ZM219.36 312.636C221.912 312.986 224 313.636 224 314.081C224 315.117 195.997 314.013 194 312.898C192.223 311.906 212.508 311.697 219.36 312.636ZM1196.67 315.031V318.062L1182.78 317.939C1170.42 317.831 1168.92 317.634 1169.2 316.159C1169.43 314.941 1170.8 314.418 1174.34 314.192C1176.99 314.023 1179.69 314.328 1180.34 314.871C1181 315.413 1184.22 315.828 1187.52 315.792C1191.86 315.745 1192.82 315.518 1191 314.963L1188.5 314.199L1191 314.084C1192.38 314.021 1194.18 313.533 1195 313C1195.82 312.467 1196.54 312.024 1196.58 312.015C1196.63 312.007 1196.67 313.364 1196.67 315.031ZM371.269 313.656C370.592 313.93 369.242 313.947 368.269 313.693C367.296 313.439 367.85 313.215 369.5 313.195C371.15 313.175 371.946 313.382 371.269 313.656ZM259 314.845C261.542 315.238 262.847 315.801 262 316.137C260.132 316.878 236.215 315.548 235.32 314.654C234.463 313.797 253.205 313.948 259 314.845ZM365.727 315.127C366.564 315.964 371.153 315.915 383.511 314.939C396.62 313.904 400.583 313.883 402.116 314.84C403.622 315.781 407.966 315.817 421.282 314.998C432.502 314.309 440.242 314.275 443.5 314.901C446.25 315.429 452.821 315.603 458.103 315.288C464.317 314.918 467.935 315.085 468.353 315.762C468.769 316.435 467.216 316.822 463.997 316.847C461.245 316.868 458.639 317.105 458.205 317.373C457.441 317.845 443.239 318.034 401.5 318.125C390.5 318.149 372.837 318.326 362.25 318.519C342.022 318.888 336.314 317.688 352.515 316.473C357.749 316.081 362.275 315.364 362.574 314.88C363.31 313.69 364.373 313.773 365.727 315.127ZM496.5 315C496.16 315.55 494.671 315.968 493.191 315.93C490.788 315.867 490.714 315.767 492.5 315C495.278 313.806 497.238 313.806 496.5 315ZM338.5 315.91L341.5 316.583L339.162 317.874C337.35 318.874 331.724 319.028 314.162 318.559C283.329 317.736 271 316.977 271 315.904C271 314.866 333.871 314.871 338.5 315.91ZM476.5 316C476.84 316.55 476.191 317 475.059 317C473.927 317 473 316.55 473 316C473 315.45 473.648 315 474.441 315C475.234 315 476.16 315.45 476.5 316ZM485.5 316C485.16 316.55 484.26 317 483.5 317C482.74 317 481.84 316.55 481.5 316C481.148 315.431 482.009 315 483.5 315C484.991 315 485.852 315.431 485.5 316ZM504.75 315.689C503.788 315.941 502.212 315.941 501.25 315.689C500.288 315.438 501.075 315.232 503 315.232C504.925 315.232 505.712 315.438 504.75 315.689ZM576.5 316C577.247 317.209 570.23 317.242 564.5 316.057C560.977 315.329 561.418 315.216 568.191 315.115C572.421 315.052 576.16 315.45 576.5 316ZM586.762 316.687C585.806 316.937 584.006 316.946 582.762 316.707C581.518 316.468 582.3 316.263 584.5 316.252C586.7 316.241 587.718 316.437 586.762 316.687ZM642.729 317.604C642.397 317.936 641.534 317.972 640.813 317.683C640.015 317.364 640.252 317.127 641.417 317.079C642.471 317.036 643.061 317.272 642.729 317.604ZM1141.75 318.5C1149.62 318.5 1152.05 319.217 1148.25 320.42C1145.31 321.351 1127.69 322.059 1124.5 321.374C1121.58 320.747 1121.56 320.708 1123.81 319.874C1125.15 319.378 1125.84 318.546 1125.44 317.899C1124.94 317.093 1125.97 317.021 1129.12 317.641C1131.53 318.113 1137.21 318.5 1141.75 318.5ZM1118.72 319.554C1120.19 320.027 1120.23 320.242 1118.97 321.038C1117 322.287 1108.28 322.258 1107.5 321C1107.14 320.418 1108.14 320 1109.88 320C1111.53 320 1113.15 319.57 1113.47 319.044C1113.8 318.518 1114.72 318.293 1115.53 318.544C1116.34 318.795 1117.78 319.249 1118.72 319.554ZM457.729 320.604C457.397 320.936 456.534 320.972 455.813 320.683C455.015 320.364 455.252 320.127 456.417 320.079C457.471 320.036 458.061 320.272 457.729 320.604Z" fill="black"/>
</svg>
