<?xml version="1.0" encoding="UTF-8"?>
<svg id="Calque_2" data-name="Calque 2" xmlns="http://www.w3.org/2000/svg" viewBox="0 0 155.57 154.06">
  <g id="Calque_1-2" data-name="Calque 1">
    <path d="M0,76.98c1.25-14.69,3.81-32.29,6.45-46.85,1.58-8.71,1.35-5.76,4.28-12.92,1.04-2.55.73-5.89,1.82-8.18.65-1.36,6.86-7.13,8.39-7.6,8.63-2.66,19.18,1.84,27.71,2.18,5.55.22,14.19-1.6,19.91-1.66,15.28-.15,30.67.66,45.98.07,4.72-.18,12.62-2.27,16.91-2,2.11.13,4.75,2.27,7.29,2.73,6.23,1.13,9.36-1.62,13.67,5.33,8.39,13.51-2.45,42.08-3.4,57.42-1.46,23.64,3.14,54.79-3.28,76.72-.2.69-2.53,5.8-2.82,6.18-1.94,2.56-15.67,5.6-19.39,5.66-10.92.18-24.78-4.69-36.99-5.16-16.68-.63-33.53.43-50.36,1.41-4.53.26-9.05,1.81-13.65,1.75-2.35-.03-13.83-1.13-15.28-1.73-2.27-.95-5.79-9.34-6.15-11.92-.39-2.79-.52-19.2-.14-21.97.3-2.22,1.98-3.69,2.02-4.94.06-1.58-1.77-3.23-1.97-5.09-.6-5.6.96-16.53.4-24.26-.11-1.61.22-2.98-1.4-4.15.02-.33-.03-.67,0-1ZM87.15,15.85c-.37-.22-.65-2.26-1.54-2.95-2.42-1.85-10.05.16-13.1.09-15.33-.36-27.82-1.52-42.78,4.21-6.12,2.34-12.36,5.16-13.18,12.63-3.32,30.14-.47,60.55-.49,90.7,0,2.05-.97,3.88-.94,5.85.07,6.45,1.68,13.45,9.41,13.68,8.49.26,19.51-1.9,28-3.06,3.07-.42,8.59,1.11,10.58-1.42.7-5.58,4.65-31.84,2-35.19s-9.32-.5-12.66.58c-8.27-6-4.38-16.8-1.96-25l17.29-5.21c3.74-11.94,6.61-29.76,18.89-35.61,8.7-4.14,18.91-2.71,27.76-3.39,3.28-.25,13.13-3.63,14.65-1.12,1.99,3.2-1.57,17.82-3.37,20.07-3.56,4.42-15.89.96-21.65,2.84-7.36,2.4-13.89,13.77-13.95,21.29,2.23,3.33,20.81-1.16,23.4,4.15,1.31,2.7-1.93,17.63-4.56,19.45-4.08,2.82-19.44-1.55-20.82.68-.09,11.15.07,22.27-2.06,33.25,1.21,3.95,12.28.76,15.17.88,3.75.15,8.32,2.36,12.27,2.73,3,.28,21.14,1.36,22.58-.64,4.3-9.84,2.13-19.82,2.87-29.9,1.84-25.03,6.14-51.22.81-75.72-2-9.19-1.28-16.65-12.25-16.81-9.92-.15-23.64.84-34.07,1.19-1.98.07-4.6,2.76-6.3,1.75Z"/>
  </g>
</svg>