<svg width="862" height="921" viewBox="0 0 862 921" fill="none" xmlns="http://www.w3.org/2000/svg">
<path fill-rule="evenodd" clip-rule="evenodd" d="M734.598 10.0956L733.758 10.1619V10.9481V11.7344H731.192H728.627V12.5304V13.3263H722.435H716.243V12.5304V11.7344H715.358H714.474V12.5028V13.2713L711.953 13.3866C710.566 13.45 707.461 13.5021 705.053 13.5025L700.674 13.5032V14.2992V15.0951L692.935 15.0957C688.678 15.096 683.941 15.1484 682.408 15.2119L679.622 15.3274V16.0671V16.807L673.516 16.9183C670.158 16.9793 665.063 16.9795 662.194 16.9183L656.977 16.8072V16.0671V15.327L654.456 15.2117C653.069 15.1484 650.362 15.0962 648.44 15.0958L644.946 15.0951V14.2992V13.5032H642.852C641.7 13.5032 638.953 13.4507 636.749 13.3865L632.739 13.2699V12.5021V11.7344H617.082H601.425V12.5044V13.2745L600.072 13.3888C598.343 13.535 595.84 13.535 594.11 13.3888L592.757 13.2745V12.5044V11.7344H590.987H589.218V10.9384V10.1425H587.538H585.857V10.9384V11.7344H584.972H584.088V10.9384V10.1425H583.203H582.319V10.9384V11.7344H580.549H578.78V12.5044V13.2745L577.427 13.3888C576.682 13.4517 575.528 13.5032 574.862 13.5032H573.65V14.2992V15.0951L566.617 15.0958C562.75 15.0962 558.451 15.1484 557.064 15.2117L554.543 15.327V16.0956V16.864H551.889H549.236V16.068V15.272H547.466H545.697V16.068V16.864H544.486C543.819 16.864 542.665 16.9154 541.92 16.9784L540.567 17.0927V17.8628V18.6328H534.463H528.36V17.8607V17.0886L526.193 17.0072C525 16.9625 523.05 16.9614 521.858 17.0051L519.691 17.0845V17.8586V18.6328H516.241H512.791V19.5172V20.4016H504.034H495.277V19.6316V18.8615L493.923 18.7472C493.179 18.6842 491.837 18.6328 490.942 18.6328C490.047 18.6328 488.706 18.6842 487.961 18.7472L486.608 18.8615V19.6316V20.4016H476.17H465.732V21.286V22.1704H463.078H460.425V22.9664V23.7623H458.86C458 23.7623 456.089 23.8145 454.614 23.8784L451.933 23.9944V24.7628V25.5311L448.35 25.5754C446.38 25.5998 443.255 25.5923 441.406 25.5589C439.557 25.5257 437.229 25.5533 436.231 25.6203L434.418 25.742V26.4934V27.2448L431.809 27.3576C430.373 27.4197 428.025 27.4197 426.59 27.3576L423.98 27.245V26.4764V25.708H416.196H408.412V26.504V27.3H406.227C405.025 27.3 403.433 27.3514 402.689 27.4144L401.335 27.5287V28.2988V29.0688H391.87H382.405V28.2728V27.4768H381.432H380.459V28.2728V29.0688H378.69H376.921V28.2956V27.5225L375.55 27.404C373.932 27.2641 352.942 27.281 350.693 27.4241L349.145 27.5225V28.2956V29.0688H345.695H342.246V28.2988V27.5287L340.892 27.4144C339.14 27.2663 326.909 27.2678 317.064 27.4172L309.339 27.5345V28.3016V29.0688H305.801H302.263V28.2728V27.4768H297.84H293.417V28.2728V29.0688H292.621H291.825V28.2728V27.4768H290.94H290.056V28.2728V29.0688H274.399H258.742V29.9532V30.8376H256.973H255.204V31.722V32.6064H239.547H223.89V33.4024V34.1983L222.165 34.2383C221.216 34.2604 219.385 34.2507 218.096 34.2167C216.807 34.183 214.04 34.2134 211.948 34.2847L208.144 34.4143V35.1908V35.9672H204.369C202.293 35.9672 198.79 36.0197 196.585 36.0839L192.576 36.2005V36.9664V37.7323L184.747 37.7784L176.919 37.8244L176.865 38.6646L176.811 39.5048H174.255H171.7V40.3892V41.2736H160.476H149.251L149.197 40.4334L149.143 39.5932H139.59H130.037L129.983 40.4334L129.929 41.2736H129.142H128.356V40.4776V39.6817H126.587H124.818V40.4776V41.2736H123.048H121.279V42.158V43.0424H115.176H109.072V43.8384V44.6343L101.244 44.6347C96.938 44.6349 91.0867 44.6874 88.2405 44.7516L83.0657 44.8682V45.6357V46.4032H80.412H77.7583V45.6072V44.8112L74.1758 44.8019C72.2053 44.7967 68.2845 44.7495 65.4627 44.697C62.6409 44.6443 58.7996 44.6572 56.9266 44.7256L53.521 44.85V45.6074V46.365L51.7518 46.4916L49.9827 46.6183V47.3951V48.172H43.8791H37.7756V49.0564V49.9408H36.0064H34.2373V50.8252V51.7096H32.5826H30.9278L30.8135 53.0629C30.7505 53.8073 30.699 56.1553 30.699 58.2809V62.1456H29.9029H29.1068V63.8163V65.4869L28.2664 65.5409L27.4261 65.5948L27.3771 68.2038L27.3283 70.8128H26.5627H25.7972L25.6829 72.1661C25.62 72.9105 25.5685 74.4582 25.5685 75.6056V77.6917L24.7281 77.7457L23.8878 77.7996L23.8338 78.6398L23.7799 79.48H22.1089H20.438V80.3644V81.2488H18.6688H16.8997V83.0176V84.7865H15.9986H15.0978L15.1325 91.6406C15.1516 95.4105 15.159 100.107 15.1489 102.077L15.1305 105.658H14.3553H13.5802L13.4479 107.206C13.3752 108.058 13.3421 113.092 13.3745 118.394C13.4067 123.696 13.4169 130.398 13.3973 133.286L13.3614 138.539L12.521 138.593L11.6807 138.647L11.6273 139.576L11.5737 140.504H10.7869H10V143.069V145.634H10.7961H11.5922V151.736V157.839H10.7961H10V168.275V178.711H10.7701H11.5404L11.6547 180.064C11.7177 180.808 11.7691 182.002 11.7691 182.717V184.017H12.5442H13.3193L13.4452 185.697L13.5714 187.378H14.3509H15.1305V189.147V190.915H16.0151H16.8997V196.133V201.351H17.7842H18.6688V203.916V206.481H19.4458H20.2228L20.3495 208.25L20.4762 210.019H21.2468H22.0174L22.068 211.743L22.1186 213.468L22.959 213.522L23.7993 213.576V220.464V227.353H23.0032H22.2071V231.775V236.197H23.0032H23.7993V247.845C23.7993 254.251 23.8508 260.101 23.9138 260.845L24.0281 262.199H24.7984H25.5685V267.417V272.635H26.4501H27.3314L27.3789 277.012L27.4261 281.39L28.1578 281.444L28.8897 281.497L29.0187 284.849L29.1476 288.2H29.9063H30.665L30.7915 290.057L30.9182 291.915H31.6931H32.4682V294.479V297.044H31.6862H30.9042L30.7788 298.813L30.6534 300.582H29.8801H29.1068V301.378V302.174H29.9029H30.699L30.6994 305.313C30.6997 307.04 30.7521 310.184 30.8161 312.3L30.9324 316.147H31.6766H32.4211L32.5393 319.376C32.6042 321.151 32.6136 325.151 32.5602 328.264C32.5067 331.377 32.5142 334.621 32.5768 335.472L32.6907 337.02H33.464H34.2373L34.2385 338.39C34.2392 339.144 34.2905 340.298 34.3526 340.955L34.4653 342.149H35.236H36.0064V345.589V349.028L35.1661 349.082L34.3258 349.136L34.2752 350.86L34.2246 352.585H33.4608H32.6969L32.5826 353.938C32.5196 354.683 32.4682 355.877 32.4682 356.592V357.892H31.698H30.9278L30.8135 359.245C30.7505 359.989 30.699 361.183 30.699 361.898V363.198H29.9296H29.1602L29.0379 365.939C28.9707 367.446 28.9711 370.55 29.0387 372.837L29.1618 376.995H29.9303H30.699V380.444V383.893H29.9029H29.1068V384.778V385.662H29.8813H30.6558L30.7852 389.109C30.8563 391.005 30.8573 393.353 30.7876 394.327L30.6608 396.098H29.8838H29.1068V398.751V401.404H29.9029H30.699L30.7001 402.598C30.7006 403.255 30.7523 404.449 30.8147 405.252L30.9283 406.711H31.6982H32.4682V407.922C32.4682 408.589 32.5196 409.743 32.5826 410.487L32.6969 411.84H33.4672H34.2373V415.29V418.739H33.4412H32.6451V420.508V422.276H33.4196H34.1941L34.3235 425.726L34.453 429.175H35.2296H36.0064V433.499V437.823L35.1661 437.876L34.3258 437.93L34.2794 444.873L34.2332 451.816H33.4621H32.6909L32.6139 460.262C32.5716 464.907 32.5713 471.553 32.6132 475.031L32.6895 481.355H33.4635H34.2373V505.764V530.174H33.4693H32.7015L32.5853 534.021C32.5212 536.137 32.4689 538.843 32.4685 540.035L32.4682 542.202H31.672H30.8759V543.882V545.563H31.672H32.4682V549.985V554.407H31.672H30.8759L30.8317 561.438C30.8073 565.305 30.8188 573.484 30.857 579.613C30.8952 585.741 30.8676 591.612 30.7956 592.658L30.665 594.559H29.8859H29.1068V599.689V604.818H29.8859H30.665L30.7905 606.66C30.8595 607.672 30.8588 609.224 30.7887 610.109L30.6615 611.716H29.8933H29.1253L29.0717 612.645L29.0183 613.574L28.1743 613.628L27.33 613.682L27.3781 617.077L27.4261 620.472L28.178 620.526L28.9299 620.581V625.789V630.997H28.2479H27.5657L27.453 632.191C27.3909 632.847 27.3396 638.698 27.3389 645.191L27.3376 656.998H26.4531H25.5685L25.5697 659.253C25.5704 660.494 25.6217 662.046 25.6838 662.703L25.7965 663.897H26.5672H27.3376V671.768V679.639H28.1337H28.9299V680.523V681.408H28.1337H27.3376V693.613V705.818H26.4531H25.5685V710.151V714.485H24.798H24.0274L23.9147 715.679C23.8526 716.335 23.8013 719.479 23.8006 722.665L23.7993 728.458H23.0225H22.2458L22.1156 731.928C22.0442 733.836 22.012 736.522 22.0442 737.897C22.0764 739.273 22.0863 742.408 22.0665 744.864L22.0302 749.33H21.2341H20.438V751.426C20.438 752.579 20.3865 754.131 20.3235 754.875L20.2092 756.229H19.4389H18.6688V760.887C18.6688 763.449 18.6161 768.543 18.5517 772.207L18.4344 778.87H17.6671H16.8997V781.434V783.999H16.0151H15.1305V790.102V796.204H14.3604H13.5901L13.4758 797.557C13.4129 798.302 13.3614 799.893 13.3614 801.095V803.279H12.5909H11.8203L11.7076 804.473C11.6455 805.13 11.5942 806.284 11.5935 807.038L11.5922 808.409H10.7961H10V812.742V817.076H10.777H11.554L11.6807 818.845L11.8073 820.614H12.5844H13.3614L13.3626 821.984C13.3633 822.738 13.4146 823.893 13.4767 824.549L13.5894 825.743H14.3601H15.1305L15.1318 827.114C15.1325 827.868 15.1838 829.022 15.2459 829.679L15.3586 830.873H16.1292H16.8997V832.73V834.587H17.6793H18.4588L18.585 836.268L18.7109 837.948H19.4669H20.2228L20.3495 839.717L20.4762 841.486H23.0223H25.5685V842.281V843.077H26.4531H27.3376V842.281V841.486H28.2222H29.1068V842.256V843.026L30.4603 843.14C31.2048 843.203 32.399 843.254 33.1141 843.254H34.4142V844.05V844.846H38.7486H43.083V844.05V843.254H44.7637H46.4444V844.024V844.794L47.9039 844.908C48.7068 844.97 51.8514 845.022 54.8921 845.022L60.4207 845.023V845.809V846.596L61.261 846.65L62.1013 846.704L62.1553 847.544L62.2093 848.384H62.9746H63.7399L63.8648 850.049L63.9897 851.714L65.655 851.839L67.3203 851.964V852.72V853.475L69.0895 853.602L70.8586 853.729V854.484V855.24L72.5393 855.366L74.22 855.492V856.272V857.051H75.1046H75.9891V858.82V860.589H76.8527H77.7162L77.8421 862.269L77.9683 863.949H78.7478H79.5274V865.718V867.487H80.412H81.2966V868.372V869.256H82.0829H82.8694L82.9233 870.096L82.9773 870.936L86.4713 870.984L89.9654 871.032V871.913V872.794H90.85H91.7345V873.57V874.347L93.5037 874.474L95.2728 874.601V875.361V876.121L96.9535 876.247L98.6342 876.373V878.033V879.692H99.5188H100.403V880.576V881.461H101.288H102.173V882.345V883.23H102.959H103.745L103.799 884.07L103.853 884.91L104.782 884.963L105.711 885.017V885.787V886.557L107.391 886.683L109.072 886.809V887.558V888.307L110.426 888.422C111.17 888.485 113.917 888.536 116.529 888.536H121.279V889.332V890.128H122.95H124.621L124.675 890.968L124.729 891.808L133.442 891.854L142.155 891.9V892.669V893.438L143.349 893.55C144.006 893.612 150.256 893.664 157.237 893.664L169.931 893.666V894.436V895.206L171.284 895.32C172.029 895.383 174.775 895.434 177.388 895.434H182.138V896.23V897.026H188.241H194.345V896.23V895.434H199.564H204.783V896.23V897.026H212.567H220.351V896.23V895.434H224.686H229.02V896.204V896.974L230.48 897.088C232.343 897.232 235.139 897.233 236.672 897.088L237.866 896.975V896.205V895.434L240.829 895.433C242.459 895.433 244.45 895.381 245.252 895.319L246.712 895.205V894.435V893.666H248.304H249.896V894.462V895.258H251.665H253.434V894.462V893.666H262.988H272.541V894.44V895.214L277.76 895.345L282.979 895.475V896.251V897.026H284.748H286.517V896.23V895.434H287.402H288.287V896.204V896.975L289.64 897.089C290.385 897.152 292.733 897.203 294.859 897.203H298.725V897.973V898.743L301.759 898.869C303.428 898.939 308.125 898.938 312.197 898.869L319.601 898.741V897.972V897.203H321.37H323.139V897.989V898.776L323.979 898.83L324.819 898.884L324.873 899.724L324.927 900.564H325.802H326.677V901.36V902.156H327.473H328.269V901.36V900.564H332.692H337.115V901.448V902.333H352.674H368.233L368.287 903.173L368.34 904.013H373.559H378.778L378.832 903.173L378.886 902.333H380.557H382.228V903.129V903.925H384.765C386.161 903.925 388.509 903.977 389.984 904.041L392.666 904.157V905.033V905.91L403.945 905.867C410.148 905.844 417.989 905.835 421.371 905.848L427.518 905.87V906.666V907.462H432.649H437.779V906.685V905.909L439.549 905.782L441.318 905.655V904.878V904.102H443.087H444.856V903.217V902.333H445.741H446.625V903.112V903.892L448.297 904.017L449.969 904.142L450.022 904.962L450.075 905.782L451.004 905.835L451.933 905.889V906.676V907.462H453.702H455.471V906.666V905.87L458.523 905.869C460.201 905.869 462.112 905.817 462.769 905.755L463.963 905.642V904.872V904.102H466.617H469.27V904.872V905.642L470.624 905.756C472.354 905.902 475.392 905.902 478.796 905.754L481.477 905.638V904.87V904.102H483.246H485.016V904.878V905.655L488.461 905.784C490.356 905.855 492.681 905.855 493.629 905.784C494.576 905.713 497.683 905.713 500.533 905.785L505.715 905.914V906.688V907.462H517.009C523.221 907.462 529.51 907.515 530.985 907.578L533.667 907.694V908.463V909.231L548.395 909.275C566.797 909.331 567.655 909.334 570.952 909.375L573.65 909.408V910.204V911H574.446H575.242V910.204V909.408H578.78H582.319V910.204V911H584.972H587.626V910.216V909.433L595.985 909.376C600.583 909.345 606.434 909.344 608.989 909.375L613.633 909.43V910.215V911H615.313H616.994V910.23V909.46L618.453 909.347C619.256 909.284 622.401 909.233 625.442 909.232L630.97 909.231V908.461V907.691L632.324 907.577C633.068 907.514 634.262 907.462 634.977 907.462H636.278V906.666V905.87H659.336C672.018 905.87 686.467 905.818 691.446 905.753L700.498 905.636V904.869V904.102H703.24H705.982V903.217V902.333H711.997H718.012V903.109V903.886L721.462 904.016L724.912 904.145V904.919V905.694H731.988H739.065V904.898V904.102H741.63H744.195V904.872V905.642L745.549 905.756C746.294 905.819 749.836 905.87 753.422 905.87H759.941V906.666V907.462L761.931 907.463C763.026 907.464 764.578 907.516 765.381 907.578L766.841 907.692V908.461V909.231H767.637H768.433V908.435V907.639H771.971H775.509V908.406V909.174L783.258 909.291C787.52 909.356 792.217 909.357 793.696 909.292L796.385 909.176V908.408V907.639L797.756 907.638C798.51 907.637 799.665 907.586 800.322 907.524L801.516 907.411V906.641V905.87H802.4H803.285V901.547V897.223L804.125 897.169L804.966 897.115L805.016 895.39L805.067 893.666H805.831H806.595L806.709 892.312C806.772 891.568 806.823 890.418 806.823 889.757V888.555L807.664 888.502L808.504 888.448L808.555 886.723L808.605 884.998H809.386H810.166L810.22 884.07L810.273 883.141L811.098 883.088L811.922 883.035L812.047 881.363L812.173 879.692H812.948H813.723V878.808V877.923H814.509H815.296L815.35 877.083L815.404 876.243L816.228 876.19L817.053 876.136L817.178 874.465L817.303 872.794H818.059H818.815L818.942 871.025L819.069 869.256H819.846H820.623V868.372V867.487H819.826H819.03V866.691V865.895H819.8H820.57L820.684 864.436C820.746 863.633 820.798 862.041 820.799 860.898L820.8 858.82H821.591H822.382L822.431 856.211L822.48 853.602L823.321 853.548L824.161 853.494V851.823V850.153H825.046H825.93V849.268V848.384H826.712H827.494L827.619 846.615L827.745 844.846H828.492H829.24L829.353 843.652C829.415 842.996 829.466 841.841 829.467 841.088L829.468 839.717H830.245H831.022L831.149 837.948L831.276 836.179H832.053H832.83L832.831 834.808C832.832 834.054 832.883 832.9 832.945 832.243L833.058 831.049H833.828H834.599V828.396V825.743H835.483H836.368V823.974V822.205H837.138H837.909L838.022 821.012C838.084 820.355 838.135 817.609 838.136 814.909L838.137 810.001H838.908H839.678L839.791 808.807C839.853 808.15 839.904 802.3 839.905 795.806L839.906 783.999H840.683H841.46L841.524 779.975C841.56 777.762 841.56 772.31 841.524 767.859L841.459 759.766H840.683H839.906V758.882V757.997H840.702H841.499L841.499 755.742C841.499 754.502 841.552 751.756 841.616 749.64L841.732 745.793H842.5H843.268V734.472V723.152H842.499H841.731L841.615 720.471C841.551 718.996 841.499 715.852 841.499 713.484V709.178H840.702H839.906V707.498V705.818H840.702H841.499L841.513 692.684C841.521 685.461 841.547 677.322 841.57 674.598C841.594 671.874 841.627 666.441 841.644 662.526L841.675 655.406H842.472H843.268V641.521V627.636H842.472H841.675V624.01V620.384H842.472H843.268V617.492C843.268 615.901 843.319 613.991 843.382 613.247L843.496 611.893H844.267H845.037V605.703V599.512H844.241H843.445V597.92V596.328H844.241H845.037V594.471V592.613H844.267H843.496L843.382 591.26C843.319 590.516 843.268 587.013 843.268 583.477V577.048H842.472H841.675V576.163V575.279H842.472H843.268L843.269 573.908C843.27 573.154 843.321 572 843.383 571.343L843.496 570.149H844.266H845.037V563.163V556.176H845.833H846.629V555.291V554.407H845.833H845.037V548.305V542.202H844.241H843.445V541.318V540.433H844.241H845.037V537.868V535.304H844.26H843.483L843.356 533.535L843.229 531.766H842.364H841.499V524.452C841.499 520.43 841.55 516.529 841.613 515.785L841.727 514.432H842.491H843.255L843.306 512.707L843.356 510.982L844.196 510.929L845.037 510.875V509.116V507.356H845.807H846.578L846.691 506.162C846.753 505.506 846.804 500.053 846.805 494.046L846.806 483.124H847.691H848.575V469.238V455.353H849.352H850.128L850.192 450.268C850.227 447.471 850.229 444.685 850.196 444.077L850.136 442.972H849.356H848.575V442.176V441.38H847.691H846.806V439.611V437.842H847.581H848.355L848.484 434.393L848.614 430.944H849.365H850.116L850.229 429.75C850.291 429.093 850.342 426.745 850.343 424.532L850.344 420.508H849.46H848.575V419.623V418.739H847.691H846.806V414.405V410.072H847.691H848.575V409.187V408.303H849.371H850.167V407.418V406.534H849.371H848.575V404.854V403.173H849.354H850.133L850.262 401.288C850.332 400.252 850.343 398.896 850.285 398.275C850.227 397.654 850.228 396.512 850.288 395.738L850.397 394.329H851.144H851.892L851.968 392.334C852.01 391.236 852.01 388.888 851.969 387.116L851.893 383.893H851.118H850.344V368.796C850.344 360.493 850.293 353.091 850.23 352.346L850.115 350.993H849.345H848.575V341.822C848.575 336.778 848.524 332.042 848.461 331.298L848.346 329.944H847.576H846.806V329.148V328.352H847.576H848.346L848.461 326.999C848.524 326.255 848.575 318.625 848.575 310.045C848.575 301.465 848.524 293.835 848.461 293.091L848.346 291.738H847.576H846.806V274.315V256.892H847.578H848.349L848.447 255.816C848.5 255.224 848.499 253.672 848.445 252.367L848.345 249.994H847.576H846.806V240.911C846.806 235.916 846.755 231.219 846.692 230.475L846.577 229.122H845.807H845.037V225.673V222.223H845.921H846.806V220.455V218.686H847.602H848.398V217.801V216.917H847.602H846.806L846.805 215.546C846.804 214.792 846.753 213.638 846.691 212.981L846.578 211.787H845.807H845.037V209.232V206.677L845.877 206.623L846.718 206.569L846.772 201.263C846.802 198.344 846.774 195.22 846.711 194.32L846.596 192.684H845.817H845.037V189.147V185.609H844.27H843.502L843.385 177.782C843.321 173.477 843.268 164.085 843.268 156.91L843.268 143.865H842.499H841.73L841.615 141.344C841.552 139.958 841.5 136.854 841.499 134.446L841.499 130.068H840.702H839.906L839.905 121.71C839.904 117.114 839.853 112.816 839.791 112.159L839.678 110.965H838.908H838.137V107.896C838.137 106.208 838.086 104.218 838.023 103.474L837.908 102.121H837.138H836.368V94.3381V86.5553H835.483H834.599V82.2217V77.8881H833.829H833.058L832.944 76.5348C832.881 75.7904 832.83 74.1985 832.83 72.9971V70.8128H832.034H831.238V68.7169C831.238 67.5642 831.186 66.0121 831.123 65.2678L831.009 63.9144H830.245H829.481L829.43 62.1898L829.38 60.4652L828.56 60.4122L827.74 60.3591L827.615 58.6876L827.489 57.0161H826.71H825.93V53.5669V50.1177H826.716C827.148 50.1177 827.552 50.0363 827.613 49.9367C827.675 49.8372 827.669 49.0412 827.601 48.1679L827.477 46.58H826.726H825.976L825.85 44.8112L825.725 43.0424H824.943H824.161V40.4874V37.9323L823.321 37.8784L822.48 37.8244L822.43 36.0998L822.379 34.3752H821.589H820.8V33.4908V32.6064H819.915H819.03V31.722V30.8376H818.146H817.261V29.9532V29.0688H816.377H815.492V28.1844V27.3H814.608H813.723V26.4156V25.5311H812.838H811.954V24.7562V23.9813L810.273 23.8554L808.592 23.7293V22.9499V22.1704H804.258H799.924V21.286V20.4016H796.385H792.847V19.5172V18.6328H785.859H778.871V17.7484V16.864H777.19H775.509V16.094V15.3238L774.159 15.2098C773.417 15.147 771.068 15.148 768.94 15.2121L765.071 15.3283V16.0733V16.8183L763.302 16.9437L761.533 17.0691V17.851V18.6328H759.764H757.995V19.5172V20.4016H756.314H754.633V17.7484V15.0951H753.749H752.864V14.2107V13.3263H751.98H751.095V12.5304V11.7344H750.211H749.326V10.9641V10.1936L748.132 10.0809C746.906 9.96504 736.104 9.97689 734.598 10.0956ZM234.328 97.7612V98.5314L235.681 98.6457C236.426 98.7086 237.62 98.7601 238.335 98.7601H239.635V99.5561V100.352H241.316H242.997V99.5561V98.7601H252.169C257.214 98.7601 261.951 98.7086 262.696 98.6457L264.049 98.5314V97.7612V96.9913H266.615H269.18V97.8757V98.7601H278.724H288.267L288.321 99.6003L288.375 100.44L289.215 100.494L290.056 100.548V101.318V102.087L291.958 102.216C293.004 102.288 295.105 102.291 296.628 102.225C298.15 102.157 300.001 102.158 300.741 102.225L302.086 102.347V103.118V103.89H303.855H305.624V104.774V105.658H309.064H312.504L312.558 106.499L312.612 107.339L315.222 107.388L317.831 107.437V106.548V105.658H326.589H335.346V106.543V107.427H346.668H357.991V108.202V108.977L359.539 109.106C360.39 109.177 363.475 109.216 366.394 109.192C369.314 109.167 372.916 109.159 374.4 109.172L377.098 109.196V109.966V110.737L378.292 110.85C378.949 110.912 380.899 110.963 382.626 110.964L385.767 110.965V111.733V112.502L388.448 112.618C389.923 112.682 393.414 112.734 396.205 112.734C398.995 112.734 402.486 112.682 403.961 112.618L406.643 112.502V111.733V110.965H409.208H411.773V111.738V112.512L415.179 112.645C417.052 112.718 421.729 112.753 425.572 112.723C429.416 112.693 433.377 112.683 434.374 112.701L436.187 112.734V113.53V114.326H438.752H441.318V115.21V116.094H468.386H495.454V116.89V117.686H496.25H497.046V116.89V116.094H498.815H500.584V116.865V117.635L501.778 117.748C502.435 117.81 507.53 117.861 513.101 117.862L523.229 117.863V118.633V119.403L524.583 119.518C525.327 119.581 528.428 119.632 531.473 119.632H537.009L537.063 120.472L537.117 121.312L544.945 121.358L552.774 121.405V122.177V122.95L561.425 123.081C566.184 123.153 570.171 123.154 570.286 123.083C570.401 123.011 572.758 123.012 575.523 123.083L580.549 123.213V123.987V124.762H581.434H582.319V123.966V123.17H585.768H589.218V123.966V124.762L592.359 124.763C594.086 124.764 596.036 124.815 596.693 124.877L597.887 124.99V125.76V126.53H607.529H617.171V127.415V128.299H625.371C629.881 128.299 634.18 128.248 634.924 128.185L636.278 128.071V127.3V126.53H637.162H638.047V127.301V128.071L639.241 128.184C639.898 128.246 642.644 128.297 645.344 128.298L650.254 128.299V127.415V126.53H651.935H653.615V125.735V124.939H654.5H655.384V125.735V126.53H665.026H674.668V125.735V124.939H676.26H677.853V125.735V126.53H684.929H692.006V127.415V128.299H696.34H700.674V127.415V126.53H712.793H724.912V125.761V124.99L726.265 124.876C727.01 124.813 728.96 124.762 730.6 124.762H733.581V123.992V123.222L735.04 123.109C735.843 123.046 737.037 122.994 737.694 122.994L738.888 122.993V122.197V121.401H741.542H744.195V122.197V122.993H745.876H747.557V122.216V121.439L749.326 121.312L751.095 121.186V120.409V119.632H756.314H761.533V121.312V122.993H762.303H763.074L763.188 124.346C763.251 125.091 763.302 126.284 763.302 126.999V128.299H764.098H764.895V129.599C764.895 130.314 764.946 131.508 765.009 132.252L765.123 133.606H765.894H766.664V134.817C766.664 135.484 766.715 136.638 766.778 137.382L766.892 138.735H767.663H768.433L768.434 141.875C768.435 143.602 768.486 145.552 768.548 146.209L768.661 147.403H769.432H770.202V150.056V152.709H771.087H771.971V153.484V154.259L773.652 154.385L775.333 154.511V155.29V156.07H776.305H777.279V156.954V157.839H778.075H778.871V158.723V159.607H779.749H780.627L780.678 161.332L780.728 163.057L781.569 163.11L782.409 163.164V166.604V170.043H783.205H784.001V171.255C784.001 171.921 784.053 173.075 784.116 173.82L784.23 175.173H785H785.77V176.057V176.942H784.993H784.216L784.088 178.733C784.018 179.719 784.018 182.067 784.088 183.951L784.217 187.378H784.994H785.77V189.147V190.915H784.974H784.178V195.249V199.583H784.953H785.728L785.854 201.263L785.98 202.943H786.76H787.54V203.828V204.712H788.424H789.309V205.597V206.481H790.193H791.078V210.019V213.556H790.307H789.537L789.424 214.75C789.362 215.407 789.311 216.959 789.31 218.199L789.309 220.455H788.424H787.54V221.339V222.223H786.76H785.981L785.861 224.036C785.794 225.034 785.767 226.208 785.799 226.645L785.859 227.441L786.684 227.495L787.508 227.548L787.633 229.219L787.759 230.891H789.418H791.078V232.561V234.232L791.918 234.286L792.759 234.34L792.818 235.136C792.851 235.574 792.823 236.748 792.757 237.745L792.636 239.558H791.857H791.078V241.327V243.095H790.193H789.309L789.31 244.466C789.311 245.22 789.362 246.374 789.424 247.031L789.537 248.225H790.307H791.078V258.661V269.097H790.215H789.352V276.084V283.071H790.215H791.078V286.51V289.95L790.238 290.004L789.397 290.057L789.338 290.853C789.305 291.291 789.333 292.465 789.399 293.462L789.52 295.275H790.299H791.078V298.725V302.174H790.193H789.309V303.058V303.943H788.532H787.755L787.628 305.711L787.501 307.48H786.745H785.989L785.862 309.178C785.792 310.112 785.791 311.664 785.86 312.627L785.986 314.379H786.763H787.54V315.263V316.147H788.424H789.309V324.805V333.462L788.468 333.516L787.628 333.57L787.574 334.41L787.52 335.251H786.755H785.991L785.861 338.7L785.732 342.149H784.955H784.178V343.918V345.687H783.3H782.422L782.371 347.411L782.321 349.136L781.48 349.19L780.64 349.244V352.683V356.123H781.436H782.232V357.793V359.463L781.48 359.518L780.728 359.572L780.68 363.065L780.633 366.559H779.747H778.861L778.91 369.168L778.959 371.777L779.8 371.831L780.64 371.885V373.555V375.226H779.87H779.1L778.985 376.579C778.922 377.324 778.871 378.473 778.871 379.134V380.336L778.03 380.39L777.19 380.444L777.139 382.169L777.089 383.893H776.299H775.509V386.546V389.2H776.394H777.279V389.979V390.758L778.959 390.885L780.64 391.01V391.874V392.737H781.534H782.429L782.375 393.577L782.321 394.418L781.48 394.472L780.64 394.525V396.196V397.867H779.755H778.871V398.751V399.636H777.986H777.102V401.404V403.173H778.871H780.64V403.969V404.765H781.524H782.409V406.534V408.303H781.524H780.64V409.187V410.072H779.86H779.081L778.955 411.743L778.83 413.415L778.01 413.468L777.19 413.521L777.137 414.449L777.083 415.378H776.322H775.561L775.447 416.731C775.384 417.476 775.333 420.767 775.333 424.045C775.333 427.324 775.384 430.615 775.447 431.359L775.561 432.712H776.332H777.102V433.597V434.481H776.315H775.529L775.475 435.321L775.421 436.162L774.581 436.216L773.74 436.27V437.056V437.842H772.856H771.971V438.726V439.611H771.087H770.202V450.047V460.483H770.998H771.794V462.252V464.02H770.998H770.202V470.034V476.048H769.317H768.433V482.141V488.234L767.592 488.288L766.752 488.342L766.707 499.618L766.661 510.894H767.547H768.433V511.778V512.663H769.317H770.202V514.334V516.004L769.362 516.058L768.521 516.112L768.468 517.041L768.414 517.969H767.539H766.664V519.65V521.33H765.868H765.071V522.303V523.276H765.868H766.664V526.627V529.978L765.823 530.032L764.983 530.086L764.929 530.926L764.875 531.766H764.089H763.302V532.65V533.535H762.418H761.533V537.868V542.202H760.649H759.764V547.42V552.638H758.879H757.995V554.407V556.176H757.199H756.403V557.856V559.536H757.199H757.995V561.721C757.995 562.922 758.046 564.514 758.109 565.258L758.224 566.612H758.994H759.764V567.496V568.381H758.982H758.2L758.075 570.149L757.949 571.918H757.087H756.226V574.483V577.048H757.11H757.995V577.932V578.817H758.879H759.764V583.15V587.484H758.879H757.995V590.039V592.594L757.154 592.648L756.314 592.702L756.267 597.964L756.22 603.226H755.447H754.674L754.583 606.543C754.533 608.367 754.502 610.257 754.514 610.744C754.526 611.23 754.518 612.444 754.496 613.441L754.457 615.254H753.66H752.864V617.023V618.792H753.66H754.457V619.676V620.561H755.341H756.226V621.445V622.329H757.11H757.995V625.779V629.228H757.11H756.226V633.561V637.895H755.449H754.672L754.545 639.664L754.418 641.433H753.662H752.906L752.781 643.104L752.656 644.775L751.831 644.829L751.007 644.882L751.073 647.54C751.109 649.002 751.081 650.933 751.01 651.83L750.881 653.461H750.103H749.326V657.784V662.108L748.486 662.162L747.645 662.216L747.592 663.145L747.538 664.073H746.77H746.002L745.877 665.653C745.808 666.522 745.805 667.318 745.869 667.422C745.933 667.526 746.339 667.611 746.771 667.611H747.557V668.407V669.203H748.441H749.326V670.087V670.972H750.122H750.918V672.642V674.312L750.166 674.367L749.414 674.421L749.361 675.261L749.307 676.101H748.432H747.557V676.986V677.87H746.672H745.788V678.755V679.639H744.903H744.019V683.088V686.537H743.248H742.478L742.364 687.891C742.301 688.635 742.249 689.829 742.249 690.544V691.844H741.453H740.657V693.613V695.381H741.453H742.249V697.062V698.742H741.453H740.657V699.627V700.511H739.773H738.888V705.818V711.124H738.092H737.296V712.804V714.485H738.092H738.888V715.369V716.254H739.773H740.657V717.934V719.614H741.453H742.249V720.499V721.383H741.453H740.657V725.717V730.05H739.773H738.888V730.935V731.819H738.003H737.119V735.357V738.894H738.003H738.888V742.344V745.793H738.003H737.119V746.677V747.561H736.234H735.35V752.779V757.997H734.581H733.813L733.697 760.679C733.549 764.102 733.548 768.876 733.695 770.618L733.809 771.971H734.576H735.343L735.391 776.26L735.438 780.55L736.279 780.604L737.119 780.658V784.982V789.306H736.339H735.56L735.432 791.004C735.362 791.938 735.332 793.868 735.366 795.293C735.399 796.718 735.409 798.656 735.388 799.599L735.35 801.314L734.509 801.368L733.669 801.422V806.64V811.858L734.484 811.911L735.299 811.964L735.413 813.308C735.476 814.048 735.527 815.198 735.527 815.864V817.076H736.323H737.119V817.96V818.845H736.234H735.35V820.525V822.205H734.554H733.758V823.09V823.974H732.873H731.988V827.512V831.049H732.765H733.542L733.669 832.818L733.796 834.587H734.573H735.35V837.948V841.309H734.465H733.581V842.177V843.045L732.563 843.105C732.004 843.139 727.346 843.141 722.214 843.109L712.882 843.053V842.269V841.486H711.112H709.343V842.26V843.035L707.663 843.161L705.982 843.287V844.067V844.846H700.674H695.367V844.05V843.254H693.686H692.006V844.05V844.846L685.416 844.847C681.791 844.848 678.288 844.9 677.631 844.962L676.437 845.074V845.845V846.615H672.014H667.591V845.819V845.023H664.142H660.692V845.819V846.615H658.923H657.154V847.5V848.384H635.393H613.633V847.605V846.826L611.819 846.708C610.822 846.643 609.25 846.615 608.325 846.647L606.644 846.704L606.59 847.544L606.537 848.384H601.416H596.295V849.18V849.976H593.641H590.987V849.18V848.384H579.665H568.342V849.154V849.924L566.989 850.038C566.244 850.101 565.09 850.153 564.424 850.153H563.212V849.268V848.384H558.878H554.543V849.268V850.153H551.889H549.236V850.949V851.745H544.017H538.798V850.949V850.153L534.861 850.151C532.696 850.151 530.388 850.1 529.731 850.037L528.537 849.925V849.154V848.384H520.664H512.791V847.5V846.615H505.803H498.815V847.5V848.384H497.144H495.473L495.419 847.544L495.365 846.704L490.987 846.656L486.608 846.609V845.844V845.079L482.976 844.971C480.978 844.911 478.271 844.911 476.961 844.97L474.578 845.078V845.846V846.615H472.809H471.039V845.843V845.071L468.805 844.985C467.576 844.938 465.625 844.938 464.47 844.985L462.371 845.072V845.843V846.615H455.382H448.394V845.844V845.072L446.846 844.946C445.995 844.877 441.318 844.833 436.453 844.848C431.587 844.863 425.637 844.869 423.228 844.861L418.85 844.846V844.069V843.293L417.08 843.166L415.311 843.039V842.288V841.537L413.958 841.423C413.213 841.36 409.273 841.309 405.201 841.309H397.797V840.513V839.717H394.02C391.942 839.717 389.634 839.665 388.889 839.602L387.536 839.488V838.718V837.948H384.882H382.228V837.064V836.179H377.009H371.79V835.383V834.587H370.021H368.252V835.383V836.179H367.456H366.66V835.411V834.642L363.978 834.526C362.503 834.462 360.513 834.41 359.555 834.41H357.814V833.642V832.873L355.293 832.758C353.906 832.695 351.16 832.643 349.189 832.642L345.607 832.641V831.846V831.049H343.599C342.495 831.049 340.982 830.998 340.238 830.935L338.884 830.821V830.051V829.281H334.93C332.756 829.281 330.367 829.229 329.623 829.166L328.269 829.052V828.282V827.512H325.704H323.139V826.628V825.743H321.37H319.601V824.964V824.184L317.929 824.059L316.257 823.934L316.204 823.114L316.151 822.294L312.657 822.246L309.163 822.198V821.426V820.654L303.944 820.524L298.725 820.393V819.624V818.854L296.115 818.805L293.506 818.756L293.452 817.916L293.398 817.076H290.842H288.287V816.192V815.307H286.616H284.945L284.891 814.467L284.837 813.627L283.121 813.576L281.406 813.526L281.352 812.692L281.298 811.858L279.574 811.807L277.849 811.757V810.993V810.229L276.495 810.115C275.751 810.052 274.158 810.001 272.957 810.001H270.772V809.205V808.409H269.976H269.18V809.205V810.001H267.411H265.642V809.207V808.414L260.467 808.367L255.292 808.32L255.238 807.48L255.184 806.64H254.309H253.434V805.755V804.871H251.754H250.073V804.094V803.317L248.304 803.191L246.535 803.064V802.308V801.552L244.854 801.426L243.173 801.3V800.547V799.793L241.82 799.679C241.075 799.616 238.329 799.565 235.716 799.565H230.966V798.769V797.973L222.607 797.971C218.009 797.971 213.711 797.919 213.054 797.857L211.86 797.745V796.974V796.204H210.887H209.913V795.434V794.663L208.719 794.55C208.062 794.488 206.908 794.437 206.154 794.436L204.783 794.435V795.319V796.204H203.014H201.245V795.319V794.435H196.026H190.807V793.639V792.843H189.126H187.445V793.639V794.435H186.561H185.676V793.667V792.898L183.155 792.783C181.768 792.72 178.624 792.667 176.167 792.667L171.7 792.666V791.87V791.074H170.019H168.339V791.87V792.666H150.497C140.684 792.666 132.046 792.718 131.302 792.781L129.948 792.895V793.665V794.435H126.498H123.048V792.666V790.897H123.819H124.59L124.702 789.703C124.764 789.047 124.816 787.495 124.816 786.254L124.818 783.999H125.702H126.587V781.444V778.889L127.427 778.835L128.267 778.781V772.767C128.267 769.459 128.287 762.037 128.312 756.273L128.356 745.793H129.152H129.948V737.921V730.05H129.152H128.356V729.254V728.458H129.152H129.948V723.621C129.948 720.96 130 718.174 130.063 717.43L130.177 716.077H130.947H131.717V710.859V705.641H130.947H130.177L130.063 704.287C130 703.543 129.948 699.245 129.948 694.736V686.537H129.152H128.356V681.319V676.101H129.124H129.893L130.009 673.42C130.073 671.945 130.125 669.199 130.125 667.318V663.897H130.921H131.717V663.101V662.305H130.94H130.163L130.037 660.536L129.91 658.767H129.133H128.356V651.897C128.356 648.118 128.304 643.82 128.24 642.345L128.124 639.664H127.355H126.587L126.586 632.367C126.585 628.355 126.533 624.414 126.471 623.612L126.357 622.153H125.588H124.818V615.723C124.818 612.187 124.766 608.685 124.703 607.94L124.589 606.587H123.819H123.048V601.838C123.048 599.226 122.997 596.48 122.934 595.735L122.82 594.382H122.138H121.456V593.586V592.79H122.138H122.821L122.937 591.392C123.002 590.622 123.002 589.428 122.937 588.738L122.821 587.484H122.163H121.505L121.382 585.975C121.315 585.146 121.316 583.196 121.384 581.642L121.508 578.817H122.19H122.872V577.932V577.048H122.19H121.508L121.394 575.694C121.331 574.95 121.279 573.796 121.279 573.13V571.918H120.502H119.725L119.599 570.149L119.472 568.381H118.606H117.741V567.496V566.612H116.945H116.149V556.176V545.74H116.945H117.741V543.971V542.202H116.945H116.149V541.318V540.433H115.264H114.38L114.378 536.498C114.378 534.333 114.326 532.025 114.264 531.368L114.152 530.174H113.383H112.615L112.569 524.027L112.522 517.881L111.795 517.828L111.068 517.775L110.956 516.589C110.894 515.938 110.843 514.828 110.843 514.122L110.841 512.84H110.045H109.249V510.187V507.533H110.045H110.841V501.342V495.152H110.045H109.249L109.249 492.985C109.248 491.793 109.196 489.087 109.132 486.971L109.016 483.124H108.248H107.48V480.587C107.48 479.192 107.428 476.844 107.364 475.369L107.248 472.688H106.479H105.711V467.939C105.711 465.327 105.659 462.58 105.596 461.836L105.482 460.483H104.712H103.942L103.941 454.955C103.94 451.915 103.888 448.771 103.826 447.968L103.712 446.509H102.942H102.173V439.611V432.712H101.404H100.635L100.519 430.031C100.456 428.556 100.403 425.81 100.403 423.929V420.508H99.6072H98.8111V417.529C98.8111 415.891 98.7586 412.747 98.6944 410.542L98.5778 406.534H97.8098H97.042V402.669C97.042 400.544 96.9905 398.196 96.9275 397.451L96.8132 396.098H96.0429H95.2728V387.431V378.764H96.0689H96.8651V376.995V375.226H96.0689H95.2728V360.925C95.2728 353.06 95.2214 346.016 95.1584 345.271L95.0441 343.918H94.2759H93.5077L93.4616 336.975L93.4152 330.033L92.5749 329.979L91.7345 329.925V321.267V312.61H90.9384H90.1423V310.055V307.501L90.8942 307.446L91.6461 307.392L91.6912 290.898L91.7363 274.403H90.8478H89.9592L90.0066 270.026L90.0538 265.648L90.8057 265.594L91.5576 265.539V263.869V262.199H90.7615H89.9654V259.634V257.069H89.1884H88.4114L88.2847 255.3C88.215 254.327 88.215 252.735 88.2847 251.763L88.4114 249.994H89.1884H89.9654V232.571V215.148H89.1693H88.3732V214.352V213.556H89.1693H89.9654L89.9661 201.307C89.9665 194.57 90.0187 187.924 90.082 186.538L90.1973 184.017H90.8516H91.5058L91.6201 182.664C91.6831 181.919 91.7345 180.327 91.7345 179.126V176.942H90.9526H90.1706L90.0452 175.173L89.9197 173.404H89.1562H88.3926L88.3387 172.564L88.2847 171.724L87.4444 171.67L86.604 171.616V170.83V170.043H85.7454H84.8867L84.7724 168.69C84.7094 167.946 84.658 166.752 84.658 166.037V164.737H83.8618H83.0657L83.0645 158.148C83.0638 154.524 83.0125 151.022 82.9504 150.365L82.8377 149.171H82.067H81.2966V142.185V135.198H82.1812C83.1919 135.198 83.1629 135.28 82.9504 133.031L82.8377 131.837H82.0732H81.309L81.2585 130.024L81.2081 128.211L80.475 128.157L79.742 128.104L79.6198 124.885C79.5526 123.115 79.5241 121.189 79.5566 120.605L79.6159 119.544L80.352 119.49L81.088 119.436L81.2134 117.765L81.3387 116.094H83.9714H86.604V115.324V114.554L87.7982 114.441C88.4551 114.379 90.0073 114.328 91.248 114.327L93.5037 114.326V113.533V112.741L96.9977 112.693L100.492 112.645L100.546 111.805L100.6 110.965H101.802C102.463 110.965 103.613 110.913 104.357 110.85L105.711 110.736V109.966V109.196H111.814H117.918V109.992V110.788H120.483H123.048V109.992V109.196H130.452C134.524 109.196 138.465 109.145 139.209 109.082L140.563 108.967V108.199V107.43L150.072 107.385L159.581 107.339L159.635 106.499L159.689 105.658H163.031H166.373L166.427 104.818L166.481 103.978L169.09 103.929L171.7 103.88V103.115V102.35L173.053 102.235C173.798 102.172 174.992 102.121 175.707 102.121H177.007V101.325V100.529L180.944 100.528C183.109 100.527 185.417 100.476 186.074 100.414L187.268 100.301V99.5304V98.7601L196.954 98.7332C202.282 98.7184 210.979 98.7277 216.282 98.7541C221.585 98.7803 226.621 98.7431 227.472 98.6715L229.02 98.5413V97.7664V96.9913H231.674H234.328V97.7612ZM164.844 159.55L163.031 159.62V160.39V161.161L161.262 161.288L159.493 161.414V162.185V162.955L157.768 163.006L156.043 163.057L155.989 163.897L155.935 164.737H153.38H150.824V166.506V168.275H149.15H147.475L147.425 166.55L147.374 164.825L145.693 164.768C144.769 164.737 143.197 164.765 142.199 164.83L140.386 164.948V165.727V166.506H139.501H138.617V168.275V170.043H139.492H140.367L140.421 170.884L140.475 171.724L141.315 171.778L142.155 171.832V172.608V173.385L142.996 173.439L143.836 173.493V175.261V177.03L143.109 177.083L142.382 177.136L142.27 178.322C142.208 178.973 142.157 182.034 142.156 185.122L142.155 190.738H141.271H140.386V194.276V197.814H139.501H138.617V198.698V199.583H137.732H136.848V203.916V208.25H136.052H135.256V209.902C135.256 210.811 135.203 212.761 135.139 214.236L135.023 216.917H134.255H133.486V219.101C133.486 220.303 133.435 221.895 133.372 222.639L133.258 223.992H132.487H131.717V230.979V237.966H130.938H130.158L130.043 239.602C129.98 240.502 129.952 247.526 129.982 255.212L130.037 269.185L130.877 269.239L131.717 269.293V272.635V275.976L130.877 276.03L130.037 276.084L129.99 281.346L129.943 286.608H130.83H131.717V290.057V293.507H130.831H129.944L129.991 301.334L130.037 309.161L130.877 309.215L131.717 309.269V318.81V328.352H130.83H129.943L129.99 333.526L130.037 338.7L130.877 338.754L131.717 338.808V339.682V340.557H132.497H133.276L133.403 342.237L133.528 343.918H134.304H135.079V346.898C135.079 348.537 135.13 350.487 135.193 351.232L135.307 352.585H136.078H136.848V353.469V354.354H137.732H138.617V355.238V356.123H139.501H140.386V356.909V357.695L139.546 357.749L138.705 357.803L138.649 359.66C138.618 360.682 138.645 362.247 138.709 363.138L138.825 364.759L140.49 364.884L142.155 365.009V365.784V366.559H141.271H140.386V367.859C140.386 368.574 140.438 369.768 140.501 370.512L140.615 371.865H141.385H142.155V378.754V385.642L142.996 385.696L143.836 385.75L143.886 387.475L143.937 389.2H144.701H145.465L145.579 390.553C145.642 391.297 145.693 392.849 145.693 394.002V396.098H146.469H147.244L147.37 397.778L147.496 399.459H148.275H149.055L149.056 400.918C149.057 401.72 149.108 402.914 149.17 403.571L149.283 404.765H150.054H150.824V406.534V408.303H151.709H152.593V409.187V410.072H153.478H154.362V410.956V411.84H155.144H155.926L156.052 413.609L156.177 415.378H156.929H157.682L157.808 417.058L157.934 418.739H158.713H159.493V419.623V420.508H160.377H161.262V422.188V423.868H162.147H163.031V424.743V425.618L163.871 425.672L164.712 425.726L164.765 426.654L164.819 427.583H165.606H166.392V428.379V429.175H167.277H168.162V430.059V430.944H169.046H169.931V431.828V432.712H170.815H171.7V433.597V434.481H172.575H173.45L173.504 435.321L173.558 436.162L174.398 436.216L175.238 436.27V437.056V437.842H176.015H176.792L176.919 439.611L177.046 441.38H177.802H178.557L178.683 443.06L178.81 444.74H179.58H180.35L180.404 445.669L180.457 446.598L181.298 446.652L182.138 446.706V447.492V448.278H183.022H183.907V450.047V451.816H184.792H185.676V452.7V453.584H186.451H187.226L187.352 455.256L187.477 456.927L188.301 456.98L189.126 457.034L189.18 457.874L189.234 458.714H190.02H190.807V459.589V460.464L191.736 460.518L192.664 460.571L192.718 461.411L192.772 462.252H193.559H194.345V463.136V464.02H195.23H196.114V464.905V465.789H196.901H197.687L197.741 466.629L197.795 467.47L198.615 467.523L199.435 467.576L199.56 469.247L199.686 470.919H200.465H201.245V471.803V472.688H203.014H204.783V473.572V474.456H205.668H206.552V475.341V476.225H207.332H208.111L208.237 477.906L208.363 479.586H209.138H209.913V480.47V481.355H210.798H211.683V482.239V483.124H212.557H213.432L213.486 483.964L213.54 484.804L215.265 484.855L216.99 484.905V485.783V486.661H217.776H218.563L218.617 487.501L218.671 488.342L219.502 488.395L220.333 488.449L220.386 489.28L220.44 490.11L221.28 490.164L222.121 490.218V491.005V491.791H223.005H223.89V492.675V493.56H225.659H227.428V494.444V495.328H228.313H229.197V496.108V496.887L230.869 497.013L232.541 497.138L232.594 497.958L232.647 498.778L234.372 498.828L236.097 498.879V499.757V500.635H236.981H237.866V501.431V502.227H238.662H239.458V503.111V503.996H240.343H241.227V504.88V505.764H243.085H244.943V506.535V507.305L246.137 507.418C246.794 507.48 247.908 507.531 248.614 507.532L249.896 507.533V508.31V509.087L251.665 509.214L253.434 509.34V510.098V510.856L255.204 510.982L256.973 511.109V511.88V512.65L258.698 512.701L260.423 512.751L260.477 513.591L260.531 514.432H262.192H263.853L263.907 515.272L263.961 516.112L267.357 516.16L270.753 516.208L270.807 517.044L270.861 517.881L271.789 517.934L272.718 517.988V518.758V519.528L274.399 519.654L276.08 519.78V520.536V521.292L277.849 521.418L279.618 521.545V522.317V523.09L282.227 523.138L284.837 523.187V524.868V526.548L283.908 526.602L282.979 526.655V527.442V528.228H279.998C278.359 528.228 276.408 528.28 275.664 528.343L274.31 528.457V529.227V529.997H272.63H270.949V530.882V531.766H270.064H269.18V532.65V533.535H267.411H265.642V534.419V535.304H264.757H263.872V536.09V536.876L263.032 536.93L262.192 536.984L262.139 537.804L262.086 538.624L260.414 538.749L258.742 538.874V539.654V540.433H257.857H256.973V541.318V542.202H256.088H255.204V543.086V543.971H254.319H253.434V544.741V545.511L252.081 545.625C251.336 545.688 250.182 545.74 249.516 545.74H248.304V546.536V547.332H247.419H246.535V548.216V549.1H245.65H244.766V549.975V550.85L243.925 550.904L243.085 550.958L243.031 551.798L242.977 552.638H242.102H241.227V553.522V554.407L239.945 554.408C239.239 554.409 238.13 554.46 237.479 554.521L236.296 554.633L236.175 556.181L236.054 557.729L234.404 557.853L232.754 557.976L232.7 558.8L232.647 559.625L231.816 559.678L230.985 559.732L230.931 560.563L230.878 561.394L230.038 561.448L229.197 561.502V562.288V563.074H229.968H230.739L230.831 565.347C230.881 566.596 230.882 568.188 230.832 568.884L230.742 570.149H229.979H229.217L229.163 570.99L229.109 571.83L228.268 571.884L227.428 571.938V573.608V575.279H226.543H225.659V576.163V577.048H224.774H223.89V577.834V578.62L223.049 578.674L222.209 578.728L222.156 579.657L222.102 580.585H221.341H220.58L220.466 581.939C220.403 582.683 220.351 584.633 220.351 586.272V589.253H219.555H218.759V590.049V590.844H217.875H216.99V591.817V592.79H216.105H215.221V594.471V596.151H214.451H213.681L213.566 597.504C213.503 598.249 213.452 600.995 213.452 603.607V608.356H212.677H211.902L211.776 610.036L211.65 611.716H210.889H210.129L210.002 613.485L209.875 615.254H209.098H208.321V616.139V617.023H207.437H206.552V618.792V620.561H205.668H204.783V632.677V644.793H203.898H203.014V646.562V648.331H202.129H201.245V649.215V650.1H200.47H199.695L199.569 651.78L199.442 653.461H198.689H197.935L197.821 654.814C197.758 655.558 197.706 657.548 197.706 659.236V662.305H196.91H196.114V664.869V667.434H196.91H197.706V669.983V672.531L196.026 672.657L194.345 672.783V674.442V676.101H193.46H192.576V677.87V679.639H191.78H190.984V680.523V681.408H191.78H192.576V682.292V683.177H193.46H194.345V684.857V686.537H195.23H196.114V685.741V684.945H196.91H197.706V685.719V686.492L199.466 686.617L201.226 686.741L201.28 687.568L201.333 688.395L202.173 688.449L203.014 688.503V690.173V691.844H203.898H204.783V692.728V693.613H205.668H206.552V694.497V695.381H208.233H209.913V696.158V696.935L211.683 697.062L213.452 697.188V697.946V698.704L215.221 698.831L216.99 698.957V699.734V700.511H218.65H220.309L220.435 702.182L220.56 703.854L221.384 703.907L222.209 703.96L222.263 704.791L222.316 705.622L223.147 705.675L223.978 705.729L224.031 706.541L224.084 707.353L229.25 707.469C235.851 707.618 250.247 707.619 252.152 707.471L253.611 707.357V706.587V705.818H255.292H256.973V706.588V707.359L260.025 707.465C264.31 707.615 281.646 707.627 283.439 707.481L284.925 707.361V706.589V705.818L292.311 705.816C296.374 705.816 300.235 705.764 300.892 705.702L302.086 705.589V704.819V704.049H303.059H304.032V703.164V702.28H307.482H310.932V703.076V703.872H311.816H312.701V703.076V702.28H315.355H318.008V701.395V700.511H318.795H319.581L319.635 699.671L319.689 698.831L320.529 698.777L321.37 698.723V697.936V697.15H326.12C328.732 697.15 331.479 697.099 332.223 697.036L333.577 696.922V696.158V695.394L335.302 695.344L337.027 695.293L337.081 694.453L337.135 693.613H338.805H340.476V690.959V688.306H341.361H342.246V687.422V686.537H343.025H343.805L343.929 684.877L344.054 683.216L345.715 683.091L347.376 682.967V682.187V681.408H348.349H349.322V680.628V679.849L351.003 679.723L352.684 679.597V678.822V678.047H353.984C354.699 678.047 355.893 677.996 356.637 677.933L357.991 677.818V677.058V676.298L358.831 676.244L359.672 676.19L359.726 675.35L359.78 674.509H360.566H361.352V673.625V672.741H362.237H363.122V671.856V670.972H364.006H364.891V669.301V667.631L365.731 667.577L366.571 667.523L366.625 666.594L366.678 665.665H367.465H368.252V664.869V664.073H369.137H370.021V663.198V662.323L370.95 662.27L371.879 662.216L371.933 661.376L371.987 660.536H373.658H375.329V659.754V658.972L377.098 658.847L378.867 658.721V657.958V657.195L379.707 657.141L380.548 657.087L380.601 656.158L380.655 655.229H381.42H382.186L382.312 653.549L382.438 651.869H383.218H383.997V650.984V650.1H384.882H385.767V649.215V648.331H386.651H387.536V646.562V644.793H388.332H389.128L389.129 643.423C389.13 642.669 389.181 641.514 389.243 640.858L389.356 639.664H390.215H391.074V638.779V637.895H393.639H396.205V637.011V636.126H396.984H397.764L397.889 634.455L398.014 632.783L398.834 632.73L399.654 632.677L399.705 630.952L399.756 629.228H400.634H401.512V628.343V627.459H402.298H403.085L403.139 626.619L403.193 625.779L404.033 625.725L404.873 625.671V624.884V624.098H405.758H406.643V623.125V622.153H407.429H408.215L408.269 621.312L408.323 620.472L409.148 620.419L409.972 620.366L410.097 618.694L410.223 617.023H410.988H411.754L411.808 616.183L411.861 615.343L412.702 615.289L413.542 615.235V614.36V613.485H414.427H415.311V611.831V610.176L416.594 610.068C417.299 610.009 418.445 610.008 419.14 610.066L420.403 610.173L420.526 611.814L420.65 613.455L422.315 613.579L423.98 613.704V614.479V615.254H424.865H425.749V617.023V618.792H426.519H427.29L427.404 620.145C427.467 620.889 427.518 622.044 427.518 622.71V623.921H428.292H429.065L429.19 625.69L429.316 627.459H430.098H430.88V629.228V630.997H431.764H432.649V631.881V632.765H433.534H434.418V634.446V636.126H435.303H436.187V637.011V637.895H437.072H437.956V638.779V639.664H438.841H439.725V640.45V641.236L440.566 641.29L441.406 641.344L441.46 642.184L441.514 643.025H442.301H443.087V643.997V644.97H443.971H444.856V646.644V648.318L446.581 648.369L448.306 648.419L448.36 649.26L448.414 650.1H449.194H449.974L450.024 651.824L450.075 653.549L450.915 653.603L451.756 653.657V655.328V656.998H452.64H453.525V657.883V658.767H454.409H455.294V659.651V660.536H457.063H458.832V661.42V662.305H460.503H462.174L462.228 663.145L462.282 663.985L464.007 664.036L465.732 664.086V664.964V665.842H466.617H467.501V666.638V667.434H468.386H469.27V668.319V669.203H470.066H470.862V670.087V670.972H471.747H472.632V671.856V672.741H473.506H474.381L474.435 673.581L474.489 674.421L476.214 674.472L477.939 674.522V675.4V676.278H478.824H479.708V677.064V677.851L480.549 677.905L481.389 677.959L481.443 678.799L481.497 679.639H482.283H483.07V680.523V681.408H484.829H486.588L486.642 682.248L486.696 683.088L488.421 683.139L490.146 683.189V683.979V684.769H491.818H493.489L493.543 685.697L493.596 686.626L494.525 686.679L495.454 686.733V687.503V688.273L497.134 688.399L498.815 688.525V689.294V690.062L500.54 690.113L502.265 690.163L502.319 691.004L502.373 691.844H504.044H505.715V692.728V693.613H507.484H509.253V694.383V695.153L510.607 695.267C511.351 695.33 512.505 695.381 513.172 695.381H514.383V696.151V696.922L515.737 697.036C516.481 697.099 517.676 697.15 518.391 697.15H519.691V697.927V698.704L521.46 698.831L523.229 698.957V699.734V700.511H524.441C525.107 700.511 526.262 700.562 527.006 700.625L528.36 700.74V701.51V702.28H530.915H533.471L533.525 703.12L533.579 703.96L535.294 704.011L537.01 704.061L537.063 704.895L537.117 705.729L537.957 705.783L538.798 705.837V706.604V707.371L540.567 707.498L542.336 707.624V708.375V709.126L543.69 709.241C544.434 709.304 545.588 709.355 546.255 709.355H547.466V710.151V710.947H548.767C549.482 710.947 550.676 710.999 551.42 711.061L552.774 711.176V711.946V712.716H555.339H557.904V713.6V714.485H559.674H561.443V715.369V716.254H563.212H564.981V717.024V717.794L566.175 717.907C566.832 717.969 567.986 718.02 568.74 718.021L570.112 718.022V718.792V719.562L571.465 719.677C572.21 719.74 574.16 719.791 575.8 719.791H578.78V720.587V721.383H581.434H584.088V722.268V723.152H586.653H589.218V724.036V724.921H590.987H592.757V725.703V726.484L594.526 726.61L596.295 726.735V727.482V728.23L597.648 728.344C599.366 728.489 602.05 728.489 603.593 728.343L604.787 728.23V727.483V726.735L606.556 726.61L608.325 726.484V725.703V724.921H613.544H618.763V724.036V723.152H620.532H622.301V722.268V721.383H623.186H624.07V720.597V719.811L624.911 719.757L625.751 719.703L625.805 718.774L625.858 717.845H626.733H627.609V713.61V709.375L628.449 709.321L629.289 709.267L629.344 708.427L629.397 707.586H630.184H630.97V705.818V704.049H631.855H632.739V703.164V702.28H633.624H634.508V701.395V700.511H635.393H636.278V698.831V697.15H637.162H638.047V696.177V695.205H638.817H639.588L639.701 694.011C639.763 693.354 639.814 692.2 639.815 691.446L639.816 690.075H640.596H641.375L641.501 688.395L641.627 686.714H642.383H643.139L643.266 684.945L643.392 683.177H644.169H644.946V682.292V681.408H645.831H646.716V678.843V676.278H647.6H648.485V673.625V670.972H649.369H650.254V664.869V658.767H651.138H652.023V657.087V655.406H652.8H653.577L653.704 653.637L653.83 651.869H654.607H655.384V650.984V650.1H654.588H653.792V649.304V648.508H654.588H655.384V645.855V643.201H654.588H653.792V640.548V637.895H654.588H655.384V637.011V636.126H654.588H653.792V635.242V634.357H654.588H655.384V631.793V629.228H654.614H653.843L653.731 628.034C653.669 627.377 653.617 626.223 653.616 625.469L653.615 624.098H652.819H652.023V622.358C652.023 621.4 651.971 619.41 651.907 617.936L651.791 615.254H651.022H650.254V614.37V613.485H649.372H648.49L648.443 608.312L648.396 603.138L647.556 603.084L646.716 603.03V601.271V599.512H645.945H645.174L645.062 598.318C645 597.661 644.948 596.153 644.948 594.967L644.946 592.81L644.106 592.756L643.266 592.702L643.212 591.773L643.159 590.844H642.372H641.585V590.049V589.253H640.7H639.816V588.368V587.484H638.931H638.047V586.599V585.715H637.166H636.285L636.237 582.222L636.189 578.728L635.349 578.674L634.508 578.62V577.834V577.048H633.731H632.954L632.828 575.279L632.701 573.51H631.934H631.167L631.113 572.67L631.059 571.83L630.218 571.776L629.378 571.722V570.051V568.381H628.5H627.622L627.571 566.656L627.52 564.931L626.68 564.877L625.84 564.823V563.949V563.074H624.955H624.07V562.19V561.305H623.186H622.301V560.421V559.536H621.417H620.532V558.75V557.964L619.692 557.91L618.852 557.856L618.798 557.016L618.744 556.176H617.957H617.171V555.291V554.407H615.402H613.633V553.625V552.843L611.863 552.718L610.094 552.592V551.731V550.869H609.308H608.521L608.468 550.029L608.414 549.189L607.573 549.135L606.733 549.081V548.206V547.332H605.848H604.964V543.882V540.433H604.079H603.195V539.549V538.664H602.31H601.425V537.78V536.896H600.629H599.833V535.32V533.745L601.514 533.619L603.195 533.493V532.629V531.766H604.079H604.964V530.97V530.174H606.175C606.842 530.174 607.996 530.123 608.741 530.06L610.094 529.945V529.201V528.457L611.448 528.343C612.192 528.28 613.347 528.228 614.013 528.228H615.225V527.437V526.646L617.923 526.597L620.621 526.548L620.675 525.708L620.729 524.868H622.4H624.07V524.098V523.328L625.424 523.213C626.169 523.15 628.517 523.099 630.643 523.099H634.508V522.322V521.545L636.278 521.418L638.047 521.292V520.52V519.748L640.656 519.699L643.266 519.65L643.32 518.81L643.374 517.969H645.045H646.716V517.109V516.249L647.864 516.157C648.495 516.106 650.047 516.107 651.313 516.158L653.615 516.251V515.342V514.432H655.384H657.154V513.547V512.663H658.038H658.923V511.778V510.894H659.807H660.692V509.235V507.575L662.372 507.449L664.053 507.323V506.553V505.783L664.982 505.729L665.911 505.676L665.965 504.836L666.019 503.996H666.805H667.591V503.111V502.227H668.476H669.361V501.342V500.458H670.245H671.13V499.662V498.866L672.501 498.865C673.255 498.864 674.409 498.813 675.066 498.751L676.26 498.638V497.868V497.097H677.145H678.029V495.328V493.56H678.914H679.799V492.675V491.791H680.683H681.568V491.005V490.218L682.408 490.164L683.248 490.11L683.302 489.28L683.355 488.449L684.187 488.395L685.018 488.342L685.072 487.501L685.125 486.661H685.889H686.653L686.777 484.91L686.901 483.159L688.471 483.035L690.041 482.911L690.094 482.177L690.148 481.443L691.077 481.39L692.006 481.336V480.461V479.586H692.785H693.565L693.689 477.925L693.814 476.264L695.475 476.14L697.136 476.015V475.236V474.456H698.021H698.905V472.688V470.919H699.79H700.674V469.248V467.578L701.515 467.524L702.355 467.47L702.409 466.629L702.463 465.789H703.25H704.036V464.905V464.02H704.92H705.805V463.136V462.252H706.69H707.574V461.367V460.483H708.459H709.343V459.687V458.891H710.228H711.112V458.016V457.142L711.953 457.088L712.793 457.034L712.844 455.318L712.894 453.603L713.728 453.55L714.562 453.496L714.616 452.656L714.67 451.816H715.545H716.42V450.931V450.047H717.987H719.553L719.666 448.853C719.728 448.196 719.779 447.042 719.78 446.288L719.781 444.917H720.666H721.55V443.06V441.203H722.328H723.105L723.23 439.626L723.355 438.049L725.009 437.925L726.663 437.801L726.716 436.981L726.769 436.162L727.61 436.108L728.45 436.054V434.852C728.45 434.191 728.502 433.041 728.565 432.297L728.679 430.944H729.449H730.219V430.059V429.175H731.104H731.988V427.406V425.637H732.873H733.758V424.753V423.868H734.537H735.317L735.443 422.188L735.569 420.508H736.318H737.067L737.181 419.154C737.244 418.41 737.296 417.216 737.296 416.501V415.201H738.086H738.875L738.926 413.477L738.977 411.752L739.817 411.698L740.657 411.644V410.062V408.48H741.542H742.426V407.605V406.73L743.267 406.676L744.107 406.622L744.161 405.792L744.214 404.961L745.045 404.907L745.876 404.854L745.93 404.013L745.984 403.173H746.751H747.519L747.645 401.404L747.772 399.636H748.549H749.326V398.424C749.326 397.758 749.378 396.604 749.44 395.859L749.555 394.506H750.325H751.095V393.533V392.56H751.875H752.654L752.78 390.88L752.906 389.2H753.77H754.633V388.315V387.431H755.413H756.193L756.319 385.75L756.445 384.07H757.211H757.976L758.03 383.141L758.083 382.213L758.924 382.159L759.764 382.105L759.765 379.948C759.766 378.761 759.817 377.254 759.879 376.597L759.992 375.403H760.763H761.533V372.661V369.919H762.302H763.07L763.186 367.399C763.249 366.012 763.301 363.704 763.302 362.269L763.302 359.66H764.072H764.843L764.957 358.307C765.02 357.563 765.071 356.369 765.071 355.654V354.354H765.848H766.625L766.754 350.905L766.884 347.456H767.631H768.378L768.494 344.774C768.558 343.299 768.61 341.349 768.61 340.441V338.788H769.406H770.202L770.203 336.975C770.203 335.978 770.255 334.032 770.318 332.651L770.433 330.139L771.158 330.086L771.883 330.033L771.93 325.655L771.977 321.277H772.77H773.563V319.597V317.916H772.767H771.971V316.147V314.379H771.087H770.202V311.725V309.072H769.432H768.661L768.548 307.878C768.486 307.221 768.435 304.913 768.434 302.749L768.433 298.813H767.657H766.882L766.752 295.275L766.623 291.738H765.847H765.071V289.642C765.071 288.489 765.02 286.937 764.957 286.193L764.843 284.839H764.072H763.302V281.39V277.941H764.072H764.843L764.957 276.588C765.02 275.843 765.071 273.058 765.071 270.397V265.559H765.868H766.664L766.708 257.732C766.732 253.427 766.756 242.901 766.761 234.34C766.766 225.779 766.786 216.008 766.805 212.628L766.841 206.481H767.637H768.433V204.385C768.433 203.232 768.484 201.68 768.547 200.936L768.662 199.583H769.432H770.202V196.045V192.507H769.432H768.662L768.547 191.154C768.484 190.41 768.433 189.295 768.433 188.678V187.555H767.646H766.859L766.806 186.626L766.752 185.697L765.912 185.643L765.071 185.589V184.715V183.84H764.187H763.302V183.044V182.248H762.418H761.533V181.364V180.479H760.649H759.764V179.595V178.711H758.968H758.172V177.826V176.942H757.297H756.422L756.368 176.102L756.314 175.261L754.589 175.211L752.864 175.16V174.39V173.619L751.095 173.493L749.326 173.366V172.606V171.846L747.513 171.725C746.515 171.659 745.341 171.632 744.903 171.664L744.107 171.724L744.053 172.564L743.999 173.404L742.195 173.427C741.203 173.439 738.043 173.431 735.173 173.409C732.302 173.387 729.217 173.427 728.317 173.498L726.681 173.627V174.376V175.124L725.487 175.221C724.83 175.275 723.278 175.273 722.037 175.219L719.781 175.119V174.262V173.404H718.897H718.012V172.634V171.864L716.659 171.75C715.914 171.687 713.605 171.635 711.528 171.635H707.751V170.839V170.043H704.124H700.498V170.82V171.597L697.048 171.726L693.598 171.855V172.609V173.362L691.917 173.488L690.237 173.614V174.393V175.173H685.018H679.799V176.054V176.934L676.305 176.982L672.81 177.03L672.757 177.87L672.703 178.711H667.493H662.284V179.48V180.25L659.458 180.374C657.904 180.443 655.953 180.443 655.124 180.376L653.615 180.254V179.482V178.711H651.05H648.485V179.481V180.251L647.131 180.365C646.387 180.428 645.193 180.479 644.477 180.479H643.177V181.275V182.071H640.196C638.557 182.071 636.607 182.123 635.862 182.186L634.508 182.3V183.051V183.802L632.739 183.929L630.97 184.055V184.826V185.596L629.245 185.647L627.52 185.697L627.466 186.538L627.412 187.378H624.061H620.709V188.262V189.147H616.286H611.863V189.928V190.71L610.094 190.836L608.325 190.961V191.708V192.456L607.131 192.569C606.474 192.631 604.922 192.682 603.681 192.683L601.425 192.684V193.48V194.276H597.091H592.757V195.161V196.045H590.66C589.507 196.045 587.955 196.096 587.211 196.159L585.857 196.274V197.044V197.814H584.088H582.319V198.698V199.583H580.549H578.78V200.467V201.351H577.896H577.011V202.147V202.943H576.215H575.419V202.171V201.399L573.184 201.313C571.955 201.266 570.005 201.266 568.85 201.314L566.75 201.4V202.162V202.925L565.821 202.978L564.893 203.032L564.839 203.872L564.785 204.712H563.583C562.922 204.712 561.772 204.764 561.027 204.827L559.674 204.941V205.711V206.481L558.303 206.482C557.549 206.483 556.394 206.534 555.737 206.596L554.543 206.709V207.479V208.25L553.172 208.251C552.418 208.252 551.263 208.303 550.607 208.365L549.413 208.478V209.248V210.019H548.44H547.466V210.798V211.577L545.795 211.703L544.123 211.828L544.07 212.648L544.017 213.468L543.186 213.521L542.355 213.575L542.301 214.406L542.247 215.237L541.407 215.291L540.567 215.344V216.126V216.908L537.957 216.956L535.348 217.005L535.294 217.846L535.24 218.686H532.684H530.129V219.57V220.455H528.36H526.591V221.339V222.223H524.821H523.052V223.015V223.806L520.531 223.855L518.01 223.904L517.956 224.744L517.902 225.584H517.027H516.153V226.447V227.311L514.481 227.436L512.809 227.561L512.756 228.386L512.703 229.21L511.862 229.264L511.022 229.318V231.785V234.251H510.138H509.253V235.136V236.02H508.368H507.484V236.905V237.789H506.599H505.715V238.673V239.558H504.919H504.122V240.442V241.327H503.248H502.373L502.319 242.167L502.265 243.007L500.54 243.058L498.815 243.108V243.986V244.864H497.93H497.046V245.65V246.437L496.206 246.491L495.365 246.545L495.311 247.385L495.257 248.225H494.382H493.508V249.109V249.994H491.827H490.146V250.878V251.763H489.262H488.377V253.531V255.3H487.492H486.608V256.185V257.069H485.828H485.049L484.923 258.749L484.797 260.43H484.022H483.246V261.314V262.199H482.383H481.519L481.393 263.879L481.267 265.559H480.497H479.727L479.673 266.488L479.62 267.417L478.779 267.471L477.939 267.525V269.195V270.866H477.055H476.17V271.75V272.635H474.401H472.632V274.315V275.995H471.747H470.862V276.88V277.764H470.066H469.27V278.649V279.533H468.386H467.501V281.302V283.071H466.617H465.732V284.741V286.412L464.892 286.466L464.051 286.52L463.998 287.448L463.944 288.377H463.174H462.404L462.278 290.057L462.152 291.738H461.396H460.64L460.513 293.507L460.386 295.275H459.609H458.832V296.16V297.044H457.948H457.063V298.813V300.582H456.179H455.294V303.147V305.711H454.409H453.525V307.392V309.072H452.729H451.933V309.957V310.841H451.067H450.202L450.075 312.61L449.948 314.379H449.192H448.436L448.31 316.059L448.184 317.739H447.405H446.625V318.712V319.685H445.741H444.856V322.25V324.815H443.971H443.087V325.699V326.583H442.202H441.318V327.468V328.352H440.522H439.725V329.148V329.944H438.841H437.956V330.81V331.675L436.187 331.801L434.418 331.928V332.705V333.482H433.632H432.845L432.791 332.642L432.737 331.801L431.917 331.748L431.097 331.695L430.972 330.024L430.847 328.352H430.067H429.288V327.052C429.288 326.337 429.236 325.143 429.173 324.399L429.059 323.046H428.289H427.518V322.161V321.277H426.634H425.749V319.618V317.958L424.078 317.833L422.406 317.708L422.353 316.883L422.299 316.059L421.459 316.005L420.619 315.951V315.165V314.379H419.734H418.85V313.494V312.61H417.965H417.08V311.725V310.841H416.196H415.311V310.045V309.249H414.427H413.542V308.374V307.5L412.702 307.446L411.861 307.392L411.808 306.552L411.754 305.711H410.988H410.223L410.097 304.031L409.971 302.351H409.191H408.412V301.378V300.405H407.527H406.643V299.521V298.636H405.758H404.873V297.85V297.064L404.033 297.01L403.193 296.956L403.14 296.136L403.086 295.316L401.415 295.191L399.743 295.065V289.068V283.071H398.858H397.974V281.302V279.533H397.089H396.205V277.764V275.995H395.32H394.435V274.315V272.635H393.551H392.666V270.954V269.274H391.879H391.093L391.039 268.345L390.986 267.417L390.145 267.363L389.305 267.309V265.638V263.967H388.42H387.536V262.199V260.43H386.651H385.767V259.545V258.661H382.317H378.867V256.565C378.867 255.412 378.815 253.86 378.752 253.116L378.638 251.763H377.868H377.098V250.878V249.994H376.213H375.329V249.109V248.225H374.444H373.559V247.341V246.456H372.675H371.79V245.681V244.906L370.119 244.781L368.447 244.656L368.394 243.831L368.34 243.007L367.5 242.953L366.66 242.899V241.228V239.558H365.775H364.891V237.877V236.197H364.006H363.122V235.322V234.448L362.281 234.394L361.441 234.34L361.387 233.5L361.333 232.659H358.777H356.222V231.775V230.891H355.337H354.453V229.122V227.353H353.568H352.684V226.469V225.584H351.799H350.914V224.805V224.025L349.243 223.9L347.571 223.775L347.518 222.955L347.465 222.135L346.624 222.081L345.784 222.027V221.241V220.455H344.899H344.015V219.57V218.686H342.344H340.673L340.619 217.846L340.565 217.005L338.84 216.955L337.115 216.904V216.026V215.148H336.23H335.346V214.371V213.594L333.577 213.468L331.808 213.341V212.574V211.807L330.967 211.753L330.127 211.699L330.076 209.974L330.026 208.25H327.467H324.908V207.365V206.481H322.254H319.601V205.701V204.922L317.929 204.797L316.257 204.671L316.204 203.852L316.151 203.032L315.31 202.978L314.47 202.924V202.138V201.351H313.585H312.701V200.467V199.583H311.03H309.359L309.305 198.742L309.251 197.902L307.535 197.852L305.82 197.801L305.766 196.967L305.713 196.133L303.988 196.083L302.263 196.032V195.262V194.491L300.494 194.365L298.725 194.238V193.373V192.507H297.84H296.955V191.732V190.957L295.275 190.832L293.594 190.705V189.926V189.147H292.71H291.825V188.262V187.378H290.94H290.056V186.596V185.814L288.287 185.689L286.517 185.563V184.804V184.045L284.748 183.92L282.979 183.794V183.021V182.248H281.767C281.101 182.248 279.947 182.197 279.202 182.134L277.849 182.019V181.252V180.484L271.789 180.437L265.73 180.391L265.676 179.551L265.622 178.711H263.076H260.531L260.477 177.87L260.423 177.03L256.142 176.983L251.861 176.936L251.808 176.098L251.754 175.261L249.144 175.212L246.535 175.164V174.398V173.632L245.341 173.519C244.684 173.457 243.529 173.406 242.775 173.405L241.404 173.404V172.634V171.864L240.051 171.75C239.306 171.687 238.112 171.635 237.397 171.635H236.097V170.839V170.043H234.416H232.735V169.159V168.275H230.082H227.428V169.159V170.043H226.543H225.659V170.839V171.635H224.774H223.89V172.499V173.362L222.209 173.488L220.528 173.614V174.384V175.154L219.6 175.208L218.671 175.261L218.617 176.102L218.563 176.942H214.327H210.09V176.146V175.35H209.206H208.321V176.146V176.942H207.437H206.552V176.167V175.392L204.88 175.266C203.961 175.198 203.123 175.194 203.018 175.259C202.914 175.323 202.114 175.32 201.241 175.251L199.652 175.127V174.266V173.404H198.778H197.903L197.849 172.564L197.795 171.724L196.954 171.67L196.114 171.616V170.83V170.043H195.23H194.345V169.159V168.275H193.57H192.795L192.67 166.61L192.545 164.945L190.889 164.82L189.232 164.696L189.179 163.876L189.126 163.057L187.401 163.006L185.676 162.955V162.187V161.418L183.995 161.292L182.315 161.166V160.387V159.607L176.963 159.607C174.02 159.606 170.497 159.578 169.135 159.543C167.772 159.508 165.842 159.511 164.844 159.55ZM145.692 166.992C145.692 167.26 145.64 168.016 145.578 168.673L145.465 169.866H144.695H143.924V168.186V166.506H144.809C145.656 166.506 145.693 166.526 145.692 166.992ZM660.515 332.686V333.482H659.719H658.923V335.578C658.923 336.73 658.871 338.283 658.808 339.027L658.694 340.38H657.946H657.199L657.074 342.149L656.948 343.918H656.166H655.384V344.802V345.687H654.588H653.792V343.122V340.557H654.588H655.384V339.257C655.384 338.542 655.436 337.348 655.499 336.604L655.613 335.251H656.383H657.154V333.57V331.89H658.834H660.515V332.686Z" fill="black"/>
</svg>
