<?xml version="1.0" encoding="UTF-8"?>
<svg id="Calque_1" data-name="Calque 1" xmlns="http://www.w3.org/2000/svg" viewBox="0 0 156 156">
  <path d="M139.76,3.26c5.19,7.14,10.97,10.34,12.98,19.49,3.95,17.95.11,43.09.2,61.72.09,17.77,2.73,36.25,1.99,53.96-.34,8.13-5.74,9.78-12.68,11.33-27.58,6.19-54.66.99-81.76,1.25-10.28.1-21.37,2.58-31.87,1.85-18.92-1.31-27.22-6.87-27.68-26.41C.16,93.28,3.19,57.88,3.99,24.45c.35-14.58,5.82-20.23,20.47-21.48,27.37-2.34,54.82,4.55,82.08,2.98,11-.64,22.05-4.23,33.22-2.68ZM137.72,20.28c-3.99-4-20.97-.55-27.21-.71-12.18-.31-24.45-2.6-37-1.56-15.31,1.27-28.61,2.19-43.87,2.86-3.55.15-11.1-2.02-14.67,1.6-2.83,2.87-2.96,35.42-2.36,41.61,2.18,22.29,3.19,46.08,7.2,67.71.51,2.76-2.48,6.28,2.72,7.19,7.66,1.34,17.8,1.17,25.86,2.13,11.14,1.32,21.84,1.07,33.28,1.27,11.15.2,22.7,1.48,33.87.66,2.84-.21,19.87-2.99,20.99-4.01,2.89-2.64,1.1-15.22,1.51-19.4,2.76-28.18,7.86-55.32,3.84-84-.45-3.18-2.29-13.47-4.16-15.34Z"/>
  <path d="M74.76,43.26c14.97-2.16,35.63,9.72,40.52,23.96,10.49,30.58-19.69,67.16-52.62,47.62-11.92-7.08-16.15-15.5-19.17-28.82-4.91-21.63,9.68-39.64,31.27-42.76ZM96.27,62.73c-.85-.52-2.31-4.02-4.93-5.57-5.55-3.29-19.67-2.93-25.27.43-10.04,6.02-12.63,24.51-8.87,34.71,2.87,7.78,10.18,13.35,18.31,14.75l1.93-1.02.44-2.56c3.64-2.04,9.37,2.01,12.82.78,6.77-2.42,14.13-9.42,15.23-16.8.69-4.6-1.56-19.79-4.86-23.01-1.77-1.73-3.57-.94-4.8-1.7Z"/>
  <path d="M118.74,27.16c16.77-3,7.28,36.94-6.19,15.8-3.28-5.15.61-14.8,6.19-15.8Z"/>
</svg>