<svg width="157" height="154" viewBox="0 0 157 154" fill="currentColor" xmlns="http://www.w3.org/2000/svg">
<path d="M42.6024 0.141396C42.7287 0.187736 42.8551 0.234076 42.9853 0.281821C44.162 0.700398 45.5558 0.879076 46.7884 0.632543C47.3873 0.550339 47.806 0.628445 48.3996 0.731183C48.8578 0.737547 49.3142 0.731328 49.7723 0.720223C50.1532 0.731183 50.1532 0.731183 50.5039 0.906544C50.9691 0.942214 51.4312 0.968522 51.8972 0.988059C52.1869 1.00186 52.4767 1.01568 52.7664 1.0295C53.2203 1.05022 53.6742 1.07059 54.1281 1.0906C55.9058 1.17011 57.6527 1.29255 59.4136 1.55494C59.9174 1.60268 60.2016 1.57044 60.6748 1.43263C61.0694 1.59703 61.0694 1.59703 61.3762 1.78335C61.6367 1.60974 61.6367 1.60974 61.9023 1.43263C62.1338 1.43263 62.3653 1.43263 62.6038 1.43263C62.6038 1.54836 62.6038 1.6641 62.6038 1.78335C62.915 1.77419 62.915 1.77419 63.2326 1.76485C64.7626 1.73345 66.0683 1.75945 67.5139 2.30943C68.3866 2.58678 69.2361 2.74156 70.1443 2.83551C71.0538 2.9296 71.8962 3.10377 72.7747 3.36159C73.0549 3.39983 73.3364 3.43005 73.6186 3.44927C74.217 3.49974 74.7859 3.58287 75.3722 3.71231C76.8294 4.01741 78.3151 4.07025 79.8001 4.10688C79.983 4.1114 80.1658 4.11592 80.3542 4.12058C80.9043 4.05559 81.1384 3.90538 81.5427 3.53695C81.6405 3.59241 81.7383 3.64786 81.8391 3.70499C82.2817 3.9046 82.6312 3.95993 83.1134 4.00481C83.2797 4.0203 83.446 4.03578 83.6173 4.05173C83.7898 4.06631 83.9624 4.08089 84.1403 4.09592C84.3961 4.12084 84.3961 4.12084 84.6571 4.14626C84.824 4.16107 84.991 4.17588 85.163 4.19113C85.3137 4.20451 85.4644 4.21789 85.6197 4.23168C86.2061 4.23985 86.7496 4.15173 87.3296 4.06304C90.1566 3.73183 92.9586 3.67145 95.8017 3.70135C96.3714 3.70621 96.9411 3.71053 97.5108 3.71384C97.8608 3.71597 98.2107 3.71905 98.5606 3.72319C98.7161 3.72433 98.8716 3.72548 99.0317 3.72666C99.1683 3.7281 99.3049 3.72955 99.4457 3.73104C99.7955 3.73364 99.7955 3.73364 100.131 3.53695C100.524 3.51978 100.918 3.51402 101.311 3.51366C101.487 3.51341 101.487 3.51341 101.667 3.51316C101.915 3.51304 102.164 3.51336 102.413 3.51409C102.79 3.51502 103.167 3.5141 103.544 3.51298C103.786 3.51309 104.028 3.51332 104.27 3.51366C104.49 3.51386 104.709 3.51406 104.934 3.51426C105.566 3.53692 106.17 3.6153 106.795 3.71231C107.028 3.71524 107.263 3.71293 107.496 3.70135C108.198 3.68902 108.761 3.84176 109.425 4.06304C109.425 3.88943 109.425 3.71582 109.425 3.53695C109.714 3.54306 109.714 3.54306 110.008 3.54928C110.263 3.55257 110.518 3.55577 110.773 3.55887C110.9 3.56181 111.026 3.56475 111.156 3.56778C111.899 3.57456 112.435 3.4904 113.108 3.18623C113.526 3.11979 113.526 3.11979 113.93 3.08759C114.505 3.0419 114.505 3.0419 115.037 2.83551C115.651 2.79344 116.266 2.76837 116.881 2.74372C117.487 2.70452 117.487 2.70452 117.91 2.39094C118.588 2.01128 119.196 2.09321 119.958 2.12311C122.219 2.1678 124.507 2.02748 126.72 1.52613C128.217 1.19029 129.669 1.01808 131.203 0.972304C131.393 0.965522 131.584 0.958741 131.78 0.951754C133.096 0.908042 134.41 0.895111 135.727 0.917504C136.182 0.90806 136.523 0.851004 136.957 0.731183C137.484 0.695715 138.007 0.714374 138.535 0.731183C138.7 0.734122 138.865 0.73706 139.036 0.740088C139.852 0.778634 140.324 0.801764 140.99 1.30111C141.312 1.74346 141.594 2.18632 141.867 2.66015C142.271 3.27336 142.506 3.51093 143.193 3.79999C144.282 4.29263 144.965 5.32856 145.686 6.24751C145.878 6.49053 146.08 6.72644 146.282 6.96128C146.64 7.44729 146.817 7.90128 147.018 8.46897C147.344 9.31472 147.344 9.31472 148.048 9.87186C148.207 9.92249 148.367 9.97313 148.531 10.0253C148.588 10.141 148.646 10.2568 148.706 10.376C148.926 10.4447 149.147 10.5135 149.374 10.5843C149.978 10.7916 150.209 10.9651 150.492 11.5378C150.65 11.8307 150.65 11.8307 150.81 12.1296C151.258 12.2632 151.258 12.2632 151.687 12.305C151.735 12.5047 151.735 12.5047 151.784 12.7085C151.828 12.8827 151.872 13.057 151.917 13.2366C151.981 13.496 151.981 13.496 152.047 13.7606C152.219 14.251 152.38 14.406 152.739 14.76C152.849 15.1457 152.849 15.1457 152.915 15.582C153.171 17.0495 153.171 17.0495 153.967 18.2673C153.914 18.5025 153.854 18.736 153.791 18.9687C153.718 19.5825 153.718 19.5825 153.791 20.1962C153.907 20.2975 154.023 20.3988 154.142 20.5031C154.659 21.0841 154.554 21.6081 154.535 22.3608C154.493 22.8266 154.493 22.8266 154.38 23.2048C154.267 23.5859 154.267 23.5859 154.668 24.0542C154.737 24.4912 154.79 24.9189 154.833 25.3584C154.929 26.2497 155.06 27.0903 155.304 27.9559C155.59 29.0013 155.597 29.9913 155.545 31.0686C155.719 31.0686 155.892 31.0686 156.071 31.0686C155.913 32.0617 155.913 32.0617 155.786 32.4934C155.691 32.8243 155.691 32.8243 155.83 33.14C155.918 33.6522 155.721 33.9637 155.505 34.421C155.298 34.926 155.249 35.4395 155.194 35.9787C155.31 36.0366 155.426 36.0944 155.545 36.154C155.487 36.3277 155.429 36.5013 155.37 36.6801C155.471 37.1236 155.471 37.1236 155.633 37.6008C155.884 38.4503 155.884 38.9802 155.72 39.8366C155.836 39.9524 155.952 40.0681 156.071 40.1873C156.092 40.6608 156.095 41.1176 156.082 41.5902C156.053 43.263 156.053 43.263 156.246 44.9221C156.304 44.9799 156.362 45.0378 156.422 45.0974C156.444 45.6656 156.455 46.1862 156.323 46.7414C156.247 47.1952 156.278 47.4745 156.349 47.9231C156.452 48.7859 156.32 49.4914 156.104 50.3254C156.038 50.602 155.972 50.8788 155.906 51.1556C155.874 51.2889 155.842 51.4221 155.809 51.5594C155.439 53.1391 155.123 54.7588 155.545 56.3534C155.707 56.9711 155.72 57.4437 155.72 58.0741C155.782 58.2116 155.843 58.349 155.907 58.4906C156.272 59.5129 155.85 60.5055 155.534 61.4937C154.999 63.3002 154.998 65.0333 155.545 66.8422C155.6 67.9598 155.6 67.9598 155.37 68.4204C155.301 69.2264 155.41 69.8372 155.644 70.6124C155.881 71.4273 155.885 71.9637 155.72 72.8044C155.64 73.9456 155.64 73.9455 155.83 75.0553C155.937 75.6713 155.73 76.2351 155.567 76.8268C155.263 77.9651 155.263 77.9651 155.019 79.1174C155.135 79.1174 155.25 79.1174 155.37 79.1174C155.609 80.0326 155.438 80.3996 155.019 81.2217C154.967 81.9637 155.045 82.6024 155.194 83.3261C155.136 83.3839 155.078 83.4418 155.019 83.5014C154.982 83.8404 154.954 84.1805 154.931 84.5207C154.862 85.541 154.862 85.541 154.735 85.9935C154.624 86.5139 154.959 86.8981 155.194 87.3594C155.48 88.7116 155.367 90.1039 155.332 91.4776C155.318 92.603 155.383 93.3725 155.896 94.3738C155.856 95.0687 155.758 95.369 155.37 95.952C155.334 96.4104 155.357 96.7773 155.468 97.2234C155.494 97.3247 155.519 97.4259 155.545 97.5303C155.487 97.5882 155.429 97.646 155.37 97.7057C155.275 98.7893 155.26 99.5987 155.896 100.511C155.845 100.747 155.785 100.981 155.72 101.213C155.705 101.457 155.697 101.702 155.697 101.947C155.697 102.084 155.697 102.221 155.696 102.362C155.697 102.504 155.698 102.645 155.698 102.791C155.698 102.933 155.697 103.074 155.696 103.22C155.697 103.357 155.697 103.494 155.697 103.635C155.697 103.759 155.697 103.883 155.698 104.011C155.709 104.376 155.709 104.376 155.82 104.744C155.896 105.071 155.896 105.071 155.72 105.422C155.698 105.902 155.688 106.377 155.687 106.857C155.685 106.988 155.683 107.118 155.681 107.252C155.679 107.874 155.713 108.376 155.885 108.978C156.149 109.906 156.199 110.83 156.268 111.789C156.283 111.978 156.299 112.167 156.314 112.362C156.535 115.257 156.535 115.257 156.312 116.261C156.224 116.772 156.369 117.065 156.597 117.521C156.655 117.579 156.713 117.637 156.772 117.697C156.78 117.989 156.78 118.281 156.772 118.574C156.657 118.631 156.541 118.689 156.422 118.749C156.288 119.352 156.246 119.883 156.246 120.503C156.42 120.56 156.594 120.618 156.772 120.678C156.835 121.686 156.744 122.42 156.352 123.349C156.202 123.791 156.297 124.093 156.422 124.536C156.502 125.865 156.192 127.144 155.939 128.443C155.758 129.443 155.688 130.064 156.071 131.024C156.103 131.526 156.079 132.024 156.06 132.526C156.032 133.91 156.224 135.124 156.597 136.46C156.754 137.134 156.732 137.539 156.597 138.214C156.637 138.344 156.677 138.474 156.718 138.609C156.792 139.266 156.54 139.639 156.255 140.224C156.054 140.71 155.966 141.158 155.885 141.677C155.746 142.551 155.514 143.117 154.92 143.782C154.594 144.292 154.527 144.781 154.411 145.37C154.291 145.862 154.101 146.232 153.791 146.631C153.676 146.631 153.56 146.631 153.441 146.631C153.433 146.74 153.426 146.848 153.419 146.96C153.265 147.333 153.265 147.333 152.849 147.541C152.308 147.662 151.832 147.714 151.281 147.749C150.449 147.812 149.845 148.01 149.101 148.376C148.205 148.794 147.264 149.051 146.284 149.163C145.709 149.214 145.709 149.214 145.33 149.612C144.684 150.082 144.145 150.07 143.361 150.108C142.897 150.122 142.897 150.122 142.393 150.314C141.851 150.367 141.308 150.403 140.765 150.44C140.295 150.46 140.295 150.46 139.938 150.665C139.592 150.681 139.246 150.697 138.9 150.707C137.22 150.757 135.679 150.953 134.151 151.717C133.515 151.763 132.88 151.795 132.243 151.823C131.508 151.841 131.508 151.841 130.819 152.067C130.645 152.01 130.472 151.952 130.293 151.892C130.119 151.95 129.946 152.008 129.767 152.067C129.482 152.082 129.196 152.086 128.91 152.085C128.746 152.084 128.581 152.083 128.412 152.083C128.24 152.081 128.069 152.08 127.893 152.078C127.719 152.078 127.546 152.077 127.368 152.076C126.94 152.074 126.512 152.071 126.084 152.067C126.084 152.241 126.084 152.415 126.084 152.594C125.66 152.569 125.237 152.543 124.813 152.517C124.634 152.506 124.634 152.506 124.451 152.496C123.529 152.438 123.529 152.438 123.11 152.328C122.727 152.237 122.391 152.22 121.998 152.22C121.856 152.219 121.713 152.219 121.566 152.219C121.419 152.22 121.271 152.22 121.119 152.221C120.974 152.22 120.829 152.22 120.679 152.219C120.017 152.22 119.377 152.237 118.723 152.339C118.193 152.418 118.193 152.418 117.842 152.309C117.437 152.199 117.437 152.199 116.878 152.506C116.224 152.786 116.184 152.779 115.563 152.594C115.078 152.572 114.6 152.561 114.116 152.561C113.989 152.559 113.861 152.556 113.73 152.554C112.95 152.552 112.272 152.648 111.521 152.856C110.756 153.053 109.96 153.106 109.177 153.196C108.554 153.276 108.554 153.276 108.002 153.479C107.476 153.652 107.072 153.687 106.521 153.679C106.361 153.677 106.202 153.676 106.038 153.675C105.567 153.646 105.567 153.646 105.134 153.539C104.571 153.452 104.203 153.579 103.66 153.744C102.169 154.12 100.712 153.956 99.2542 153.47C99.1384 153.528 99.0227 153.586 98.9034 153.646C98.5661 153.663 98.2281 153.669 97.8903 153.669C97.587 153.669 97.587 153.669 97.2776 153.67C97.0654 153.669 96.8533 153.668 96.6347 153.668C96.4232 153.668 96.2118 153.669 95.9939 153.67C95.7915 153.669 95.589 153.669 95.3805 153.669C95.1944 153.669 95.0084 153.669 94.8167 153.668C94.3441 153.646 94.3441 153.646 93.818 153.47C93.0242 153.438 93.0242 153.438 92.2438 153.557C91.6415 153.707 91.0266 153.685 90.4094 153.69C90.2119 153.695 90.2119 153.695 90.0104 153.701C89.1825 153.706 88.7293 153.6 88.0311 153.12C87.6757 153.028 87.6757 153.028 87.3296 153.01C86.7936 152.96 86.2782 152.884 85.7514 152.769C85.7514 152.653 85.7514 152.537 85.7514 152.418C85.462 152.534 85.1727 152.65 84.8746 152.769C84.8167 152.711 84.7588 152.653 84.6992 152.594C83.605 152.548 82.5709 152.714 81.4934 152.885C80.7132 152.956 79.975 152.95 79.263 152.594C78.5767 152.57 77.9619 152.578 77.282 152.681C76.6165 152.771 75.9779 152.798 75.3065 152.802C75.0856 152.804 74.8648 152.807 74.6372 152.809C74.0011 152.769 73.2506 152.719 72.7747 152.243C72.5231 152.225 72.2706 152.22 72.0184 152.221C71.8817 152.22 71.7449 152.22 71.604 152.22C71.1968 152.229 71.1968 152.229 70.8163 152.343C70.495 152.418 70.495 152.418 70.1443 152.243C69.882 152.208 69.6187 152.179 69.3552 152.155C68.605 152.087 68.605 152.087 68.2153 151.892C67.9564 151.875 67.6966 151.869 67.4371 151.87C67.2999 151.87 67.1627 151.869 67.0213 151.869C66.6057 151.877 66.6057 151.877 66.111 152.067C65.7606 152.084 65.4096 152.09 65.0588 152.089C64.8744 152.09 64.6899 152.09 64.4999 152.091C64.0067 152.067 64.0067 152.067 63.4806 151.892C62.9383 151.839 62.3959 151.803 61.8523 151.766C61.3762 151.717 61.3762 151.717 61.0255 151.541C60.6269 151.548 60.2285 151.568 59.8309 151.596C59.6164 151.61 59.4018 151.624 59.1808 151.638C58.6123 151.711 58.2132 151.839 57.6937 152.067C56.4802 152.446 55.3666 152.653 54.094 152.595C53.6532 152.579 53.6532 152.579 53.2014 152.685C52.7836 152.769 52.7836 152.769 52.2246 152.681C51.6572 152.607 51.2782 152.611 50.7231 152.681C49.9057 152.779 49.1568 152.727 48.3406 152.64C47.9092 152.597 47.4848 152.57 47.0515 152.561C46.8823 152.557 46.8823 152.557 46.7096 152.553C46.257 152.584 46.257 152.584 45.689 152.771C44.49 153.085 43.2365 152.958 42.0085 152.931C40.9031 152.915 39.9906 152.99 38.9301 153.295C37.6469 153.403 36.3352 153.28 35.0502 153.218C34.9025 153.211 34.7549 153.205 34.6027 153.198C33.5358 153.141 33.5358 153.141 33.1432 152.944C32.7407 152.938 32.338 152.942 31.9355 152.952C31.6849 152.956 31.4343 152.959 31.1837 152.963C30.7917 152.97 30.3998 152.977 30.0079 152.988C28.338 153.031 26.9108 152.906 25.3144 152.395C24.4925 152.182 23.7772 152.181 22.9503 152.363C22.4462 152.418 22.4462 152.418 22.0297 152.166C21.2251 151.687 20.3774 151.862 19.487 151.991C18.939 152.067 18.939 152.067 18.5882 151.892C17.9351 151.851 17.2831 151.823 16.6291 151.801C15.8187 151.766 15.143 151.67 14.3796 151.366C14.3796 151.25 14.3796 151.135 14.3796 151.015C14.2675 150.997 14.1553 150.979 14.0398 150.96C13.9205 150.921 13.8011 150.881 13.6781 150.84C13.5913 150.58 13.5913 150.58 13.5028 150.314C13.387 150.314 13.2713 150.314 13.1521 150.314C12.9434 150.053 12.7348 149.792 12.5273 149.53C12.1553 149.134 11.7165 148.949 11.2231 148.736C11.1652 148.678 11.1073 148.62 11.0477 148.56C10.1334 148.515 10.1334 148.515 9.25028 148.692C9.09837 148.713 9.09837 148.713 8.9434 148.736C8.60363 148.462 8.60363 148.462 8.24195 148.034C8.12667 147.904 8.12667 147.904 8.00905 147.771C7.63172 147.337 7.37315 147.006 7.18979 146.456C6.82361 146.201 6.82361 146.201 6.38971 145.985C6.24481 145.908 6.09991 145.831 5.95062 145.752C5.83872 145.695 5.72683 145.638 5.61154 145.579C5.61154 145.406 5.61154 145.232 5.61154 145.053C5.4958 145.053 5.38007 145.053 5.26082 145.053C5.20295 144.822 5.14508 144.59 5.08546 144.352C4.91185 144.352 4.73825 144.352 4.55938 144.352C4.20866 143.88 4.20866 143.88 3.85794 143.299C3.76751 143.151 3.67709 143.003 3.58393 142.85C3.50075 142.709 3.41756 142.568 3.33185 142.423C3.24143 142.285 3.15101 142.148 3.05785 142.006C2.75712 141.457 2.62322 140.922 2.45505 140.318C2.32886 140.022 2.20089 139.726 2.07145 139.431C1.76441 138.694 1.78283 138.298 1.92897 137.513C1.61245 137.036 1.61245 137.036 1.22752 136.636C0.976777 135.883 0.975335 135.133 0.926124 134.344C0.909086 133.842 0.909086 133.842 0.701443 133.479C0.678209 133.052 0.66464 132.63 0.658288 132.202C0.652504 131.94 0.64668 131.677 0.64082 131.415C0.632566 131.002 0.62479 130.59 0.61783 130.177C0.591228 128.674 0.54207 127.23 0.175361 125.763C0.115742 125.471 0.0570095 125.179 0 124.887C0.173607 124.829 0.347214 124.771 0.526082 124.711C0.509354 124.599 0.492627 124.487 0.475392 124.371C0.349562 123.389 0.310195 122.649 0.701443 121.73C0.87505 121.672 1.04866 121.614 1.22752 121.555C1.21214 121.222 1.19317 120.89 1.17272 120.557C1.16255 120.372 1.15238 120.187 1.1419 119.996C1.04458 119.404 0.863363 119.064 0.526082 118.574C0.274001 118.168 0.274001 118.168 0.175361 117.697C0.316471 117.385 0.316471 117.385 0.515122 117.039C0.926872 116.319 0.897265 115.831 0.747338 115.029C0.72462 114.874 0.72462 114.874 0.701443 114.716C0.759312 114.658 0.817181 114.6 0.876803 114.54C0.883981 114.131 0.884242 113.722 0.876803 113.313C1.05041 113.313 1.22402 113.313 1.40289 113.313C1.59127 112.748 1.60162 112.328 1.60017 111.735C1.60062 111.55 1.60107 111.366 1.60154 111.176C1.59991 110.668 1.59991 110.668 1.40289 110.156C1.46075 110.041 1.51862 109.925 1.57825 109.806C1.5949 109.543 1.60102 109.28 1.60017 109.016C1.60062 108.877 1.60107 108.738 1.60154 108.594C1.60153 108.217 1.60153 108.217 1.40289 107.877C1.36222 106.596 1.36222 106.596 1.57825 105.948C1.53484 105.665 1.53484 105.665 1.49057 105.378C1.4002 104.7 1.47299 104.164 1.57825 103.493C1.52038 103.377 1.46251 103.261 1.40289 103.142C1.38604 102.864 1.37996 102.585 1.3796 102.307C1.37937 102.139 1.37914 101.972 1.37891 101.8C1.37959 101.624 1.38027 101.449 1.38097 101.268C1.38029 101.096 1.37961 100.923 1.37891 100.746C1.3799 100.011 1.38569 99.2952 1.5029 98.5681C1.62632 98.0688 1.62632 98.0688 1.40289 97.7057C1.3974 97.0501 1.41478 96.3964 1.43097 95.7411C1.43416 95.0828 1.43416 95.0828 1.21588 94.519C1.02801 93.9499 1.10035 93.7209 1.22752 93.1463C1.2876 92.53 1.31634 91.9124 1.34809 91.294C1.36385 91.0453 1.36385 91.0453 1.37994 90.7916C1.39231 90.5517 1.39231 90.5517 1.40494 90.3069C1.41301 90.1619 1.42107 90.0169 1.42939 89.8675C1.39976 89.416 1.26911 89.1543 1.05216 88.7623C0.943265 87.867 1.0257 87.1281 1.40289 86.3072C1.42459 86.1336 1.44629 85.96 1.46865 85.7811C1.60026 85.1494 1.83378 84.8377 2.27969 84.3782C2.39543 84.3782 2.51117 84.3782 2.63041 84.3782C2.38588 83.3894 2.07769 82.5387 1.55633 81.6601C0.640425 80.0329 0.754231 78.1205 1.05216 76.3116C1.31589 75.9075 1.31589 75.9075 1.57825 75.6102C1.7019 75.2336 1.7019 75.2336 1.75361 74.9088C1.52213 74.8509 1.29065 74.793 1.05216 74.7334C1.05216 74.5598 1.05216 74.3862 1.05216 74.2073C1.1679 74.2073 1.28364 74.2073 1.40289 74.2073C1.40085 74.0721 1.39882 73.937 1.39672 73.7977C1.39514 73.6218 1.39356 73.4459 1.39193 73.2647C1.38989 73.0898 1.38786 72.9148 1.38576 72.7346C1.40289 72.2783 1.40289 72.2783 1.57825 71.9276C1.61457 71.4922 1.64377 71.0595 1.66593 70.6234C1.73007 69.3678 1.73007 69.3678 1.92897 68.7711C1.95099 68.4867 1.96427 68.2015 1.97212 67.9162C1.97768 67.745 1.98323 67.5737 1.98895 67.3972C1.99447 67.214 2 67.0309 2.00569 66.8422C2.06387 65.177 2.18934 63.5343 2.38449 61.88C2.46768 61.2233 2.46768 61.2233 2.45505 60.5292C2.48232 60.255 2.51178 59.981 2.54273 59.7072C2.64293 58.6787 2.64093 57.6596 2.6239 56.6276C2.6172 56.066 2.62666 55.6303 2.80577 55.093C2.82275 54.598 2.83018 54.1083 2.82769 53.6134C2.82837 53.4795 2.82905 53.3455 2.82975 53.2075C2.82952 53.0777 2.82929 52.9478 2.82906 52.814C2.82886 52.6961 2.82867 52.5782 2.82846 52.4568C2.80433 52.0899 2.7217 51.7659 2.63041 51.4104C2.54713 49.7776 2.64284 48.1887 2.87175 46.5721C2.98847 45.9043 2.98847 45.9043 2.80577 45.2728C2.78906 45.0138 2.783 44.7541 2.78385 44.4946C2.78317 44.2888 2.78317 44.2888 2.78248 44.0788C2.80577 43.6946 2.80577 43.6946 2.98113 43.1685C2.92326 43.1106 2.86539 43.0527 2.80577 42.9931C2.81246 42.6529 2.8331 42.313 2.86057 41.9738C2.87436 41.7882 2.88815 41.6027 2.90236 41.4114C2.9772 40.9149 3.10819 40.6265 3.33185 40.1873C3.38035 39.7852 3.38035 39.7852 3.36473 39.3763C3.3636 39.2402 3.36247 39.1041 3.36131 38.9639C3.35299 38.597 3.35299 38.597 3.15649 38.2584C3.14422 37.959 3.14169 37.6592 3.14553 37.3596C3.14711 37.2001 3.1487 37.0405 3.15033 36.876C3.15236 36.7535 3.1544 36.631 3.15649 36.5048C3.27223 36.5048 3.38797 36.5048 3.50721 36.5048C3.50721 35.521 3.50721 34.5372 3.50721 33.5236C3.68082 33.4658 3.85443 33.4079 4.0333 33.3483C4.23251 32.9498 4.23768 32.7169 4.24154 32.2742C4.24402 32.1471 4.24651 32.0201 4.24907 31.8892C4.2044 31.3698 4.07214 30.8932 3.93958 30.3903C3.8062 29.7795 3.79825 29.1709 3.78121 28.5478C3.73942 27.5198 3.60737 26.6448 3.26883 25.6673C3.01867 24.8086 3.06641 23.9906 3.33185 23.1445C3.55525 22.2928 3.51135 21.511 3.49557 20.6346C3.50864 19.9456 3.63359 19.3402 3.79286 18.6735C3.88374 18.1061 3.8066 17.6018 3.69901 17.0411C3.67827 16.5969 3.83561 16.3822 4.0333 15.9876C4.06675 15.6487 4.0877 15.3086 4.09906 14.9683C4.15414 14.139 4.27648 13.6548 4.74022 12.979C4.96424 12.5527 5.00799 12.156 5.0745 11.6803C5.1909 10.9471 5.32916 10.5104 5.86499 9.96502C6.23154 9.57453 6.52844 9.14614 6.83907 8.71009C7.22281 8.17676 7.60597 7.65259 8.03371 7.15377C8.42054 6.72095 8.42054 6.72095 8.64062 6.27696C9.01023 5.71503 9.42089 5.40223 9.96268 5.0056C10.141 4.87313 10.3194 4.74067 10.5031 4.60419C11.2712 4.08829 11.9839 3.69427 12.9 3.53695C13.5455 3.40784 14.0047 3.2077 14.5549 2.83551C15.1903 2.62372 15.3689 2.74027 15.9578 3.01087C15.9578 2.89513 15.9578 2.7794 15.9578 2.66015C16.7668 2.19165 17.3625 2.07376 18.2923 2.05735C19.2931 2.01128 20.0012 1.87221 20.8864 1.41893C22.1235 0.81697 24.0482 0.906747 25.3506 1.27919C25.649 1.35514 25.649 1.35514 25.9534 1.43263C26.127 1.31689 26.3006 1.20115 26.4795 1.0819C26.9199 1.13836 27.3169 1.24488 27.7399 1.37783C27.8448 1.39591 27.9496 1.41399 28.0577 1.43263C28.1734 1.31689 28.2892 1.20115 28.4084 1.0819C30.3807 0.556657 32.7362 0.584718 34.7543 0.829823C34.9749 0.855141 35.1955 0.880459 35.4229 0.906544C35.4807 0.848675 35.5386 0.790806 35.5982 0.731183C35.9873 0.71578 36.3768 0.712429 36.7662 0.714058C36.9409 0.71443 36.9409 0.71443 37.1192 0.71481C37.4927 0.715794 37.8661 0.717996 38.2396 0.720223C38.4922 0.721102 38.7449 0.721902 38.9975 0.72262C39.6181 0.724558 40.2385 0.727587 40.859 0.731183C40.9169 0.557576 40.9748 0.383969 41.0344 0.205101C41.577 -0.0662146 42.0244 -0.0481494 42.6024 0.141396ZM83.121 15.9876C82.6301 16.0408 82.1391 16.0765 81.6468 16.1136C81.1725 16.1488 81.1725 16.1488 80.6659 16.3383C80.4033 16.3545 80.1399 16.3611 79.8768 16.3602C79.7412 16.3607 79.6055 16.3611 79.4658 16.3616C79.0877 16.3383 79.0877 16.3383 78.5616 16.1629C78.3171 16.1512 78.072 16.148 77.8273 16.152C77.6066 16.1556 77.386 16.1592 77.1587 16.1629C77.1587 16.2787 77.1587 16.3944 77.1587 16.5136C76.7508 16.5804 76.3414 16.6386 75.9312 16.689C75.8733 16.6311 75.8154 16.5733 75.7558 16.5136C75.4201 16.4961 75.0837 16.4909 74.7475 16.4917C74.5639 16.4913 74.3804 16.4908 74.1913 16.4904C73.6605 16.4992 73.6605 16.4992 73.185 16.6082C72.6171 16.72 72.1154 16.5994 71.5472 16.5136C71.4314 16.5715 71.3157 16.6294 71.1964 16.689C71.1964 16.8047 71.1964 16.9205 71.1964 17.0397C71.078 17.0483 70.9595 17.0569 70.8375 17.0658C70.6811 17.0789 70.5246 17.092 70.3635 17.1055C70.2089 17.1177 70.0542 17.1299 69.8949 17.1425C69.4466 17.1888 69.4466 17.1888 69.1051 17.3987C68.5911 17.6349 68.1755 17.5728 67.6125 17.5439C66.3317 17.5101 65.1538 17.72 63.9036 17.9804C62.5074 18.2664 61.1093 18.4414 59.6941 18.6033C58.7555 18.7143 57.862 18.8587 56.9484 19.1002C56.0205 19.3424 55.2578 19.2849 54.3132 19.1667C53.5834 19.1321 53.0987 19.3831 52.4328 19.6701C51.5164 19.738 51.5164 19.738 51.03 19.4948C50.6869 19.4778 50.3432 19.472 49.9997 19.4729C49.8157 19.4724 49.6317 19.472 49.4421 19.4715C49.0034 19.4913 48.642 19.543 48.2242 19.6701C48.0506 19.4097 48.0506 19.4097 47.8735 19.1441C47.2218 19.0967 46.7411 19.1123 46.1199 19.3194C46.062 19.2615 46.0041 19.2037 45.9445 19.1441C45.2889 19.0327 44.6816 18.9687 44.0155 18.9687C43.7383 18.9482 43.4613 18.9245 43.1846 18.8981C43.0263 18.8831 42.8679 18.8681 42.7048 18.8526C42.5406 18.8367 42.3763 18.8207 42.2071 18.8043C42.0449 18.789 41.8827 18.7738 41.7156 18.7581C41.0226 18.6916 40.3351 18.6183 39.6459 18.5186C38.9934 18.4269 38.5069 18.4083 37.8779 18.618C37.2768 18.6634 36.6767 18.6956 36.0746 18.7241C35.3753 18.7478 35.3753 18.7478 34.7214 18.9687C34.5478 18.9108 34.3742 18.853 34.1953 18.7933C33.929 18.7772 33.662 18.7705 33.3953 18.7714C33.2576 18.771 33.1199 18.7705 32.9781 18.77C32.6058 18.7706 32.6058 18.7706 32.2664 18.9687C31.6074 18.9791 30.9507 18.9724 30.2918 18.9618C29.5733 18.9548 28.9384 18.9946 28.2331 19.1441C27.8801 19.0342 27.5295 18.9164 27.1809 18.7933C26.9296 18.755 26.6774 18.7222 26.4247 18.6947C25.778 18.618 25.778 18.618 25.6027 18.4426C25.2267 18.4252 24.8501 18.4199 24.4738 18.4207C24.1649 18.42 24.1649 18.42 23.8497 18.4193C23.3363 18.4062 23.3363 18.4062 22.9723 18.618C22.3723 18.6406 21.8465 18.6434 21.2625 18.4974C20.8569 18.3947 20.8569 18.3947 20.5501 18.6728C20.3082 18.9562 20.3082 18.9562 20.3418 19.3194C20.2168 19.3007 20.0918 19.2819 19.963 19.2626C18.8341 19.1213 18.1886 19.139 17.1853 19.6701C17.019 19.7244 16.8526 19.7786 16.6812 19.8345C16.5003 19.896 16.3195 19.9575 16.1332 20.0209C16.0018 20.0652 15.8705 20.1095 15.7352 20.1551C15.0345 20.4223 14.6398 20.6003 14.2042 21.2265C14.0152 21.813 13.9941 22.389 13.9631 23.002C13.9039 24.1614 13.694 25.2466 13.437 26.3777C12.5563 30.2821 12.2634 33.9744 12.2533 37.9734C12.2526 38.167 12.2526 38.167 12.2519 38.3645C12.2508 38.736 12.2512 39.1075 12.252 39.479C12.2522 39.6957 12.2524 39.9123 12.2526 40.1355C12.2725 40.6436 12.3503 41.0943 12.4506 41.5902C12.3927 41.6481 12.3349 41.706 12.2752 41.7656C12.1811 42.3542 12.1058 42.9444 12.0293 43.5356C11.9947 43.7038 11.9602 43.872 11.9245 44.0453C11.8088 44.1031 11.6931 44.161 11.5738 44.2206C11.4848 44.6155 11.4848 44.6155 11.4532 45.0755C11.4381 45.2306 11.423 45.3857 11.4074 45.5454C11.3739 45.9988 11.3739 45.9988 11.5738 46.5003C11.5863 46.846 11.5885 47.1922 11.5848 47.5381C11.5834 47.7437 11.5821 47.9493 11.5807 48.1611C11.5761 48.5922 11.5716 49.0233 11.567 49.4544C11.5547 50.7591 11.5547 50.7591 11.6834 52.055C11.7492 52.6379 11.7492 52.6379 11.3984 53.164C11.434 54.0038 11.434 54.0038 11.8425 54.7091C12.1972 55.2382 12.1598 55.6166 12.1513 56.2493C12.1496 56.4733 12.1479 56.6973 12.1461 56.9281C12.1417 57.164 12.1373 57.3999 12.1328 57.6357C12.1301 57.8716 12.1277 58.1075 12.1256 58.3433C12.121 58.7766 12.1153 59.2099 12.1082 59.6431C12.1018 60.0553 12.0999 60.4676 12.0999 60.8799C12.0958 61.0022 12.0918 61.1245 12.0876 61.2505C12.0716 61.8911 12.0852 62.4073 12.2643 63.0281C12.4349 63.6302 12.491 64.1175 12.5273 64.7378C12.5795 65.5513 12.6879 66.3104 12.8671 67.1052C13.2121 68.6961 13.3373 70.3087 13.4715 71.9293C13.4909 72.1426 13.5102 72.3559 13.5302 72.5756C13.5461 72.7674 13.562 72.9591 13.5785 73.1566C13.6863 73.7244 13.9 74.0732 14.2042 74.558C14.1717 74.6919 14.1391 74.8257 14.1056 74.9636C13.9695 75.4759 13.9695 75.4759 14.3748 75.9993C14.9477 77.0945 14.7785 78.3006 14.7303 79.501C14.7115 79.9713 14.6976 80.4408 14.6865 80.9114C14.6743 81.2217 14.6743 81.2218 14.6618 81.5383C14.682 82.1169 14.682 82.1169 15.0791 82.5258C15.5452 83.12 15.5244 83.6175 15.5064 84.3406C15.5058 84.47 15.5053 84.5994 15.5047 84.7328C15.5019 85.1444 15.4942 85.5558 15.4865 85.9674C15.4845 86.2447 15.4828 86.5221 15.4814 86.7994C15.479 87.0648 15.4764 87.3303 15.4735 87.5957C15.4722 87.7197 15.4709 87.8438 15.4696 87.9716C15.4605 88.4426 15.446 88.8811 15.3305 89.3393C15.2179 89.68 15.2179 89.68 15.4317 90.1651C15.5037 91.4069 15.4556 92.6109 15.2454 93.8368C15.0827 94.7993 15.059 95.554 15.3815 96.4911C15.7872 97.6886 15.8704 98.8039 15.8921 100.062C15.901 100.434 15.9106 100.807 15.9208 101.179C15.9255 101.423 15.9255 101.423 15.9302 101.671C15.9418 102.116 15.9418 102.116 16.1332 102.616C16.1551 103.251 16.1551 103.251 16.1332 103.843C16.0753 103.901 16.0174 103.959 15.9578 104.019C15.8347 105.17 16.0238 106.177 16.3688 107.272C16.4839 107.701 16.4839 107.701 16.4839 108.403C16.4859 108.52 16.488 108.638 16.4901 108.76C16.4978 109.331 16.4906 109.785 16.3085 110.332C16.4744 110.687 16.6512 111.037 16.8346 111.384C17.1898 112.244 17.2312 112.921 17.1853 113.839C17.1275 113.955 17.0696 114.07 17.01 114.19C16.9426 114.706 16.9199 115.226 16.8894 115.746C16.8789 115.889 16.8684 116.032 16.8576 116.179C16.8493 116.318 16.8411 116.457 16.8326 116.599C16.8245 116.726 16.8164 116.852 16.8081 116.982C16.8391 117.408 16.9738 117.68 17.1853 118.047C17.1275 118.105 17.0696 118.163 17.01 118.223C16.9928 118.485 16.9872 118.749 16.9881 119.012C16.9876 119.155 16.9872 119.298 16.9867 119.445C16.9706 119.8 16.9706 119.8 17.1853 119.976C17.2651 120.442 17.3085 120.91 17.3607 121.379C17.245 121.379 17.1292 121.379 17.01 121.379C17.01 121.553 17.01 121.727 17.01 121.905C17.1257 121.905 17.2415 121.905 17.3607 121.905C17.3566 122.022 17.3526 122.138 17.3484 122.258C17.3452 122.413 17.342 122.568 17.3388 122.727C17.3347 122.88 17.3307 123.033 17.3265 123.19C17.3641 123.706 17.512 124.061 17.7114 124.536C17.7853 124.874 17.8512 125.214 17.9087 125.555C17.9381 125.726 17.9675 125.897 17.9978 126.074C18.019 126.203 18.0403 126.332 18.0622 126.465C18.2936 126.523 18.5251 126.581 18.7636 126.64C18.7362 126.757 18.7089 126.873 18.6807 126.993C18.6466 127.148 18.6124 127.303 18.5773 127.462C18.5427 127.615 18.5081 127.767 18.4725 127.925C18.3934 128.547 18.4722 129.039 18.7526 129.599C19.0095 130.113 19.1371 130.647 19.2897 131.2C19.4047 131.551 19.5209 131.902 19.6404 132.252C19.5825 132.31 19.5247 132.367 19.465 132.427C19.4579 132.719 19.4575 133.012 19.465 133.304C19.6386 133.362 19.8123 133.42 19.9911 133.479C19.7033 134.475 19.7033 134.475 19.3445 134.794C19.2685 134.881 19.1926 134.968 19.1143 135.057C19.1732 135.586 19.1732 135.586 19.2897 136.11C19.2318 136.283 19.1739 136.457 19.1143 136.636C19.2445 136.755 19.3747 136.874 19.5089 136.997C19.8765 137.36 20.1216 137.715 20.3638 138.17C20.6347 138.785 20.6347 138.785 21.2186 138.915C21.4792 138.934 21.7404 138.943 22.0016 138.946C22.1597 138.948 22.3179 138.951 22.4809 138.953C22.6519 138.955 22.8228 138.957 22.999 138.959C23.3633 138.964 23.7276 138.97 24.0919 138.976C24.6644 138.984 25.2369 138.992 25.8094 138.999C28.1428 139.029 30.3275 139.097 32.5911 139.704C33.2626 139.861 33.9454 139.957 34.6269 140.061C35.0721 140.143 35.0721 140.143 35.4229 140.318C35.8913 140.317 36.3576 140.309 36.8257 140.296C37.8913 140.279 38.7597 140.363 39.7706 140.726C40.7794 141.035 41.6623 140.905 42.6126 140.494C43.1855 140.445 43.5838 140.464 44.1258 140.66C44.8484 140.885 45.5443 140.959 46.2952 141.031C46.5693 141.058 46.8433 141.086 47.1172 141.114C47.3108 141.133 47.3108 141.133 47.5084 141.153C47.8363 141.191 48.1621 141.246 48.4872 141.304C48.6319 141.326 48.7766 141.348 48.9256 141.37C48.9835 141.313 49.0414 141.255 49.101 141.195C49.5613 141.118 49.5613 141.118 50.1532 141.195C50.4645 141.43 50.728 141.682 50.995 141.966C52.1129 142.782 53.3853 142.847 54.7235 142.806C54.9512 142.803 54.9512 142.803 55.1835 142.799C55.5526 142.793 55.9217 142.783 56.2908 142.773C56.3487 142.484 56.4065 142.195 56.4661 141.897C58.5449 141.611 60.7861 141.697 62.837 142.165C63.4293 142.269 63.9924 142.264 64.5937 142.258C64.7154 142.258 64.837 142.257 64.9623 142.256C65.3489 142.254 65.7354 142.251 66.1219 142.247C66.6318 142.243 67.1417 142.239 67.6516 142.236C67.8774 142.234 68.1032 142.232 68.3359 142.23C68.8135 142.244 69.1663 142.293 69.6182 142.423C72.3202 142.781 75.0517 142.807 77.7725 142.806C77.9223 142.806 78.0722 142.807 78.2266 142.807C78.6543 142.807 79.082 142.805 79.5096 142.803C79.7039 142.802 79.7039 142.802 79.902 142.802C80.5692 142.807 80.5692 142.807 81.192 142.598C82.464 142.492 83.5699 142.628 84.7862 142.995C86.4795 143.492 88.3597 143.431 90.0826 143.131C91.679 142.875 93.2786 142.843 94.8921 142.806C95.1341 142.8 95.1341 142.8 95.381 142.794C98.2379 142.727 101.113 142.772 103.916 143.401C104.489 143.501 104.994 143.383 105.567 143.299C105.677 143.328 105.786 143.357 105.899 143.387C106.355 143.495 106.713 143.446 107.178 143.387C107.962 143.304 108.651 143.333 109.428 143.441C109.914 143.488 110.35 143.389 110.828 143.299C111.565 143.263 112.252 143.267 112.976 143.42C113.469 143.527 113.469 143.527 113.864 143.219C114.409 142.907 114.724 142.884 115.347 142.884C115.544 142.881 115.742 142.878 115.945 142.876C116.155 142.875 116.365 142.873 116.582 142.872C118.284 142.838 119.934 142.722 121.613 142.434C121.876 142.389 121.876 142.389 122.145 142.343C122.999 142.201 122.999 142.201 123.802 141.895C124.214 141.693 124.566 141.633 125.02 141.572C125.187 141.549 125.355 141.527 125.527 141.503C125.704 141.481 125.88 141.459 126.062 141.436C126.332 141.402 126.332 141.402 126.608 141.366C127.962 141.201 129.279 141.131 130.644 141.195C130.702 141.079 130.759 140.964 130.819 140.844C131.442 140.614 132.102 140.625 132.76 140.594C133.003 140.581 133.246 140.568 133.489 140.555C133.87 140.535 134.252 140.515 134.633 140.498C135.002 140.481 135.372 140.461 135.741 140.44C135.961 140.429 136.182 140.419 136.409 140.407C136.951 140.362 136.951 140.362 137.296 140.07C137.515 139.8 137.515 139.8 137.483 139.441C137.599 139.441 137.714 139.441 137.834 139.441C137.867 139.33 137.901 139.218 137.936 139.102C138.005 138.885 138.005 138.885 138.075 138.663C138.119 138.519 138.164 138.374 138.21 138.226C138.36 137.863 138.36 137.863 138.71 137.688C138.929 137.089 138.922 136.468 138.951 135.836C139 135.059 139.081 134.389 139.335 133.655C140.119 131.038 139.56 127.9 139.236 125.237C139.352 125.237 139.468 125.237 139.587 125.237C139.962 124.484 139.954 123.92 139.883 123.089C139.869 122.916 139.869 122.916 139.855 122.739C139.783 121.875 139.693 121.013 139.587 120.152C139.471 120.152 139.356 120.152 139.236 120.152C139.283 119.995 139.33 119.838 139.378 119.676C139.439 119.464 139.501 119.252 139.565 119.034C139.598 118.921 139.631 118.808 139.665 118.692C139.842 118.074 139.985 117.467 140.08 116.831C140.245 115.9 140.66 115.097 141.097 114.267C141.668 113.142 141.611 112.271 141.231 111.099C140.915 109.903 140.878 108.514 141.511 107.402C141.606 107.241 141.606 107.241 141.703 107.076C142.216 106.092 142.131 105.07 142.108 103.986C142.108 103.782 142.107 103.578 142.107 103.368C142.097 102.424 142.043 101.738 141.691 100.862C141.646 100.385 141.646 100.385 141.645 99.8744C141.644 99.6897 141.644 99.505 141.643 99.3147C141.645 99.1237 141.646 98.9327 141.648 98.7359C141.646 98.5435 141.645 98.3512 141.643 98.153C141.644 97.8766 141.644 97.8766 141.645 97.5947C141.645 97.4267 141.646 97.2587 141.646 97.0856C141.691 96.6535 141.691 96.6535 142.042 96.1274C142.108 95.8189 142.161 95.5079 142.207 95.1958C142.365 94.2519 142.577 93.4881 143.27 92.7956C143.363 91.9 143.274 91.0423 143.094 90.1651C143.047 89.4416 143.011 88.807 143.271 88.1216C143.471 87.4474 143.48 86.8394 143.461 86.1449C143.457 85.8758 143.454 85.6067 143.45 85.3376C143.443 84.9186 143.434 84.4996 143.425 84.0806C143.393 82.5708 143.373 81.2332 143.971 79.8189C144.079 79.3477 144.079 79.3477 144.114 78.9311C144.129 78.7989 144.145 78.6666 144.161 78.5304C144.164 78.0348 144.164 78.0348 143.975 77.4583C143.696 76.4155 143.752 75.3558 143.763 74.284C143.763 74.0748 143.763 73.8656 143.763 73.6501C143.772 71.9647 143.772 71.9647 143.896 71.2104C144.002 70.7182 144.002 70.7182 143.872 70.3179C143.764 69.8669 143.919 69.6693 144.146 69.2753C144.355 68.9257 144.355 68.9257 144.497 68.5958C144.439 68.48 144.381 68.3643 144.322 68.245C144.33 67.1513 144.568 66.1428 144.914 65.1112C145.048 64.7185 145.048 64.7185 145.023 64.2118C145.139 64.2118 145.255 64.2118 145.374 64.2118C145.524 63.5982 145.571 63.2282 145.379 62.6191C145.129 61.8018 145.167 61.0037 145.188 60.1565C145.231 59.0558 145.231 59.0558 145.097 57.97C144.984 57.3213 145.137 56.7163 145.264 56.0794C145.313 55.8223 145.362 55.5652 145.411 55.3081C145.435 55.1834 145.459 55.0588 145.483 54.9304C145.828 53.0407 145.872 51.7359 145.065 49.9678C144.886 49.5661 144.75 49.1932 144.64 48.7691C144.519 48.2265 144.519 48.2265 144.146 47.7278C143.947 47.0018 143.939 46.2744 143.928 45.5262C143.922 45.2619 143.917 44.9976 143.911 44.7333C143.909 44.5957 143.906 44.4582 143.903 44.3165C143.861 42.2573 143.805 40.2017 143.631 38.1488C143.618 37.984 143.605 37.8192 143.592 37.6495C143.578 37.5009 143.564 37.3524 143.55 37.1994C143.532 37.0089 143.532 37.0089 143.514 36.8146C143.464 36.4615 143.464 36.4615 143.094 36.154C143.111 35.7088 143.111 35.7088 143.182 35.1676C143.26 34.3942 143.26 33.8045 143.024 33.053C142.879 32.4918 142.823 31.9291 142.755 31.3535C142.637 30.4289 142.472 29.5794 142.181 28.6957C141.964 28.0196 141.805 27.3303 141.638 26.6407C141.542 26.2606 141.428 25.885 141.308 25.5118C141.18 24.991 141.168 24.6749 141.198 24.1528C141.223 23.3457 140.953 22.9505 140.493 22.3095C140.195 21.7857 140.201 21.2955 140.166 20.7045C140.143 20.3363 140.143 20.3363 139.784 20.0757C139.661 19.9997 139.538 19.9238 139.412 19.8455C139.339 19.6719 139.267 19.4983 139.193 19.3194C138.81 18.6641 138.503 18.5714 137.805 18.3453C137.481 18.2535 137.481 18.2535 137.132 18.2673C137.074 17.9779 137.016 17.6886 136.957 17.3904C136.849 17.3545 136.741 17.3186 136.63 17.2815C136.037 17.084 135.445 16.8865 134.852 16.689C134.366 16.6771 133.882 16.6894 133.395 16.7C132.923 16.689 132.923 16.689 132.598 16.5957C132.149 16.4977 131.801 16.5343 131.345 16.5931C131.176 16.6147 131.007 16.6364 130.833 16.6587C130.655 16.6831 130.477 16.7076 130.293 16.7328C130.109 16.757 129.925 16.7811 129.736 16.806C128.846 16.9281 127.996 17.0683 127.137 17.3356C125.751 17.7305 123.021 18.0506 121.7 17.3904C121.316 17.3633 120.931 17.3466 120.546 17.335C120.432 17.3313 120.318 17.3277 120.2 17.3239C119.834 17.3125 119.469 17.3021 119.103 17.2918C118.858 17.2842 118.614 17.2766 118.369 17.2689C117.726 17.249 117.083 17.2299 116.439 17.2151C116.282 17.2108 116.125 17.2065 115.962 17.2021C115.522 17.1999 115.522 17.1999 114.96 17.3904C114.358 17.5594 113.901 17.5658 113.283 17.5658C113.135 17.6273 112.986 17.6888 112.834 17.7521C112.313 17.9523 112.064 17.8615 111.529 17.7412C111.401 17.771 111.274 17.8008 111.142 17.8316C110.527 17.9383 110.02 17.8636 109.403 17.774C109.288 17.7577 109.172 17.7413 109.054 17.7245C108.195 17.6 107.345 17.4435 106.494 17.2781C106.07 17.1982 106.07 17.1982 105.545 17.237C105.012 17.2138 104.799 17.1069 104.333 16.8657C103.423 16.4497 102.641 16.4314 101.654 16.4698C101.423 16.4746 101.423 16.4746 101.187 16.4794C100.902 16.4855 100.617 16.493 100.332 16.5025C99.6277 16.5233 99.0108 16.4724 98.3225 16.3383C97.1844 16.1574 96.0656 16.1235 94.914 16.1191C94.7439 16.1175 94.5739 16.1159 94.3986 16.1143C92.8473 16.1138 92.8473 16.1138 91.3629 16.5136C91.3051 16.6873 91.2472 16.8609 91.1876 17.0397C91.0718 16.9819 90.9561 16.924 90.8368 16.8644C90.5176 16.8717 90.1983 16.88 89.8792 16.8935C88.1665 16.9579 86.8042 16.6639 85.2253 15.9876C85.1674 15.9297 85.1096 15.8718 85.0499 15.8122C84.0671 15.7748 84.0671 15.7748 83.121 15.9876ZM8.97422 123.725C8.71212 124.087 8.71282 124.27 8.75707 124.711C8.88624 125.315 9.07578 125.805 9.46948 126.289C10.1018 126.289 10.2434 126.146 10.7299 125.763C10.9181 125.617 10.9181 125.617 11.1101 125.467C11.2052 125.391 11.3004 125.316 11.3984 125.237C11.2899 125.118 11.1814 124.999 11.0696 124.876C10.6388 124.28 10.513 123.841 10.3463 123.133C9.72387 123.133 9.43828 123.319 8.97422 123.725ZM10.5216 129.095C10.4059 129.385 10.2902 129.674 10.1709 129.972C10.4024 129.914 10.6339 129.856 10.8724 129.797C10.8724 129.623 10.8724 129.449 10.8724 129.271C10.7566 129.213 10.6409 129.155 10.5216 129.095Z" fill="currentColor"/>
<path d="M79.8658 41.5669C80.1446 41.5666 80.1446 41.5666 80.4289 41.5663C80.6229 41.5669 80.8168 41.5676 81.0166 41.5683C81.3076 41.5673 81.3076 41.5673 81.6044 41.5663C81.7902 41.5665 81.976 41.5667 82.1674 41.5669C82.3377 41.5671 82.5079 41.5673 82.6833 41.5675C83.121 41.5902 83.121 41.5902 83.6471 41.7656C84.1323 41.8123 84.6176 41.8434 85.1041 41.8745C85.576 41.9409 85.576 41.9409 85.9028 42.1129C86.4565 42.3771 87.0335 42.3904 87.6365 42.4451C88.5559 42.5436 89.3032 42.6733 90.0991 43.1548C90.768 43.4815 91.5003 43.6295 92.222 43.8006C93.0818 44.0106 93.0818 44.0106 93.4673 44.396C93.7536 44.5213 94.0403 44.6456 94.329 44.7652C95.3014 45.1822 96.2354 45.6841 97.1683 46.1818C97.2961 46.25 97.4239 46.3181 97.5556 46.3884C97.8182 46.5286 98.0806 46.6691 98.3429 46.8099C99.0019 47.1611 99.6556 47.4838 100.35 47.7607C101.253 48.1442 101.688 48.8475 102.235 49.6349C102.834 50.375 103.735 50.7801 104.556 51.2303C105.041 51.5858 105.041 51.5858 105.197 52.0673C105.204 52.1978 105.21 52.3282 105.216 52.4626C105.499 52.5223 105.499 52.5223 105.786 52.5832C106.536 52.8456 106.692 53.0607 107.145 53.6901C107.328 53.8481 107.514 54.0015 107.704 54.1504C108.198 54.5669 108.198 54.5669 108.373 55.093C108.66 55.3326 108.954 55.5656 109.25 55.7944C109.398 55.95 109.546 56.1055 109.699 56.2657C110.076 56.6976 110.076 56.6976 110.499 56.737C110.608 56.7732 110.716 56.8093 110.828 56.8466C111.009 57.2531 111.185 57.6623 111.354 58.0741C111.528 58.132 111.701 58.1899 111.88 58.2495C111.952 58.3797 112.025 58.5099 112.099 58.6441C112.407 59.1275 112.539 59.2242 113.009 59.4989C113.765 59.9978 113.916 60.6431 114.178 61.48C114.368 62.0252 114.662 62.374 115.037 62.8089C115.134 63.0218 115.225 63.2376 115.311 63.4555C115.517 64.0745 115.517 64.0745 116.089 64.3871C116.024 64.6204 116.024 64.6204 115.957 64.8584C115.846 65.4492 115.846 65.4492 116.237 65.8386C116.674 66.3902 116.823 66.8459 117.009 67.5217C117.098 67.8302 117.098 67.8302 117.188 68.145C117.34 68.8866 117.49 69.6509 117.141 70.3494C117.253 70.4507 117.365 70.5519 117.481 70.6563C118.052 71.2797 118.041 71.879 118.073 72.7031C118.081 72.8828 118.088 73.0625 118.096 73.2476C118.102 73.4341 118.109 73.6206 118.116 73.8128C118.124 74.002 118.132 74.1912 118.139 74.3861C118.158 74.8526 118.176 75.3191 118.193 75.7856C118.309 75.7856 118.425 75.7856 118.544 75.7856C118.602 76.1328 118.66 76.48 118.719 76.8377C118.893 76.8956 119.066 76.9535 119.245 77.0131C119.245 77.1867 119.245 77.3603 119.245 77.5392C119.13 77.5392 119.014 77.5392 118.895 77.5392C118.83 77.9518 118.769 78.3645 118.708 78.7777C118.681 78.9504 118.681 78.9504 118.653 79.1267C118.539 79.9271 118.598 80.6029 118.719 81.3971C118.653 81.793 118.653 81.793 118.544 82.1205C118.379 82.6718 118.379 82.6718 118.489 83.2384C118.57 83.8869 118.245 84.2313 117.882 84.7523C117.637 85.095 117.637 85.095 117.492 85.6058C117.665 85.7215 117.839 85.8372 118.018 85.9565C117.962 86.0783 117.907 86.2002 117.849 86.3257C117.651 86.8792 117.596 87.3546 117.557 87.9403C117.544 88.1277 117.531 88.3151 117.518 88.5081C117.509 88.6499 117.501 88.7916 117.492 88.9376C117.26 88.9376 117.029 88.9376 116.79 88.9376C116.764 89.2116 116.739 89.4856 116.714 89.7596C116.697 89.9346 116.681 90.1096 116.664 90.2898C116.631 90.6812 116.604 91.0731 116.583 91.4653C116.523 92.518 116.448 93.2727 115.913 94.1984C115.85 94.4794 115.788 94.7608 115.727 95.0424C115.449 96.042 114.851 96.5199 114.05 97.144C113.245 97.8905 113.04 98.7577 112.867 99.8011C112.737 100.227 112.578 100.413 112.231 100.687C112.115 100.687 111.999 100.687 111.88 100.687C111.837 100.839 111.793 100.991 111.749 101.147C111.529 101.739 111.529 101.739 111.19 102.221C110.858 102.744 110.729 103.092 110.576 103.679C110.357 104.483 110.042 104.852 109.425 105.422C109.299 105.769 109.183 106.12 109.074 106.474C108.629 107.226 108.111 107.788 107.496 108.403C107.438 108.518 107.38 108.634 107.321 108.753C107.067 109.262 106.678 109.592 106.269 109.981C105.894 110.305 105.894 110.305 105.773 110.742C105.519 111.318 105.199 111.598 104.723 112.009C104.574 112.139 104.424 112.269 104.27 112.404C104.12 112.53 103.969 112.656 103.814 112.787C103.599 112.967 103.599 112.967 103.38 113.152C102.921 113.5 102.46 113.768 101.95 114.036C101.441 114.305 100.961 114.571 100.482 114.891C100.13 114.992 99.775 115.082 99.4186 115.165C98.7026 115.323 98.7026 115.323 98.0266 115.592C98.0031 115.706 97.9796 115.82 97.9554 115.938C97.9039 116.114 97.9039 116.114 97.8513 116.294C97.3794 116.495 96.9371 116.652 96.4484 116.798C95.3839 117.141 94.509 117.512 93.6015 118.18C93.1734 118.482 92.7411 118.606 92.2397 118.749C91.7974 118.926 91.3578 119.108 90.9184 119.292C90.1955 119.557 89.5327 119.648 88.7654 119.637C88.6268 119.635 88.4883 119.634 88.3455 119.632C88.1899 119.629 88.1899 119.629 88.0311 119.626C87.9732 119.799 87.9153 119.973 87.8557 120.152C87.6604 120.137 87.4651 120.123 87.2639 120.108C86.3249 120.103 85.5339 120.448 84.6992 120.853C84.6414 120.911 84.5835 120.969 84.5239 121.029C84.0266 121.105 83.5329 121.169 83.0333 121.226C82.8968 121.243 82.7602 121.261 82.6196 121.279C81.2141 121.439 80.0018 121.368 78.7041 120.766C77.3992 120.165 76.1642 120.111 74.7523 120.076C73.5544 120.025 72.7564 119.562 71.7554 118.924C70.9559 118.437 70.1682 118.12 69.2675 117.872C69.2675 117.756 69.2675 117.641 69.2675 117.521C69.147 117.501 69.0265 117.481 68.9024 117.46C68.3174 117.33 67.7788 117.141 67.2179 116.93C66.9185 116.819 66.9186 116.819 66.6131 116.706C66.111 116.469 66.111 116.469 65.7603 115.943C65.396 115.772 65.396 115.772 64.9821 115.658C64.8449 115.616 64.7077 115.574 64.5663 115.531C64.4395 115.493 64.3127 115.456 64.182 115.417C64.0084 115.359 63.8348 115.301 63.6559 115.242C63.5149 115.256 63.3738 115.271 63.2285 115.286C62.7791 115.242 62.7791 115.242 62.4394 114.847C62.32 114.688 62.2007 114.529 62.0777 114.365C61.7293 114.128 61.3784 113.894 61.0255 113.663C60.5073 113.196 60.1604 112.808 59.8199 112.195C59.2923 111.414 58.4495 111.118 57.6095 110.767C56.8974 110.468 56.3523 110.128 55.7647 109.63C55.2948 109.413 55.2948 109.413 54.8879 109.279C54.8879 109.164 54.8879 109.048 54.8879 108.929C54.7143 108.871 54.5407 108.813 54.3618 108.753C54.2913 108.553 54.2913 108.553 54.2193 108.348C53.938 107.711 53.5424 107.541 52.9589 107.175C52.4548 106.715 52.4548 106.715 52.0821 106.298C52.0821 106.183 52.0821 106.067 52.0821 105.948C51.8507 105.89 51.6192 105.832 51.3807 105.772C51.4132 105.496 51.4132 105.496 51.4464 105.213C51.4569 104.511 51.4569 104.511 50.8902 104.142C50.7946 104.068 50.6989 103.994 50.6004 103.917C50.1523 103.506 49.9319 102.977 49.6928 102.429C49.3082 101.566 49.3082 101.566 48.7167 100.833C48.3996 100.511 48.3996 100.511 48.3358 100.147C48.3388 100.021 48.3417 99.8956 48.3448 99.7661C48.2926 98.8621 47.8836 98.4551 47.2419 97.8502C47.1205 97.6918 47.1205 97.6918 46.9967 97.5303C47.0446 97.1837 47.0446 97.1837 47.172 96.8288C47.2205 96.3431 47.2034 95.9196 47.172 95.426C46.9309 95.1263 46.9309 95.1263 46.646 94.8999C46.5875 94.6076 46.529 94.3153 46.4706 94.0231C46.335 93.8929 46.335 93.8929 46.1966 93.76C45.9445 93.497 45.9445 93.497 45.9007 93.0586C45.9445 92.6202 45.9445 92.6202 46.1199 92.0941C45.9463 91.9784 45.7727 91.8626 45.5938 91.7434C45.5287 91.3947 45.5287 91.3947 45.5171 90.9871C45.4554 90.1934 45.2193 89.9088 44.717 89.2883C44.1219 87.703 44.1219 87.703 44.2854 86.8888C44.3121 86.7547 44.3388 86.6207 44.3663 86.4826C44.0544 86.0233 44.0544 86.0233 43.6648 85.6058C43.2415 84.9709 43.2759 84.4284 43.3141 83.6768C43.3539 83.4887 43.3937 83.3006 43.4347 83.1069C43.5113 82.1872 43.2871 81.3803 42.9634 80.5203C42.8476 80.4046 42.7319 80.2888 42.6127 80.1696C42.6452 80.0032 42.6778 79.8368 42.7113 79.6654C42.7366 79.4846 42.7619 79.3037 42.788 79.1174C42.7041 79.0229 42.6203 78.9284 42.5339 78.8311C42.117 78.1947 42.1855 77.5816 42.1962 76.8377C42.1941 76.6962 42.1921 76.5547 42.19 76.4089C42.1939 75.6183 42.2222 75.1567 42.788 74.558C42.788 74.4423 42.788 74.3266 42.788 74.2073C42.6723 74.2073 42.5565 74.2073 42.4373 74.2073C42.1459 73.6245 42.1798 73.0664 42.3736 72.4482C42.4644 72.2109 42.5583 71.9746 42.6558 71.7399C42.7904 71.3955 42.88 71.0601 42.9634 70.7001C43.0877 70.1855 43.2299 69.6811 43.3908 69.1767C43.434 69.0385 43.4772 68.9004 43.5217 68.7581C43.6648 68.4204 43.6648 68.4204 44.0155 68.2451C44.6897 67.0774 44.7983 65.9247 44.8101 64.5974C44.9091 63.9219 45.1461 63.6627 45.5938 63.1596C45.7875 62.7959 45.7875 62.7959 45.9116 62.4362C45.9562 62.32 46.0007 62.2039 46.0466 62.0841C46.1577 61.7196 46.1577 61.7196 45.9445 61.2306C46.0458 61.1474 46.147 61.0643 46.2514 60.9785C46.6302 60.5471 46.7695 60.2635 46.9748 59.7401C47.2273 59.1252 47.3044 58.979 47.8844 58.6002C48.5393 58.1543 48.5735 57.823 48.779 57.0877C49.0939 56.1931 49.7376 55.4966 50.4162 54.8519C50.8336 54.4136 51.0754 54.0275 51.3697 53.5038C51.8185 52.7211 52.1938 52.3886 52.9589 51.9365C53.0457 51.7629 53.0457 51.7629 53.1343 51.5858C53.4052 51.0439 53.8531 50.8467 54.3618 50.5336C54.5463 50.4034 54.7307 50.2732 54.9208 50.1391C55.414 49.8322 55.414 49.8322 55.9401 49.8322C56.0052 49.6694 56.0052 49.6694 56.0716 49.5034C56.3444 49.0397 56.4795 48.9419 56.9922 48.78C57.4642 48.7529 57.9215 48.7642 58.3951 48.78C58.3987 48.6787 58.4024 48.5775 58.4061 48.4731C58.6253 47.947 58.9725 47.7674 59.4644 47.5059C59.9265 47.3275 60.3587 47.3771 60.8502 47.3771C61.1438 47.1451 61.4359 46.911 61.727 46.6757C62.8552 46.078 64.0278 45.5761 65.2513 45.2098C65.5974 45.1026 65.5974 45.1026 65.9486 44.9098C66.3713 44.7057 66.6998 44.721 67.1632 44.7467C67.221 44.5731 67.2789 44.3995 67.3385 44.2206C67.6639 44.1172 67.6639 44.1172 68.0728 44.0562C68.6471 43.9482 68.9168 43.8699 69.41 43.5302C70.113 43.0752 70.7859 42.9408 71.5985 42.7671C72.1071 42.661 72.1071 42.661 72.5993 42.2917C74.0298 41.8477 75.5819 41.8734 77.0658 41.8255C77.2285 41.82 77.3911 41.8144 77.5588 41.8087C77.7053 41.8045 77.8519 41.8004 78.003 41.796C78.6503 41.7446 79.2 41.5677 79.8658 41.5669ZM82.8908 53.8655C81.7887 54.2187 80.9137 54.4157 79.7891 54.0408C79.3559 54.0236 78.9289 54.016 78.4958 54.0189C78.3713 54.0194 78.2467 54.0199 78.1184 54.0203C76.5009 54.0346 74.9038 54.1838 73.3008 54.3916C73.1272 54.3916 72.9536 54.3916 72.7747 54.3916C72.659 54.5652 72.5432 54.7388 72.424 54.9176C71.8506 55.1354 71.2452 55.1341 70.6375 55.1697C69.6762 55.2401 68.7901 55.346 67.8646 55.6191C67.7489 55.7927 67.6331 55.9663 67.5139 56.1452C67.1631 56.3448 66.8038 56.5299 66.4398 56.7041C66.2476 56.797 66.0555 56.8899 65.8575 56.9857C65.7097 57.0555 65.5619 57.1254 65.4095 57.1973C65.4095 57.3709 65.4095 57.5445 65.4095 57.7234C65.2938 57.7234 65.1781 57.7234 65.0588 57.7234C64.0733 58.5816 64.0733 58.5816 63.6011 59.738C63.4806 60.1785 63.4806 60.1785 63.149 60.3942C63.0125 60.4496 62.876 60.505 62.7353 60.5621C61.85 61.0026 61.6347 61.4954 61.2571 62.3801C60.8255 63.1794 60.0692 63.6378 59.2719 64.0364C59.2285 64.2534 59.1851 64.4704 59.1404 64.694C58.9546 65.5409 58.5672 65.8304 57.869 66.3161C57.9269 66.4897 57.9848 66.6633 58.0444 66.8422C57.9223 67.0443 57.9223 67.0443 57.7978 67.2504C57.4782 67.7863 57.4502 68.1096 57.4306 68.7273C57.4091 69.3969 57.3133 69.9364 57.082 70.5597C56.7569 71.4831 56.72 72.3694 56.6963 73.3415C56.6903 73.51 56.6843 73.6785 56.6782 73.8521C56.6639 74.2628 56.6517 74.6734 56.6415 75.0841C56.4679 75.1709 56.4679 75.1709 56.2908 75.2595C56.2873 75.3875 56.2838 75.5155 56.2803 75.6474C56.2634 76.2379 56.2442 76.8282 56.225 77.4186C56.2196 77.6199 56.2142 77.8212 56.2086 78.0286C56.1702 79.1566 56.0729 80.2309 55.8419 81.3364C55.4555 83.3966 56.0702 85.6109 56.4661 87.6334C56.4953 87.7837 56.5244 87.9339 56.5543 88.0888C56.7013 88.8191 56.8783 89.4764 57.1676 90.1651C57.229 90.4561 57.2839 90.7485 57.332 91.0419C57.4622 91.736 57.6582 92.2001 58.0444 92.7956C58.095 92.9909 58.1457 93.1862 58.1978 93.3874C58.4408 94.1702 58.7467 94.6229 59.2719 95.2506C59.4455 95.2506 59.6191 95.2506 59.798 95.2506C59.8486 95.4134 59.8993 95.5761 59.9514 95.7438C60.129 96.3199 60.129 96.3199 60.4994 96.8288C60.6152 96.8288 60.7309 96.8288 60.8502 96.8288C60.878 96.9579 60.9058 97.087 60.9344 97.22C61.2488 98.5348 61.5844 99.2037 62.7463 99.9525C63.2341 100.287 63.5467 100.585 63.9409 101.016C64.6456 101.745 65.4021 102.126 66.3144 102.551C67.2665 103.01 67.9966 103.625 68.7414 104.369C69.4583 104.929 69.4583 104.929 70.3196 105.071C70.4026 105.154 70.4856 105.238 70.5711 105.324C70.9042 105.655 71.0973 105.69 71.5568 105.757C71.6935 105.778 71.8303 105.8 71.9712 105.822C72.1134 105.841 72.2556 105.861 72.4021 105.882C72.6829 105.924 72.9638 105.967 73.2446 106.009C73.3766 106.028 73.5086 106.048 73.6445 106.067C73.9337 106.112 74.2209 106.17 74.5071 106.231C75.0071 106.321 75.4332 106.208 75.9312 106.123C76.095 106.174 76.095 106.174 76.262 106.226C76.7628 106.324 77.0117 106.179 77.4656 105.959C77.6057 105.892 77.7459 105.825 77.8903 105.756C77.9961 105.704 78.1019 105.651 78.2109 105.597C78.1422 105.441 78.0734 105.286 78.0026 105.126C77.8602 104.545 77.8602 104.545 78.1013 104.095C78.1953 103.954 78.2894 103.813 78.3862 103.668C78.41 103.212 78.41 103.212 78.3862 102.791C78.7001 102.728 79.0144 102.666 79.3288 102.605C79.5038 102.57 79.6787 102.536 79.859 102.5C80.3152 102.44 80.3152 102.44 80.6659 102.616C82.1123 102.904 83.56 103.024 85.0294 103.099C85.576 103.142 85.576 103.142 86.1021 103.317C86.4708 103.344 86.8399 103.365 87.2091 103.383C88.0777 103.442 88.6789 103.562 89.434 104.019C89.6076 104.019 89.7812 104.019 89.96 104.019C89.96 104.134 89.96 104.25 89.96 104.369C90.6607 104.269 91.1154 104.036 91.7137 103.668C92.1192 103.547 92.1192 103.547 92.4151 103.493C92.4151 103.377 92.4151 103.261 92.4151 103.142C92.52 103.131 92.6249 103.12 92.7329 103.109C93.2675 102.91 93.3649 102.573 93.6426 102.09C93.8162 102.032 93.9898 101.974 94.1687 101.914C94.2881 101.795 94.2881 101.795 94.4098 101.673C95.0901 100.993 95.7377 100.801 96.6786 100.709C98.1682 100.505 99.1543 99.9068 100.131 98.7578C100.181 98.6222 100.232 98.4866 100.284 98.3468C100.741 97.2705 101.728 96.3051 102.707 95.678C104.057 94.7952 104.585 93.188 105.008 91.7105C105.281 90.8072 105.624 90.0067 106.063 89.1739C106.448 88.4033 106.795 87.5931 106.795 86.7237C106.795 86.3072 106.795 86.3072 107.069 85.7263C107.365 84.967 107.289 84.4499 107.145 83.6768C107.118 83.4322 107.092 83.1874 107.069 82.9425C106.993 82.2612 106.903 81.5825 106.806 80.9039C106.779 80.7147 106.752 80.5255 106.724 80.3306C106.648 79.8335 106.648 79.8335 106.44 79.4836C106.248 79.0731 106.228 78.8086 106.234 78.3584C106.235 78.2183 106.237 78.0781 106.238 77.9337C106.241 77.7891 106.244 77.6444 106.247 77.4953C106.248 77.3479 106.25 77.2006 106.251 77.0487C106.256 76.6861 106.262 76.3235 106.269 75.9609C106.153 75.9609 106.037 75.9609 105.918 75.9609C105.918 75.7295 105.918 75.498 105.918 75.2595C106.034 75.2595 106.149 75.2595 106.269 75.2595C106.193 74.7304 106.105 74.2416 105.929 73.736C105.765 73.2253 105.673 72.762 105.589 72.2345C105.379 71.0195 104.914 69.9636 104.405 68.8479C104.215 68.3729 104.099 67.9829 104 67.4888C103.618 65.6827 102.823 63.7736 101.271 62.6739C100.438 62.2336 99.6735 62.0008 98.7281 61.9321C98.4394 61.9 98.1508 61.8671 97.8622 61.8334C97.6248 61.8077 97.3873 61.782 97.1498 61.7567C97.11 61.594 97.0703 61.4312 97.0293 61.2635C96.8558 60.6809 96.8558 60.6809 96.3826 60.4634C95.7906 60.0969 95.6554 59.7104 95.3949 59.0811C95.2307 58.7138 95.2307 58.7138 94.6948 58.6002C94.6622 58.4483 94.6297 58.2964 94.5961 58.1399C94.252 57.3318 93.7196 57.0533 92.996 56.5863C92.5905 56.3205 92.5905 56.3205 92.2397 55.9698C91.9603 55.8866 91.6804 55.8047 91.3986 55.7301C90.5012 55.4723 89.5683 55.1768 88.7435 54.7361C88.2657 54.5126 87.7908 54.4222 87.2748 54.3148C86.6192 54.1709 86.0093 54.0298 85.4007 53.7449C84.4727 53.3389 83.8246 53.5434 82.8908 53.8655Z" fill="currentColor"/>
<path d="M126.237 27.2223C126.695 27.6378 126.902 28.0456 127.137 28.6135C127.137 28.7293 127.137 28.845 127.137 28.9643C127.252 28.9643 127.368 28.9643 127.487 28.9643C128.464 30.674 128.904 32.4348 129.011 34.3963C129.048 34.8056 129.048 34.8056 129.416 35.2772C129.497 36.275 129.432 36.7109 128.89 37.5569C128.764 38.2049 128.764 38.2049 128.715 38.7845C128.599 38.7845 128.483 38.7845 128.364 38.7845C128.364 39.0159 128.364 39.2474 128.364 39.4859C128.711 39.5727 128.711 39.5727 129.065 39.6613C128.959 41.7634 128.586 43.3541 126.992 44.8769C126.752 45.0729 126.507 45.2615 126.26 45.4482C126.173 45.7086 126.173 45.7086 126.084 45.9742C125.653 46.1765 125.237 46.3492 124.791 46.5113C123.825 46.8704 123.825 46.8704 122.928 47.3771C121.63 47.6594 120.131 47.7573 118.851 47.3881C118.088 46.8162 117.447 46.1359 116.79 45.4482C116.562 45.2312 116.562 45.2312 116.33 45.0098C115.835 44.489 115.407 43.9319 114.975 43.3589C114.592 42.8739 114.22 42.5106 113.719 42.1458C112.792 41.3368 112.396 39.9883 112.297 38.7845C112.289 38.6599 112.282 38.5353 112.274 38.407C112.214 37.9591 112.02 37.6968 111.705 37.3816C112.052 37.2948 112.052 37.2948 112.406 37.2062C112.349 37.1083 112.293 37.0105 112.234 36.9096C112.033 36.4549 112.003 36.1341 112.001 35.6389C111.998 35.4927 111.995 35.3464 111.992 35.1957C112.069 34.6534 112.296 34.3387 112.582 33.8744C112.677 33.5304 112.761 33.1828 112.834 32.8332C113.032 31.9919 113.258 31.3991 113.809 30.7179C113.884 30.6222 113.959 30.5266 114.037 30.4281C114.62 29.6986 114.62 29.6986 115.037 29.4903C115.184 29.1461 115.294 28.7958 115.409 28.4395C115.994 27.1017 117.971 26.4979 119.245 25.9831C119.455 25.8891 119.665 25.7951 119.881 25.6982C122.181 24.761 124.34 25.8571 126.237 27.2223Z" fill="currentColor"/>
</svg>
