<svg width="154" height="153" viewBox="0 0 154 153" fill="none" xmlns="http://www.w3.org/2000/svg">
<path d="M130.979 0.3605C131.328 0.545007 131.573 0.691095 131.828 0.992774C132.271 1.37645 132.793 1.45886 133.351 1.589C134.055 1.76269 134.744 1.93316 135.412 2.21927C136.138 2.47313 136.79 2.53438 137.553 2.57847C137.933 2.61452 137.933 2.61452 138.104 2.78544C138.436 2.79625 138.768 2.79557 139.1 2.79012C139.304 2.78802 139.508 2.78593 139.718 2.78377C140.149 2.7778 140.581 2.77113 141.012 2.76375C141.319 2.76094 141.319 2.76094 141.632 2.75807C141.82 2.75519 142.008 2.75231 142.201 2.74935C142.729 2.78614 143.09 2.92512 143.574 3.12729C143.805 3.01914 144.032 2.90498 144.257 2.78544C145.117 2.83502 145.692 3.30841 146.362 3.80029C146.472 3.87817 146.583 3.95606 146.696 4.03631C146.973 4.23641 147.24 4.45004 147.505 4.66558C147.505 4.77839 147.505 4.89119 147.505 5.00742C147.653 5.03915 147.801 5.07087 147.954 5.10356C148.689 5.41689 149.132 5.87009 149.556 6.54571C149.556 6.71492 149.556 6.88413 149.556 7.05847C149.709 7.12722 149.709 7.12722 149.866 7.19735C150.393 7.48352 150.681 7.73763 150.91 8.3002C150.953 8.44852 150.996 8.59684 151.04 8.74966C151.089 8.91303 151.139 9.07641 151.189 9.24473C151.289 9.587 151.389 9.92928 151.489 10.2716C151.768 11.1969 152.045 11.93 152.633 12.6989C153.017 13.2753 153.014 13.4567 153.002 14.129C153 14.3086 152.998 14.4881 152.996 14.6731C152.991 14.9544 152.991 14.9544 152.985 15.2413C152.979 15.6112 152.974 15.9811 152.97 16.351C152.967 16.5151 152.964 16.6792 152.96 16.8483C152.961 17.3094 152.961 17.3094 153.06 17.7356C153.16 18.2398 153.162 18.7041 153.156 19.2179C153.155 19.4149 153.153 19.6119 153.152 19.8148C153.15 20.0188 153.148 20.2229 153.145 20.4331C153.141 20.8399 153.137 21.2467 153.135 21.6535C153.132 21.9233 153.132 21.9233 153.129 22.1985C153.098 22.6038 153.098 22.6038 153.316 22.7832C153.334 23.2955 153.34 23.8038 153.339 24.3162C153.339 24.4716 153.339 24.6271 153.34 24.7872C153.34 25.1177 153.339 25.4482 153.339 25.7787C153.338 26.2802 153.339 26.7817 153.34 27.2833C153.34 27.6046 153.339 27.926 153.339 28.2474C153.339 28.3959 153.34 28.5445 153.34 28.6975C153.337 29.5281 153.289 30.3331 153.175 31.1562C153.129 31.6915 153.216 32.1707 153.316 32.6967C153.429 32.6967 153.542 32.6967 153.658 32.6967C153.53 33.6795 153.53 33.6795 153.145 34.064C153.095 34.634 153.074 35.1966 153.064 35.7682C153.034 36.5532 152.89 37.0044 152.462 37.6534C152.384 38.0338 152.384 38.0338 152.376 38.4118C152.32 39.1191 152.108 39.5856 151.778 40.2172C151.663 40.8061 151.663 40.8061 151.607 41.4136C151.505 42.201 151.364 42.9651 151.186 43.7378C151.089 44.1723 151.006 44.6083 150.923 45.0457C150.737 45.978 150.478 46.6398 149.898 47.3959C149.692 48.0121 149.63 48.6235 149.556 49.2653C149.407 50.5577 149.407 50.5577 149.282 51.046C149.184 51.3493 149.184 51.3493 149.332 51.733C149.385 52.1817 149.385 52.1817 149.061 52.6183C148.571 53.3181 148.542 54.0406 148.477 54.8737C148.455 55.0898 148.455 55.0898 148.433 55.3103C148.351 56.2227 148.382 57.0687 148.512 57.9756C148.539 58.4987 148.323 58.7785 148.018 59.1894C147.803 59.9716 147.797 60.7765 147.761 61.5823C147.726 62.4002 147.67 63.1721 147.505 63.9752C147.5 64.415 147.516 64.8511 147.532 65.2905C147.505 65.6844 147.505 65.6844 147.163 66.1972C147.116 66.5312 147.116 66.5312 147.131 66.8809C147.132 66.9972 147.133 67.1136 147.134 67.2334C147.153 67.6018 147.153 67.6018 147.334 68.0773C147.278 68.1338 147.221 68.1902 147.163 68.2483C147.151 68.8573 147.164 69.4646 147.174 70.0737C147.163 70.6412 147.163 70.6412 146.992 71.1539C147.049 71.2562 147.105 71.3584 147.163 71.4637C147.401 71.985 147.285 72.3099 147.163 72.8631C147.001 73.64 147.001 73.64 147.163 74.4014C147.198 74.814 147.226 75.2272 147.249 75.6406C147.285 76.2966 147.329 76.9327 147.434 77.5815C147.506 78.1687 147.472 78.6183 147.366 79.1979C147.337 79.3656 147.308 79.5332 147.277 79.706C147.163 80.2127 147.163 80.2127 146.985 80.6775C146.796 81.3245 146.798 81.8408 146.825 82.5135C146.83 82.6346 146.834 82.7556 146.838 82.8803C146.852 83.266 146.869 83.6515 146.885 84.0371C146.905 84.5405 146.924 85.0439 146.943 85.5474C146.947 85.6711 146.952 85.7948 146.957 85.9222C146.988 86.8095 147.006 87.6961 147.01 88.5839C147.011 88.9179 147.011 88.9179 147.013 89.2586C146.992 89.7843 146.992 89.7843 146.821 90.1262C146.804 90.4271 146.798 90.7287 146.796 91.0301C146.795 91.2189 146.794 91.4078 146.793 91.6023C146.793 91.8072 146.793 92.0122 146.793 92.2233C146.792 92.4332 146.791 92.6432 146.791 92.8595C146.79 93.3045 146.79 93.7495 146.79 94.1944C146.79 94.8753 146.786 95.5561 146.783 96.2369C146.782 96.6688 146.782 97.1007 146.782 97.5325C146.781 97.7364 146.779 97.9403 146.778 98.1504C146.779 98.3408 146.779 98.5313 146.78 98.7275C146.779 98.9782 146.779 98.9782 146.779 99.2339C146.824 99.7316 146.963 100.097 147.163 100.552C147.205 100.911 147.205 100.911 147.203 101.259C147.202 101.386 147.202 101.513 147.202 101.644C147.199 101.774 147.197 101.903 147.195 102.037C147.195 102.169 147.195 102.301 147.195 102.437C147.187 103.41 147.187 103.41 146.992 103.8C146.971 104.44 146.958 105.002 147.089 105.629C147.184 106.355 147.099 107.009 147.003 107.731C146.708 109.335 146.708 109.335 147.163 110.808C147.21 111.219 147.24 111.633 147.259 112.047C147.292 112.719 147.333 113.366 147.44 114.032C147.505 114.568 147.505 114.568 147.259 114.899C147.171 114.959 147.083 115.019 146.992 115.081C147.105 115.25 147.218 115.419 147.334 115.593C147.33 116.055 147.33 116.055 147.27 116.566C147.242 116.82 147.242 116.82 147.213 117.08C147.196 117.21 147.18 117.34 147.163 117.474C146.994 117.53 146.825 117.586 146.65 117.644C146.612 117.89 146.577 118.136 146.544 118.382C146.524 118.518 146.504 118.655 146.483 118.796C146.443 119.232 146.443 119.232 146.821 119.696C146.855 120.138 146.855 120.138 146.843 120.662C146.84 120.851 146.837 121.04 146.835 121.235C146.826 121.633 146.817 122.031 146.808 122.43C146.805 122.618 146.803 122.807 146.8 123.002C146.794 123.261 146.794 123.261 146.788 123.526C146.788 124.009 146.788 124.009 147.163 124.481C147.163 124.651 147.163 124.82 147.163 124.994C147.05 124.994 146.938 124.994 146.821 124.994C146.817 125.304 146.813 125.614 146.811 125.923C146.808 126.182 146.808 126.182 146.805 126.446C146.772 126.864 146.772 126.864 146.992 127.045C146.957 128.05 146.736 128.969 146.447 129.929C146.4 130.092 146.4 130.092 146.352 130.258C146.13 130.965 145.835 131.533 145.442 132.161C144.733 133.424 144.726 134.732 144.653 136.147C144.63 136.536 144.606 136.926 144.58 137.315C144.556 137.667 144.537 138.019 144.517 138.37C144.419 139.079 144.215 139.561 143.916 140.206C143.879 140.587 143.879 140.587 143.926 140.922C143.916 141.573 143.916 141.573 143.595 141.99C143.232 142.257 143.232 142.257 142.89 142.428C142.675 142.886 142.533 143.339 142.399 143.827C142.071 144.938 141.713 145.947 141.01 146.872C140.954 147.041 140.897 147.21 140.839 147.385C140.5 147.641 140.179 147.856 139.814 148.068C139.703 148.133 139.592 148.198 139.478 148.264C138.765 148.651 138.252 148.835 137.421 148.752C137.421 148.978 137.421 149.203 137.421 149.436C137.325 149.414 137.23 149.391 137.132 149.368C136.335 149.224 135.868 149.199 135.188 149.671C135.078 149.751 134.967 149.831 134.853 149.914C134.478 150.142 134.223 150.191 133.789 150.226C133.125 150.293 132.95 150.387 132.464 150.803C131.765 151.041 131.081 150.964 130.354 150.93C129.812 150.983 129.636 151.154 129.216 151.487C126.144 152.511 122.478 152.846 119.283 152.346C118.903 152.31 118.903 152.31 118.448 152.683C117.684 152.606 117.048 152.28 116.362 151.956C115.859 151.787 115.859 151.787 115.23 151.934C114.39 152.066 113.881 151.761 113.161 151.359C111.71 150.607 110.318 150.313 108.706 150.12C108.706 150.232 108.706 150.345 108.706 150.461C107.682 150.496 106.759 150.474 105.767 150.218C104.939 150.048 104.097 149.979 103.257 149.897C102.245 149.795 102.245 149.795 101.869 149.607C101.487 149.56 101.105 149.531 100.722 149.501C100.331 149.436 100.331 149.436 100.012 149.268C99.5101 149.029 99.0345 149.003 98.4827 148.944C97.4796 148.814 96.8971 148.606 96.0577 148.068C94.7115 147.564 93.4122 147.674 92.0197 147.908C91.2009 148.043 90.5525 148.074 89.7336 147.898C88.891 147.757 88.1836 147.754 87.3407 147.898C87.168 147.869 86.9953 147.841 86.8173 147.812C85.7096 147.671 84.6137 147.824 83.5071 147.942C82.2969 148.064 81.1002 148.094 79.8843 148.09C79.7019 148.09 79.5194 148.091 79.3315 148.092C78.516 148.091 77.72 148.074 76.9105 147.971C76.282 147.862 76.282 147.862 75.8866 147.988C75.5472 148.068 75.5472 148.068 74.9062 147.908C74.1406 147.72 73.3943 147.693 72.6095 147.695C72.4937 147.694 72.378 147.694 72.2588 147.694C71.7262 147.7 71.2247 147.735 70.6993 147.825C70.2486 147.898 70.2486 147.898 69.9068 147.727C69.4188 147.663 68.9326 147.606 68.4433 147.556C68.0413 147.513 67.6394 147.47 67.2375 147.427C66.9614 147.398 66.6852 147.371 66.4088 147.345C66.274 147.332 66.1392 147.319 66.0003 147.305C65.8795 147.294 65.7587 147.283 65.6343 147.271C65.2708 147.21 64.985 147.101 64.6509 146.947C64.1158 146.71 63.8144 146.603 63.2408 146.701C63.128 146.87 63.0152 147.04 62.899 147.214C62.6734 147.101 62.4478 146.988 62.2153 146.872C62.2153 146.759 62.2153 146.646 62.2153 146.53C62.1025 146.53 61.9897 146.53 61.8735 146.53C61.8735 146.643 61.8735 146.756 61.8735 146.872C61.5915 146.872 61.3094 146.872 61.0189 146.872C60.9625 147.098 60.9061 147.323 60.8479 147.556C60.5659 147.612 60.2839 147.669 59.9933 147.727C59.9933 147.614 59.9933 147.501 59.9933 147.385C59.8805 147.328 59.7677 147.272 59.6515 147.214C59.6515 147.327 59.6515 147.439 59.6515 147.556C59.5387 147.556 59.4259 147.556 59.3097 147.556C59.3097 147.443 59.3097 147.33 59.3097 147.214C59.0927 147.295 59.0927 147.295 58.8715 147.377C58.2636 147.562 57.7238 147.63 57.091 147.677C56.8614 147.696 56.6319 147.715 56.4023 147.735C56.0466 147.763 55.6908 147.791 55.3349 147.817C53.6426 147.941 53.6426 147.941 52.0261 148.438C51.0998 148.814 50.3503 148.757 49.3676 148.651C48.6568 148.575 47.9517 148.54 47.2377 148.515C47.1127 148.511 46.9876 148.506 46.8588 148.502C46.6046 148.493 46.3503 148.485 46.0961 148.477C45.8364 148.468 45.5767 148.458 45.3171 148.448C44.9354 148.433 44.5536 148.42 44.1718 148.408C43.948 148.4 43.7243 148.393 43.4937 148.384C42.9163 148.41 42.565 148.514 42.0466 148.752C41.6953 148.796 41.3424 148.828 40.989 148.848C40.2954 148.874 40.2954 148.874 39.6537 149.094C39.0259 149.117 38.543 149.123 37.9445 148.923C37.1856 148.908 36.4275 148.948 35.6691 148.976C35.4599 148.983 35.2507 148.989 35.0352 148.995C34.7313 149.006 34.7313 149.006 34.4213 149.017C34.2366 149.024 34.0519 149.03 33.8615 149.037C33.3021 149.097 32.8299 149.239 32.3041 149.436C32.2477 149.379 32.1913 149.323 32.1332 149.265C31.3197 149.355 30.528 149.515 29.7296 149.692C27.6826 150.145 27.6826 150.145 26.888 150.023C26.2992 149.882 26.2992 149.882 25.8091 150.29C25.3588 150.236 25.0182 150.151 24.6127 149.949C24.4441 150.027 24.4441 150.027 24.2721 150.106C23.5252 150.374 22.8147 150.34 22.0275 150.333C21.8726 150.334 21.7177 150.336 21.5581 150.337C21.335 150.337 21.335 150.337 21.1074 150.336C20.9723 150.335 20.8373 150.335 20.6981 150.335C20.3396 150.29 20.3396 150.29 19.8269 149.949C19.5405 149.997 19.2553 150.054 18.9723 150.12C18.8594 150.063 18.7466 150.007 18.6304 149.949C18.3286 149.928 18.0261 149.918 17.7237 149.913C17.5428 149.908 17.3619 149.903 17.1756 149.898C16.7937 149.889 16.4118 149.881 16.0299 149.875C15.8485 149.87 15.6672 149.865 15.4804 149.859C15.3143 149.856 15.1482 149.852 14.9771 149.849C14.4609 149.767 14.2464 149.586 13.8446 149.265C13.0061 149.187 12.4087 149.339 11.6226 149.607C10.9133 149.662 10.687 149.667 10.0844 149.265C9.77419 149.256 9.46385 149.249 9.15359 149.253C8.02601 149.258 7.27031 149.185 6.39886 148.4C6.13915 148.125 5.88587 147.843 5.6404 147.556C5.52847 147.436 5.41655 147.316 5.30123 147.192C5.00285 146.866 4.72247 146.531 4.44395 146.188C4.36507 146.1 4.2862 146.012 4.20493 145.921C3.43031 144.982 3.12057 143.78 2.90566 142.599C2.97376 142.098 2.97376 142.098 3.07658 141.744C2.97787 141.706 2.87917 141.667 2.77747 141.627C2.08458 141.223 1.76293 140.704 1.50491 139.953C1.45247 139.744 1.40003 139.535 1.346 139.319C1.16535 138.482 1.16535 138.482 0.683685 137.813C0.678969 137.49 0.678969 137.49 0.731089 137.099C0.757032 136.887 0.757032 136.887 0.7835 136.67C0.80344 136.522 0.823379 136.374 0.843923 136.221C1.04083 134.959 1.04083 134.959 0.854606 133.711C0.798202 133.655 0.741798 133.598 0.683685 133.54C0.666823 133.304 0.66133 133.068 0.660984 132.831C0.660764 132.687 0.660544 132.544 0.660317 132.396C0.660978 132.245 0.661639 132.093 0.66232 131.938C0.661659 131.788 0.660998 131.638 0.660317 131.484C0.660537 131.34 0.660757 131.196 0.660984 131.047C0.661177 130.915 0.66137 130.783 0.661569 130.646C0.683685 130.293 0.683685 130.293 0.854606 129.78C0.952776 129.046 1.02352 128.309 1.09597 127.571C1.13183 127.211 1.1701 126.85 1.20847 126.49C1.34893 125.11 1.44959 123.774 1.10669 122.417C0.991371 121.95 0.978344 121.489 0.950749 121.009C0.892628 120.179 0.745281 119.469 0.512764 118.67C0.26854 116.766 0.26854 116.766 0.512764 116.277C0.548792 115.929 0.584096 115.58 0.614457 115.231C0.85001 112.587 0.85001 112.587 1.53829 111.662C1.82257 111.49 2.10735 111.319 2.3929 111.149C2.68414 110.14 2.50489 109.3 2.03073 108.389C1.87986 108.126 1.72794 107.863 1.5751 107.601C0.265299 105.336 0.265299 105.336 0.540805 103.911C0.732586 103.303 0.940599 102.713 1.20713 102.134C1.54099 101.331 1.5535 100.592 1.53829 99.7298C1.53119 99.0499 1.53352 98.4031 1.64512 97.7322C1.75181 97.145 1.75181 97.145 1.54029 96.6599C1.34142 96.0257 1.35017 95.5515 1.39942 94.8906C1.41242 94.6857 1.42542 94.4808 1.43881 94.2697C1.54205 93.6946 1.6842 93.4693 2.05105 93.0318C2.094 92.5759 2.094 92.5759 2.05105 92.1772C1.93825 92.1208 1.82544 92.0644 1.70921 92.0063C1.44623 90.9592 1.34637 89.8894 1.37805 88.8122C1.39799 87.9223 1.27349 87.1081 1.11099 86.2377C0.459921 82.7113 0.459921 82.7113 1.02553 81.5801C1.03252 81.0741 1.02482 80.5788 1.00416 80.0739C1.0024 79.9358 1.00064 79.7978 0.998821 79.6556C0.966566 78.8982 0.942608 78.6009 0.41662 78.0188C0.279136 77.8968 0.141651 77.7747 0 77.6489C0.0164404 77.1475 0.066081 76.7622 0.170921 76.2816C0.201748 76.0468 0.230288 75.8118 0.256382 75.5765C0.304372 75.2046 0.357655 74.833 0.429306 74.4649C0.496957 73.9978 0.530085 73.5647 0.542808 73.0948C0.548922 72.8788 0.548922 72.8788 0.55516 72.6585C0.562454 72.3625 0.567823 72.0665 0.571184 71.7705C0.613619 70.4748 1.01231 69.5196 1.67716 68.4192C2.02139 67.5496 1.83973 66.729 1.52761 65.8661C1.29514 65.1067 1.22641 64.4187 1.36737 63.6334C1.59595 63.2083 1.84896 62.8469 2.15187 62.4717C2.63543 61.7162 2.59604 60.7594 2.64928 59.8838C2.66338 59.6604 2.67748 59.437 2.69201 59.2068C2.70631 58.9731 2.72056 58.7394 2.73474 58.5058C2.76262 58.0464 2.79121 57.587 2.8202 57.1277C2.83254 56.9248 2.84488 56.7219 2.85759 56.5128C2.90566 55.9419 2.90566 55.9419 3.00714 55.4192C3.08426 54.8608 3.00869 54.443 2.90566 53.8909C2.89036 53.4959 2.88334 53.1004 2.88296 52.7051C2.88274 52.4817 2.88252 52.2583 2.88229 52.0281C2.88283 51.8553 2.88283 51.8553 2.88338 51.6791C2.88429 51.3281 2.88338 50.9771 2.88229 50.626C2.88251 50.4026 2.88273 50.1792 2.88296 49.949C2.88315 49.7461 2.88335 49.5432 2.88354 49.3341C2.90566 48.7632 2.90566 48.7632 3.00322 48.2084C3.11556 47.724 3.11556 47.724 2.90566 47.225C2.83969 46.3838 2.95235 45.7909 3.28957 45.035C3.63471 44.0336 3.62839 42.9437 3.67481 41.8944C3.73466 40.6489 3.8147 39.4078 3.93119 38.1661C4.044 38.1661 4.1568 38.1661 4.27303 38.1661C4.26245 37.9581 4.25188 37.7502 4.24098 37.5359C4.23862 36.8693 4.37635 36.4846 4.78579 35.9442C4.8422 35.8878 4.8986 35.8314 4.95671 35.7732C4.95319 35.5617 4.94966 35.3502 4.94603 35.1323C4.93228 33.7017 5.07191 32.3894 5.81132 31.1584C6.26021 29.5279 6.13095 28.4072 5.46948 26.8853C5.20469 25.8438 5.39189 25.2778 5.81132 24.3215C5.92413 24.3215 6.03694 24.3215 6.15316 24.3215C6.17079 24.2017 6.18842 24.0818 6.20658 23.9583C6.34248 23.39 6.56336 22.9591 6.83685 22.4414C6.89678 22.3162 6.95671 22.1911 7.01845 22.0622C7.68779 20.6706 8.42153 19.3414 9.48946 18.2178C10.1545 17.4675 10.4085 16.7364 10.6505 15.7755C10.6925 15.6197 10.7346 15.464 10.7778 15.3035C11.0886 14.1044 11.2792 12.9146 11.3963 11.6827C11.4517 11.1606 11.4517 11.1606 11.6226 10.6478C11.6658 10.3666 11.7085 10.0853 11.7508 9.8039C11.8711 9.1802 11.9078 8.99237 12.3811 8.54335C12.5256 8.44817 12.6702 8.35299 12.8191 8.25492C12.9037 8.11039 12.9883 7.96585 13.0755 7.81694C13.4473 7.2127 13.9365 6.99864 14.571 6.71663C14.9302 6.55549 14.9302 6.55549 15.0411 6.03295C15.3223 5.7445 15.6073 5.45967 15.8957 5.17834C16.0649 4.92452 16.0649 4.92452 16.2375 4.66558C16.373 4.61644 16.5085 4.56731 16.6481 4.51669C17.2171 4.26943 17.3772 3.98061 17.701 3.45845C18.211 2.63758 18.211 2.63758 18.6458 2.50836C18.7535 2.48699 18.8612 2.46562 18.9723 2.4436C19.0851 2.27439 19.1979 2.10518 19.3141 1.93084C19.7975 1.74923 19.7975 1.74923 20.3824 1.589C20.9726 1.42579 21.4756 1.28251 22.0054 0.972745C22.8084 0.628623 23.5455 0.665478 24.4097 0.680977C24.6689 0.683497 24.6689 0.683497 24.9333 0.686068C26.0175 0.704383 27.0923 0.762552 28.1699 0.883946C28.2903 0.897317 28.4107 0.910688 28.5347 0.924464C29.354 1.03176 29.354 1.03176 29.7403 1.41807C30.275 1.45971 30.275 1.45971 30.8726 1.43944C31.0758 1.43636 31.2789 1.43327 31.4882 1.43009C31.7229 1.42414 31.7229 1.42414 31.9623 1.41807C31.9623 1.30527 31.9623 1.19246 31.9623 1.07623C32.233 1.09587 32.5036 1.11765 32.7741 1.14033C32.9248 1.15223 33.0755 1.16412 33.2308 1.17638C33.6715 1.24715 33.6715 1.24715 33.997 1.41106C34.3537 1.58828 34.6701 1.68389 35.0575 1.77193C35.1864 1.80168 35.3153 1.83142 35.4481 1.86207C35.581 1.89181 35.7138 1.92156 35.8507 1.9522C35.9862 1.98327 36.1217 2.01434 36.2613 2.04634C36.5943 2.12257 36.9275 2.19773 37.2608 2.27268C37.3172 2.10347 37.3736 1.93426 37.4317 1.75992C39.4938 1.76418 41.2377 1.94433 43.1569 2.72135C43.6511 2.91528 44.0885 3.04683 44.6104 3.12729C44.6104 2.95807 44.6104 2.78886 44.6104 2.61452C45.2215 2.72986 45.8168 2.8752 46.4158 3.04183C46.7255 3.12773 47.0352 3.21322 47.3452 3.29821C47.521 3.34778 47.521 3.34778 47.7004 3.39836C49.7772 3.8458 52.3605 3.36845 54.4384 3.04183C54.5805 3.0195 54.7226 2.99718 54.869 2.97418C55.5195 2.91684 55.5195 2.91684 56.0621 2.61452C56.2842 2.6392 56.5063 2.66388 56.7352 2.6893C58.8947 2.92719 61.0825 2.79692 63.2408 2.61452C63.5436 2.59602 63.5436 2.59602 63.8524 2.57713C64.1472 2.55863 64.1472 2.55863 64.448 2.53974C64.6227 2.52939 64.7974 2.51903 64.9774 2.50836C65.4595 2.46786 65.4595 2.46786 65.854 2.26605C66.409 2.06928 66.7952 2.09176 67.3803 2.14315C67.6827 2.16794 67.6827 2.16794 67.9912 2.19323C68.3049 2.22198 68.3049 2.22198 68.6249 2.25132C69.0397 2.28672 69.4545 2.32189 69.8694 2.35681C70.0528 2.3733 70.2362 2.3898 70.4252 2.4068C70.926 2.44939 70.926 2.44939 71.4045 2.4431C71.7869 2.4436 71.7869 2.4436 72.1321 2.53841C72.558 2.63418 72.8494 2.5669 73.2718 2.46497C73.4064 2.43368 73.541 2.40239 73.6797 2.37016C74.007 2.3017 74.007 2.3017 74.1798 2.10176C74.4702 2.07468 74.7617 2.05881 75.0531 2.04768C75.234 2.04046 75.415 2.03325 75.6014 2.02581C75.795 2.01915 75.9886 2.01248 76.1881 2.00562C76.3839 1.99873 76.5798 1.99185 76.7815 1.98475C77.1679 1.97168 77.5543 1.95912 77.9407 1.94711C78.3448 1.93427 78.7486 1.91889 79.1525 1.90213C80.3006 1.87229 81.2987 2.03687 82.4054 2.34813C83.1093 2.48489 83.5949 2.32483 84.2641 2.10176C85.7681 2.03527 87.4341 1.96195 88.879 2.4436C88.9354 2.3872 88.9918 2.33079 89.0499 2.27268C89.659 2.26723 90.2664 2.28443 90.8753 2.30005C91.4666 2.32026 91.4666 2.32026 91.9556 1.93084C92.87 1.82924 93.5039 1.97816 94.3699 2.28336C95.6112 2.69426 96.6578 2.5881 97.9378 2.4436C98.2084 2.4387 98.4792 2.43773 98.7497 2.4436C99.2861 2.48501 99.2861 2.48501 99.6471 2.27268C99.9176 2.2649 100.188 2.26612 100.459 2.27268C101.125 2.2803 101.725 2.21355 102.382 2.10176C102.628 2.10645 102.873 2.11381 103.119 2.12312C103.856 2.13556 104.428 1.95815 105.114 1.70383C105.529 1.56562 105.879 1.53479 106.313 1.589C106.369 1.6454 106.426 1.7018 106.484 1.75992C107.002 1.78346 107.461 1.77015 107.969 1.66377C108.364 1.589 108.364 1.589 108.877 1.75992C109.217 1.75992 109.557 1.75971 109.896 1.74923C110.266 1.7606 110.569 1.84095 110.928 1.93084C112.376 2.1188 113.641 2.16301 115.051 1.72386C116.332 1.37268 117.653 1.3824 118.972 1.3433C121.576 1.44207 121.576 1.44207 123.918 0.73439C124.233 0.738374 124.547 0.743408 124.862 0.754086C126.174 0.795519 127.195 0.679293 128.435 0.205602C129.353 -0.117777 130.095 -0.0549133 130.979 0.3605ZM59.6515 12.357C59.3326 12.3877 59.3326 12.3877 58.9398 12.3724C58.7921 12.3686 58.6445 12.3649 58.4924 12.361C58.332 12.3562 58.1716 12.3513 58.0064 12.3463C55.8546 12.3106 53.5372 12.3967 51.4474 12.9623C51.0461 13.0543 50.6831 13.06 50.2715 13.0574C50.1141 13.0569 49.9567 13.0563 49.7945 13.0557C49.5498 13.0536 49.5498 13.0536 49.3001 13.0514C49.1363 13.0506 48.9725 13.0499 48.8037 13.0491C48.5001 13.0476 48.1965 13.0457 47.8929 13.0434C46.9626 13.0367 46.0498 13.1111 45.1232 13.1903C44.9505 13.2037 44.7777 13.2172 44.5997 13.231C44.4341 13.2453 44.2684 13.2596 44.0977 13.2744C43.9461 13.2869 43.7945 13.2995 43.6383 13.3124C43.1976 13.3634 43.1976 13.3634 42.7303 13.7244C42.3137 13.7458 42.3137 13.7458 41.8757 13.7244C41.6501 13.7244 41.4245 13.7244 41.192 13.7244C41.192 13.8936 41.192 14.0628 41.192 14.2372C40.9981 14.2336 40.8042 14.2301 40.6045 14.2265C40.027 14.1661 40.0271 14.1661 39.8246 14.4081C39.5399 14.4158 39.2548 14.4147 38.97 14.4081C38.7444 14.4081 38.5188 14.4081 38.2863 14.4081C38.0015 14.4081 37.7166 14.4081 37.4317 14.4081C37.3753 14.5209 37.3189 14.6337 37.2608 14.7499C37.0528 14.7676 36.8448 14.7852 36.6305 14.8033C36.0628 14.857 35.778 14.9606 35.3593 15.3482C34.8177 15.8192 34.5491 15.9157 33.8424 15.9464C33.6145 15.8894 33.3866 15.8324 33.1587 15.7755C33.0459 15.8883 32.9331 16.0011 32.8169 16.1173C32.9015 16.2865 32.9015 16.2865 32.9878 16.4591C32.8574 16.4274 32.7269 16.3957 32.5925 16.363C32.1179 16.2492 32.1179 16.2492 31.6204 16.4591C31.6204 16.5719 31.6204 16.6848 31.6204 16.801C31.4248 16.7851 31.4248 16.7851 31.2252 16.7689C30.1626 16.823 29.0921 17.0622 28.202 17.6556C28.0398 17.7085 27.8777 17.7613 27.7106 17.8158C27.1829 17.9728 27.1829 17.9728 26.7812 18.2431C26.2506 18.5516 25.7279 18.7102 25.1401 18.8787C24.7703 19.0008 24.7703 19.0008 24.5192 19.2914C24.155 19.6496 23.7773 19.5887 23.2893 19.6319C22.4406 19.7963 21.6868 20.3133 21.01 20.835C20.6815 21.074 20.6815 21.074 20.1687 21.2449C19.2372 22.2692 18.5079 23.3023 18.2091 24.67C18.1176 25.0052 18.1176 25.0052 17.7758 25.347C17.3113 26.2972 17.0253 27.2916 16.7276 28.3048C16.5794 28.7655 16.5794 28.7655 16.4084 28.9364C16.3494 29.3349 16.2926 29.7338 16.2375 30.1328C16.1811 30.302 16.1247 30.4713 16.0666 30.6456C16.1456 31.0006 16.1456 31.0006 16.2909 31.372C16.339 31.5082 16.387 31.6443 16.4365 31.7846C16.5072 31.9823 16.5072 31.9823 16.5794 32.1839C16.9081 33.1875 17.1441 34.2365 16.7503 35.2605C16.6375 35.3169 16.5247 35.3733 16.4084 35.4314C16.2878 36.071 16.2375 36.66 16.2375 37.3115C16.2025 37.6606 16.1668 38.0095 16.1307 38.3584C16.0464 39.3806 16.1391 40.2565 16.4084 41.2427C16.2392 41.2991 16.07 41.3555 15.8957 41.4136C15.6846 41.9045 15.6846 41.9045 15.8089 42.3377C15.9022 42.8146 15.8629 43.0832 15.7461 43.5502C15.5873 44.2526 15.5176 44.9249 15.4791 45.6439C15.4256 46.4752 15.2788 47.0055 14.8701 47.7377C14.787 48.1926 14.7461 48.6445 14.6992 49.1051C14.6428 49.1615 14.5864 49.2179 14.5283 49.276C14.578 49.6236 14.6283 49.9711 14.6892 50.3169C14.6942 50.4785 14.6942 50.4785 14.6992 50.6434C14.53 50.8126 14.53 50.8126 14.3574 50.9852C14.164 51.6784 14.1529 52.3685 14.1324 53.085C14.1288 53.2041 14.1253 53.3233 14.1216 53.446C14.1142 53.6978 14.1072 53.9496 14.1005 54.2015C14.0905 54.5799 14.0793 54.9583 14.0679 55.3367C14.0274 56.7351 14.0063 58.1322 14.0155 59.5313C14.0155 59.7005 14.0155 59.8697 14.0155 60.044C14.1054 60.2344 14.1054 60.2344 14.1971 60.4286C14.366 60.924 14.3299 61.1984 14.2385 61.7032C14.1671 62.2406 14.1539 62.7709 14.1437 63.3129C14.1393 63.5143 14.1349 63.7157 14.1304 63.9232C14.1914 64.5381 14.3528 64.8402 14.6992 65.3426C14.8167 65.7379 14.8167 65.7379 14.8701 66.0263C14.7573 66.0263 14.6445 66.0263 14.5283 66.0263C14.5237 66.272 14.5204 66.5177 14.5176 66.7634C14.5156 66.9002 14.5137 67.037 14.5116 67.178C14.5118 67.5934 14.5118 67.5934 14.6992 68.0773C14.6428 68.1902 14.5864 68.303 14.5283 68.4192C14.5118 68.7251 14.5061 69.0316 14.5069 69.3379C14.5065 69.5014 14.5061 69.6649 14.5056 69.8333C14.5257 70.2453 14.5996 70.5861 14.6992 70.983C14.6428 71.0394 14.5864 71.0958 14.5283 71.1539C14.0658 73.1119 13.9707 75.019 14.6037 76.9405C14.6992 77.3071 14.6992 77.3071 14.5283 77.6489C14.6411 77.6489 14.7539 77.6489 14.8701 77.6489C14.8137 77.7617 14.7573 77.8745 14.6992 77.9908C14.4793 78.6506 14.5048 79.1772 14.5283 79.8709C14.6975 79.9273 14.8667 79.9837 15.0411 80.0418C15.0975 80.3239 15.1539 80.6059 15.212 80.8964C15.3248 80.8964 15.4376 80.8964 15.5538 80.8964C15.0624 81.9006 15.0624 81.9006 14.8701 82.0929C14.8533 82.3417 14.848 82.5913 14.8488 82.8407C14.8483 82.9759 14.8479 83.1112 14.8474 83.2506C14.8554 83.6608 14.8554 83.6608 15.0411 84.1439C15.0576 84.5981 15.0649 85.0466 15.0624 85.5006C15.0631 85.623 15.0638 85.7454 15.0644 85.8715C15.0635 86.3503 15.0615 86.798 14.9436 87.2639C14.8448 87.5634 14.8448 87.5634 14.9488 87.8648C15.0566 88.3101 15.0686 88.7173 15.0771 89.1754C15.082 89.3568 15.0868 89.5381 15.0918 89.7249C15.1006 90.101 15.1082 90.4771 15.1145 90.8533C15.1473 91.9904 15.2936 93.0131 15.6028 94.1088C15.885 95.1761 16.0468 96.1189 15.5538 97.1339C15.5538 97.282 15.5538 97.4301 15.5538 97.5826C15.5538 97.9885 15.5538 97.9885 15.212 98.5013C15.2684 98.6141 15.3248 98.7269 15.3829 98.8432C15.4236 99.4089 15.4483 99.9744 15.4724 100.541C15.5575 101.089 15.6313 101.253 16.0666 101.578C16.1794 101.521 16.2922 101.465 16.4084 101.407C16.2517 105.666 16.2517 105.666 15.5538 106.364C15.5032 106.609 15.4619 106.856 15.425 107.104C15.3911 107.33 15.3911 107.33 15.3565 107.56C15.3335 107.719 15.3105 107.878 15.2868 108.041C15.2512 108.276 15.2512 108.276 15.215 108.515C15.0075 109.739 15.0075 109.739 15.2053 110.947C15.3983 111.539 15.4527 112.057 15.4897 112.677C15.5025 112.876 15.5153 113.075 15.5285 113.28C15.5537 113.881 15.5581 114.479 15.5538 115.081C15.5073 115.734 15.5073 115.734 15.7354 116.17C15.9714 116.831 15.8114 117.35 15.6179 118.008C15.5276 118.335 15.5276 118.335 15.65 118.681C15.6746 118.79 15.6993 118.899 15.7247 119.012C15.6119 119.181 15.4991 119.35 15.3829 119.525C15.348 119.982 15.348 119.982 15.3722 120.475C15.3996 121.371 15.3996 121.371 15.212 121.747C15.188 122.019 15.1734 122.293 15.1639 122.566C15.1575 122.73 15.1511 122.894 15.1446 123.063C15.1386 123.235 15.1327 123.407 15.1265 123.584C15.0547 125.628 15.0547 125.628 14.8701 126.532C14.983 126.532 15.0958 126.532 15.212 126.532C15.2795 127.059 15.3423 127.586 15.4043 128.113C15.433 128.337 15.433 128.337 15.4624 128.565C15.4789 128.71 15.4954 128.854 15.5124 129.003C15.5366 129.201 15.5366 129.201 15.5613 129.404C15.5526 129.842 15.4179 130.083 15.212 130.464C15.256 130.81 15.256 130.81 15.3829 131.147C15.4974 131.562 15.5674 131.946 15.6179 132.376C15.8327 133.686 16.0852 134.607 17.1502 135.461C17.8326 135.913 18.5496 136.293 19.2812 136.659C19.8333 136.937 20.2556 137.199 20.6815 137.642C21.5831 138.067 22.4282 138.218 23.4162 138.155C23.4162 138.324 23.4162 138.493 23.4162 138.668C23.7783 138.627 24.1404 138.586 24.5025 138.545C24.8017 138.513 25.1013 138.485 25.4012 138.459C25.5464 138.447 25.6916 138.435 25.8411 138.422C25.974 138.412 26.1069 138.401 26.2437 138.391C26.6788 138.338 26.6788 138.338 27.1287 138.155C27.7329 137.971 28.243 137.93 28.8737 137.913C29.2042 137.903 29.2042 137.903 29.5413 137.893C29.7714 137.888 30.0016 137.883 30.2317 137.877C30.4658 137.871 30.6999 137.864 30.9341 137.857C31.5047 137.841 32.0753 137.827 32.6459 137.813C32.6459 137.926 32.6459 138.039 32.6459 138.155C33.2253 138.088 33.6198 138.016 34.1201 137.706C34.5261 137.471 34.5261 137.471 34.8466 137.525C34.9664 137.564 35.0863 137.602 35.2098 137.642C35.3966 137.642 35.5834 137.642 35.7759 137.642C36.4023 137.642 36.9854 137.712 37.6027 137.813C37.6027 137.7 37.6027 137.588 37.6027 137.471C37.7197 137.528 37.8367 137.585 37.9572 137.644C39.8445 138.284 42.4386 137.398 44.2686 136.788C44.5198 136.755 44.772 136.73 45.0244 136.708C45.1716 136.695 45.3187 136.682 45.4704 136.668C45.7775 136.641 46.0846 136.615 46.3918 136.589C47.2643 136.509 48.0401 136.351 48.8835 136.104C49.3837 136.023 49.8856 135.972 50.3897 135.922C50.5167 135.909 50.6437 135.896 50.7746 135.882C51.0371 135.855 51.2996 135.828 51.5622 135.803C51.8176 135.777 52.0728 135.748 52.3275 135.716C53.2743 135.603 54.2132 135.574 55.1655 135.561C55.3008 135.559 55.436 135.557 55.5754 135.555C56.14 135.547 56.7046 135.539 57.2692 135.536C59.4979 135.557 59.4979 135.557 61.5316 134.737C61.7056 134.63 61.7056 134.63 61.8831 134.522C62.6662 134.013 62.8432 133.453 63.0486 132.557C63.1128 132.201 63.1769 131.845 63.2408 131.489C63.2972 131.376 63.3536 131.263 63.4118 131.147C63.4282 130.868 63.4341 130.589 63.4345 130.309C63.4348 130.06 63.4348 130.06 63.4351 129.806C63.4345 129.631 63.4338 129.457 63.4331 129.278C63.4338 129.104 63.4345 128.931 63.4351 128.752C63.4349 128.586 63.4347 128.419 63.4345 128.248C63.4343 128.095 63.4341 127.942 63.4339 127.785C63.4278 127.36 63.4278 127.36 63.2408 126.874C63.1223 125.693 63.3408 124.641 63.6294 123.5C63.7809 122.821 63.8373 122.157 63.8718 121.463C63.9281 121.036 64.0681 120.757 64.2664 120.379C64.2224 120.032 64.2224 120.032 64.0954 119.696C63.862 118.892 63.8931 118.102 63.8925 117.271C63.8904 117.115 63.8883 116.96 63.8861 116.8C63.8837 115.68 63.9326 114.544 64.4467 113.528C64.6635 113.088 64.6475 112.737 64.6403 112.25C64.6392 112.087 64.6381 111.925 64.6369 111.758C64.6254 111.3 64.6254 111.3 64.4373 110.808C64.4435 110.444 64.4629 110.081 64.4907 109.718C64.5041 109.526 64.5176 109.335 64.5314 109.137C64.6082 108.586 64.6082 108.586 64.7722 108.177C65.3592 106.706 65.3542 105.094 65.356 103.533C65.3602 103.336 65.3644 103.138 65.3687 102.935C65.3732 101.594 65.2539 100.284 64.3501 99.224C64.1065 98.9778 64.1065 98.9778 63.7536 99.0141C63.7536 98.9013 63.7536 98.7885 63.7536 98.6722C63.5315 98.6476 63.3094 98.6229 63.0806 98.5975C62.4076 98.5227 62.4076 98.5227 62.2153 98.3304C61.8599 98.2942 61.5036 98.2673 61.1471 98.2449C60.0634 98.1763 60.0634 98.1763 59.526 98.0473C59.0915 97.9369 59.0915 97.9369 58.626 98.3304C58.2146 98.334 57.8156 98.2975 57.4062 98.259C56.8886 98.3345 56.7051 98.4507 56.2838 98.741C55.4951 99.2659 54.7583 99.3791 53.8295 99.4841C53.6826 99.5033 53.5358 99.5224 53.3845 99.5422C53.0985 99.5793 52.8124 99.6149 52.526 99.6488C52.1698 99.693 51.815 99.7484 51.4606 99.8053C50.7468 99.8913 50.478 99.7985 49.909 99.3559C49.6998 98.9287 49.541 98.4983 49.3842 98.0493C49.1919 97.5622 48.9206 97.3183 48.5416 96.963C47.6356 95.5241 47.482 93.8864 47.5268 92.2093C47.5449 91.439 47.4023 90.8562 47.1288 90.1402C46.9475 89.6262 46.8899 89.1286 46.8324 88.5879C46.7196 88.5879 46.6068 88.5879 46.4906 88.5879C46.5159 88.3654 46.5412 88.1428 46.5673 87.9136C46.6276 87.3736 46.6819 86.8338 46.7289 86.2925C46.8654 84.7975 47.0741 83.4792 47.687 82.0929C47.7399 81.9389 47.7928 81.7849 47.8473 81.6262C47.9072 81.4982 47.9671 81.3702 48.0289 81.2383C48.1981 81.1819 48.3673 81.1255 48.5416 81.0674C48.6637 79.6964 48.7374 78.3418 48.7125 76.9652C48.8818 76.9088 49.051 76.8524 49.2253 76.7943C49.3205 76.5352 49.3205 76.5352 49.4176 76.2709C49.7805 75.359 50.4768 74.7717 51.2764 74.2305C51.8369 73.9969 52.3907 73.837 52.9856 73.7177C52.9856 73.5485 52.9856 73.3793 52.9856 73.205C53.1305 73.2321 53.2755 73.2592 53.4249 73.2871C56.2536 73.7156 58.6265 73.2021 60.9788 71.628C62.0845 71.0217 63.319 70.9684 64.5601 70.9984C65.274 70.9788 65.575 70.7093 66.1465 70.2993C66.4293 70.2329 66.7142 70.1743 67.0011 70.1284C67.2029 69.33 67.403 68.5313 67.6008 67.7319C67.6702 67.4522 67.7411 67.1729 67.8123 66.8936C68.0035 66.2057 68.0035 66.2057 67.9165 65.5162C67.8557 65.1717 67.8557 65.1717 68.0861 64.8359C68.1793 64.7211 68.2725 64.6063 68.3685 64.488C68.5138 64.1122 68.5138 64.1122 68.6142 63.7082C68.7901 63.0759 68.9949 62.4713 69.2338 61.8601C69.5486 61.0154 69.7124 60.1879 69.8393 59.2969C69.8975 58.9096 69.9751 58.5414 70.0777 58.1639C70.1905 58.1639 70.3033 58.1639 70.4195 58.1639C70.4195 58.0511 70.4195 57.9383 70.4195 57.8221C70.3067 57.8221 70.1939 57.8221 70.0777 57.8221C70.1937 57.6049 70.1937 57.6049 70.312 57.3834C70.5906 56.7962 70.7721 56.2371 70.943 55.6108C71.0253 55.3123 71.0253 55.3123 71.1092 55.0079C71.1636 54.8085 71.2181 54.6091 71.2741 54.4036C71.3683 54.0857 71.3683 54.0857 71.4644 53.7614C71.602 53.2582 71.6473 52.8695 71.616 52.3526C71.7852 52.2962 71.9544 52.2398 72.1287 52.1817C72.2903 51.8679 72.2903 51.8679 72.3958 51.498C72.514 51.1241 72.514 51.1241 72.6415 50.8143C72.7543 50.7579 72.8671 50.7015 72.9833 50.6434C73.1513 50.3504 73.1513 50.3504 73.3038 50.0024C73.5186 49.5473 73.6801 49.2622 74.0302 48.8914C74.5488 48.1309 74.5758 47.2686 74.6926 46.3704C74.7483 46.0283 74.8049 45.6864 74.8635 45.3448C74.9763 45.3448 75.0891 45.3448 75.2053 45.3448C75.2053 45.1192 75.2053 44.8936 75.2053 44.6611C75.3181 44.6611 75.4309 44.6611 75.5472 44.6611C75.5472 44.3227 75.5472 43.9843 75.5472 43.6356C75.7728 43.7484 75.9984 43.8612 76.2309 43.9775C76.2811 43.8066 76.2811 43.8066 76.3323 43.6323C76.8278 42.1052 77.6028 40.7154 78.8801 39.7044C79.0211 39.5916 79.1622 39.4788 79.3074 39.3626C79.3074 39.1934 79.3074 39.0242 79.3074 38.8498C79.4061 38.8392 79.5048 38.8287 79.6065 38.8178C80.1491 38.6218 80.3549 38.2927 80.6748 37.8243C80.6748 37.7115 80.6748 37.5987 80.6748 37.4824C80.8242 37.4497 80.8242 37.4497 80.9766 37.4164C81.351 37.3136 81.6555 37.1801 81.9994 37.0017C82.346 36.8221 82.6898 36.6439 83.0463 36.485C83.8249 36.1314 84.4399 35.6782 85.1081 35.143C86.0007 34.4511 86.5589 34.2162 87.6826 34.2349C87.739 34.0657 87.7954 33.8965 87.8535 33.7222C88.102 33.738 88.102 33.738 88.3556 33.7542C89.3553 33.7563 90.2766 33.4172 91.101 32.8676C91.5129 32.8028 91.5129 32.8028 91.9663 32.7714C92.5825 32.7349 92.5825 32.7349 93.152 32.5257C94.561 32.3482 95.9556 32.3479 97.3717 32.3989C97.9357 32.3998 97.9357 32.3998 98.3311 32.1031C99.0362 31.7041 99.7364 31.7577 100.534 31.7459C101.446 31.7282 102.318 31.7016 103.21 31.5015C104.253 31.2732 105.292 31.258 106.356 31.2331C106.745 31.2228 107.134 31.212 107.523 31.2004C107.693 31.1963 107.863 31.1922 108.038 31.188C108.555 31.1572 109.051 31.0813 109.56 30.9874C109.56 31.1003 109.56 31.2131 109.56 31.3293C110.309 31.3335 111.057 31.3366 111.805 31.3387C112.06 31.3395 112.315 31.3407 112.569 31.3422C112.935 31.3442 113.301 31.3452 113.667 31.346C113.887 31.3469 114.107 31.3478 114.334 31.3487C114.844 31.3661 114.844 31.3661 115.201 31.1584C115.498 31.1323 115.796 31.1157 116.094 31.1043C116.27 31.0971 116.447 31.09 116.628 31.0826C116.813 31.0759 116.998 31.0691 117.188 31.0622C117.374 31.0548 117.56 31.0475 117.751 31.0399C118.212 31.0217 118.672 31.0042 119.132 30.9874C119.188 30.8746 119.245 30.7618 119.303 30.6456C119.614 30.5615 119.614 30.5615 120.008 30.496C120.576 30.3854 120.987 30.2452 121.472 29.9299C122.147 29.5601 122.332 29.6567 123.063 29.791C123.397 29.6944 123.397 29.6944 123.736 29.5453C124.397 29.2733 124.905 29.1846 125.627 29.2782C126.858 29.8934 127.863 31.0807 128.362 32.3548C128.416 32.8877 128.403 33.4118 128.383 33.9465C128.37 34.4419 128.363 34.9357 128.362 35.4314C128.418 35.4878 128.475 35.5442 128.533 35.6023C128.636 36.6725 128.636 36.6725 128.221 37.1813C127.766 37.7585 127.556 38.3227 127.315 39.0101C127.272 39.128 127.229 39.246 127.185 39.3676C127.062 39.7069 126.942 40.0472 126.824 40.3881C126.759 40.5725 126.694 40.7569 126.627 40.9469C126.46 41.4358 126.46 41.4358 126.396 42.0546C126.311 42.6101 126.311 42.6101 125.969 42.9519C125.976 43.1211 125.983 43.2904 125.99 43.4647C126.009 44.0294 125.883 44.3951 125.648 44.9068C125.311 45.6776 125.196 46.4157 125.114 47.2463C124.878 49.4532 124.878 49.4532 123.927 50.2321C123.534 50.5006 123.131 50.7429 122.721 50.9852C122.453 51.1655 122.186 51.3471 121.92 51.53C121.351 51.9098 120.779 52.2344 120.158 52.5235C120.038 52.594 119.918 52.6645 119.794 52.7372C119.383 52.9018 119.212 52.8145 118.79 52.6944C117.732 52.4296 116.706 52.2746 115.618 52.2137C115.481 52.2028 115.345 52.1919 115.204 52.1807C114.211 52.1232 113.549 52.3021 112.637 52.6944C112.007 52.8923 112.007 52.8923 111.612 52.6944C110.22 52.4857 108.805 52.4865 107.401 52.4825C107.049 52.4808 106.697 52.4754 106.345 52.4701C105.149 52.4605 104.144 52.4834 103.065 53.0363C102.932 53.1738 102.798 53.3112 102.66 53.4529C102.116 53.9833 101.602 54.1693 100.896 54.4217C100.465 54.5727 100.465 54.5727 99.9889 54.9164C99.7034 54.9904 99.7034 54.9904 99.412 55.066C98.7692 55.2655 98.4175 55.4764 97.9378 55.9419C97.8814 56.1112 97.825 56.2804 97.7669 56.4547C97.5977 56.5111 97.4285 56.5675 97.2542 56.6256C97.2542 56.7384 97.2542 56.8512 97.2542 56.9675C97.0285 57.0239 96.8029 57.0803 96.5705 57.1384C96.5564 57.2441 96.5423 57.3499 96.5277 57.4589C96.3995 57.8221 96.3996 57.8221 96.0898 58.0037C95.9047 58.083 95.9047 58.083 95.7159 58.1639C95.1245 58.5402 94.8535 58.9187 94.5194 59.5313C94.4628 59.6254 94.4062 59.7194 94.3478 59.8164C93.9705 60.4472 93.7178 61.0497 93.4939 61.7533C93.3811 61.9225 93.2683 62.0917 93.152 62.266C93.152 62.4352 93.152 62.6044 93.152 62.7788C93.0489 62.788 92.9458 62.7973 92.8396 62.8068C92.4283 62.9222 92.4283 62.9222 92.2147 63.3597C92.1433 63.5275 92.0719 63.6954 91.9983 63.8684C91.9252 64.0354 91.852 64.2024 91.7767 64.3745C91.585 64.8297 91.585 64.8297 91.6138 65.3426C91.501 65.3426 91.3881 65.3426 91.2719 65.3426C91.2155 65.4554 91.1591 65.5682 91.101 65.6844C90.9324 65.7562 90.9324 65.7562 90.7605 65.8293C90.3859 65.9955 90.3859 65.9955 90.2878 66.3782C90.2671 66.5123 90.2464 66.6465 90.225 66.7848C90.133 67.3546 90.0664 67.5781 89.7336 68.0773C89.3241 69.2196 89.1535 70.3518 89.086 71.5592C89.0499 72.0085 89.0499 72.0085 88.9478 72.3611C88.8583 72.7922 88.9435 73.0565 89.082 73.472C89.1232 73.6027 89.1644 73.7334 89.2068 73.868C89.4347 74.3146 89.641 74.4953 90.0755 74.7433C90.4885 74.8037 90.8843 74.8073 91.3013 74.8114C91.8061 74.9187 92.004 75.0576 92.4136 75.3549C93.2598 75.9129 93.9559 75.8086 94.9254 75.662C95.0794 75.6432 95.2334 75.6245 95.3921 75.6052C96.1774 75.5187 96.1774 75.5187 96.9123 75.256C97.2007 75.2526 97.4893 75.2574 97.7776 75.2667C98.5643 75.2791 99.2148 75.1854 99.9602 74.9389C100.331 74.9142 100.331 74.9142 100.81 75.1619C101.465 75.4798 101.884 75.463 102.606 75.427C103.53 75.3963 104.24 75.4919 105.097 75.8362C105.958 76.0825 106.89 75.8306 107.744 75.6406C108.193 75.5979 108.193 75.5979 108.496 75.8342C108.969 76.1775 109.388 76.2563 109.956 76.3884C111.136 76.7295 111.707 77.2675 112.295 78.3326C113.069 80.653 112.588 83.2798 111.782 85.5113C111.685 85.7923 111.589 86.0736 111.494 86.3552C111.43 86.5426 111.43 86.5426 111.364 86.7338C111.253 87.0493 111.253 87.0493 111.27 87.3914C111.1 87.4478 110.931 87.5042 110.757 87.5624C109.97 88.712 110.017 90.1168 110.169 91.4508C110.261 92.2598 110.182 92.7838 109.902 93.5446C109.749 94.0561 109.713 94.5069 109.721 95.0402C109.722 95.1768 109.724 95.3134 109.725 95.4541C109.727 95.5572 109.729 95.6603 109.731 95.7666C109.506 95.7666 109.28 95.7666 109.048 95.7666C108.992 95.8717 108.936 95.9768 108.879 96.0851C108.804 96.2232 108.729 96.3613 108.652 96.5037C108.579 96.6405 108.506 96.7773 108.43 96.9183C108.193 97.3049 108.193 97.3049 107.908 97.5793C107.621 97.8245 107.621 97.8245 107.68 98.3304C107.396 98.3244 107.396 98.3244 107.106 98.3184C106.856 98.3152 106.606 98.3121 106.356 98.309C106.231 98.3062 106.106 98.3033 105.978 98.3003C105.296 98.2942 104.856 98.3535 104.262 98.6722C103.82 98.6802 103.82 98.6803 103.343 98.6295C103.187 98.6145 103.03 98.5995 102.869 98.5841C102.382 98.5013 102.382 98.5013 101.95 98.3269C101.148 98.1006 100.402 98.1204 99.5723 98.1321C99.4016 98.133 99.231 98.1339 99.0552 98.1348C98.5118 98.1378 97.9685 98.1432 97.4251 98.1488C96.8817 98.1535 96.3383 98.1577 95.7949 98.161C95.4575 98.163 95.12 98.166 94.7825 98.1701C93.9871 98.1758 93.2525 98.1405 92.4684 97.9885C92.2198 97.9991 92.2198 97.9991 91.9663 98.0099C91.3065 97.983 90.8486 97.7399 90.2464 97.4758C89.3324 97.1711 88.8127 97.3665 87.971 97.7642C87.2986 98.1016 87.2986 98.1016 86.7679 98.6175C86.5977 99.2264 86.6287 99.8302 86.6464 100.456C86.6651 101.265 86.6462 101.979 86.4861 102.774C86.5242 103.171 86.5242 103.171 86.625 103.554C86.669 103.745 86.669 103.745 86.7138 103.939C86.8173 104.319 86.8173 104.319 87.0142 104.668C87.4253 105.536 86.8539 107.129 86.5569 108.038C86.4512 108.601 86.5074 109.151 86.5502 109.718C86.5585 109.839 86.5667 109.961 86.5752 110.086C86.6326 110.903 86.7097 111.718 86.8133 112.531C86.828 112.859 86.828 112.859 86.657 113.371C86.685 113.508 86.713 113.645 86.7418 113.786C86.8338 114.256 86.7945 114.487 86.6677 114.942C86.447 115.917 86.4656 116.861 86.4988 117.854C86.5142 118.523 86.477 119.127 86.3319 119.781C86.0541 121.046 85.9827 122.339 85.8772 123.627C85.8452 124.014 85.8129 124.401 85.7797 124.789C85.7499 125.136 85.7212 125.484 85.6926 125.832C85.6315 126.361 85.6315 126.361 85.4606 126.703C85.4075 127.146 85.3735 127.589 85.3377 128.034C85.2897 128.413 85.2897 128.413 85.1188 128.583C84.9516 129.553 84.8565 130.534 85.1188 131.489C85.5176 131.974 85.5176 131.974 85.9734 132.344C86.0862 132.457 86.199 132.569 86.3152 132.686C87.2887 132.935 88.2708 133.049 89.2743 133.017C89.8512 132.998 90.2125 133.054 90.7271 133.316C90.9968 133.427 90.9968 133.427 91.2719 133.54C91.3843 133.462 91.4967 133.383 91.6124 133.302C92.5228 132.815 93.5677 132.953 94.5818 132.952C95.725 132.931 96.4404 132.759 97.4251 132.173C98.5386 131.63 99.5232 131.782 100.673 132.173C100.729 132.229 100.785 132.286 100.844 132.344C101.055 132.365 101.267 132.386 101.484 132.408C102.13 132.472 102.736 132.592 103.365 132.75C104.55 133.038 105.745 133.201 106.954 133.354C108.756 133.59 108.756 133.59 109.219 134.053C109.634 134.088 110.047 134.114 110.463 134.132C110.719 134.146 110.975 134.159 111.23 134.173C111.635 134.193 112.041 134.213 112.446 134.232C112.835 134.251 113.225 134.272 113.615 134.293C113.736 134.298 113.858 134.303 113.984 134.308C114.277 134.325 114.568 134.358 114.859 134.395C114.915 134.508 114.972 134.62 115.03 134.737C115.585 134.912 115.585 134.912 116.226 134.908C116.399 134.791 116.572 134.675 116.75 134.555C116.998 134.391 116.998 134.391 117.252 134.224C117.597 134.327 117.939 134.443 118.277 134.566C118.671 134.625 119.066 134.673 119.462 134.711C119.792 134.744 119.792 134.744 120.13 134.778C120.36 134.8 120.59 134.822 120.82 134.843C121.054 134.866 121.288 134.89 121.522 134.913C122.093 134.969 122.663 135.024 123.234 135.078C123.234 134.909 123.234 134.74 123.234 134.566C123.422 134.613 123.609 134.66 123.802 134.709C124.051 134.772 124.3 134.834 124.548 134.897C124.733 134.944 124.733 134.944 124.922 134.991C125.553 135.15 126.183 135.3 126.824 135.42C126.936 135.251 127.049 135.082 127.165 134.908C127.692 134.864 128.056 134.84 128.533 135.078C130.288 135.321 132.199 135.436 133.746 134.405C134.736 133.193 134.931 131.623 135.098 130.106C135.199 129.609 135.199 129.609 135.448 129.22C135.829 128.547 135.881 127.869 135.978 127.109C136.017 126.818 136.056 126.528 136.097 126.237C136.113 126.109 136.13 125.981 136.146 125.85C136.224 125.507 136.224 125.507 136.566 124.994C136.762 124.489 136.916 123.972 137.079 123.456C137.153 123.248 137.227 123.04 137.303 122.826C137.442 122.156 137.299 121.869 137.079 121.234C137.099 120.896 137.099 120.896 137.154 120.539C137.24 119.931 137.212 119.593 137.079 119.012C137.135 118.843 137.192 118.673 137.25 118.499C137.196 118.394 137.142 118.29 137.087 118.182C136.599 117.183 137.097 115.75 137.421 114.739C137.578 114.141 137.578 114.141 137.506 113.542C137.397 113.104 137.497 112.782 137.592 112.346C137.535 112.29 137.479 112.233 137.421 112.175C137.404 111.891 137.398 111.607 137.398 111.322C137.398 111.149 137.397 110.975 137.397 110.796C137.398 110.613 137.399 110.43 137.399 110.241C137.399 110.06 137.398 109.879 137.397 109.693C137.397 109.519 137.398 109.344 137.398 109.165C137.398 108.924 137.398 108.924 137.399 108.68C137.419 108.278 137.49 107.947 137.592 107.56C137.608 107.085 137.615 106.615 137.613 106.139C137.614 106.014 137.614 105.888 137.615 105.759C137.614 105.158 137.584 104.603 137.494 104.006C137.425 103.487 137.446 103.259 137.592 102.774C137.643 102.194 137.678 101.613 137.714 101.031C137.762 100.552 137.762 100.552 137.933 100.381C137.96 100.108 137.976 99.8343 137.987 99.5602C137.998 99.31 137.998 99.31 138.009 99.0548C138.016 98.8792 138.023 98.7036 138.03 98.5227C138.037 98.3484 138.044 98.1741 138.052 97.9946C138.1 96.8736 138.1 96.8736 138.092 95.7519C138.074 94.9695 138.129 94.4383 138.446 93.7155C139.037 91.6976 138.98 89.455 138.938 87.3701C138.928 86.4894 139.03 85.8432 139.357 85.0326C139.594 84.2549 139.671 83.1749 139.301 82.4347C139.278 82.1143 139.278 82.1143 139.279 81.751C139.279 81.5713 139.279 81.5713 139.278 81.3878C139.301 81.0674 139.301 81.0674 139.472 80.7255C139.526 79.9513 139.482 79.1857 139.376 78.4181C139.351 78.2207 139.326 78.0233 139.301 77.8199C139.357 77.7635 139.414 77.707 139.472 77.6489C139.536 77.4121 139.591 77.173 139.643 76.9332C139.671 76.8039 139.699 76.6745 139.728 76.5413C139.756 76.3992 139.784 76.2571 139.814 76.1106C139.844 75.9566 139.875 75.8026 139.906 75.6439C139.989 75.0519 139.982 74.5153 139.952 73.9187C139.937 73.5917 139.937 73.5917 139.922 73.2581C139.905 72.9148 139.888 72.5716 139.87 72.2285C139.853 71.8946 139.838 71.5607 139.824 71.2267C139.814 71.0283 139.803 70.8298 139.793 70.6254C139.814 70.1284 139.814 70.1284 140.155 69.6156C140.099 69.5592 140.043 69.5028 139.984 69.4447C140.026 69.169 140.067 68.8934 140.111 68.6181C140.214 67.7654 140.216 66.8989 140.074 66.0517C139.94 65.2468 139.909 64.4385 139.862 63.6247C139.869 63.1402 139.869 63.1402 139.643 62.9497C139.617 62.4897 139.642 62.0977 139.739 61.6464C139.852 61.2172 139.852 61.2172 139.643 60.7277C139.699 60.6713 139.755 60.6149 139.814 60.5568C139.821 60.1581 139.821 59.7591 139.814 59.3604C139.926 59.3604 140.039 59.3604 140.155 59.3604C140.12 59.1806 140.085 59.0008 140.049 58.8156C139.982 58.1348 140.055 57.9125 140.326 57.3093C140.475 56.55 140.48 56.0067 140.326 55.2583C140.379 54.9157 140.435 54.5737 140.497 54.2327C140.441 54.1763 140.384 54.1199 140.326 54.0618C140.073 53.0956 139.921 52.1541 139.984 51.1561C140.041 51.0997 140.097 51.0433 140.155 50.9852C140.162 50.7004 140.163 50.4154 140.155 50.1306C140.325 50.0742 140.494 50.0178 140.668 49.9597C140.678 49.8112 140.689 49.6627 140.7 49.5097C140.714 49.3127 140.728 49.1157 140.743 48.9128C140.757 48.7185 140.771 48.5241 140.785 48.3239C140.839 47.7377 140.839 47.7377 140.941 47.1769C141.018 46.657 140.951 46.4612 140.668 46.0285C140.499 46.0285 140.33 46.0285 140.155 46.0285C140.158 45.8494 140.158 45.8494 140.161 45.6666C140.163 45.5111 140.164 45.3555 140.166 45.1953C140.169 44.9633 140.169 44.9633 140.172 44.7266C140.183 44.3164 140.183 44.3164 139.984 43.9775C139.98 43.4301 139.989 42.8854 140.006 42.3383C140.011 42.0301 139.999 41.7216 139.984 41.4136C139.872 41.3008 139.759 41.188 139.643 41.0718C139.52 39.9868 139.649 39.023 139.984 37.9952C140.02 37.3295 140.02 37.3295 139.814 36.7988C139.469 36.6734 139.469 36.6734 139.13 36.6278C139.13 36.4586 139.13 36.2894 139.13 36.1151C138.884 35.8266 138.884 35.8266 138.617 35.6023C138.673 35.4331 138.73 35.2639 138.788 35.0896C138.675 35.0331 138.562 34.9767 138.446 34.9186C138.207 34.2287 138.023 33.5995 138.104 32.8676C138.217 32.6984 138.33 32.5292 138.446 32.3548C138.403 31.8526 138.336 31.4492 138.107 30.9981C137.933 30.6441 137.843 30.3364 137.762 29.9512C137.734 29.8177 137.706 29.6842 137.676 29.5466C137.617 29.2403 137.563 28.9331 137.512 28.6253C137.358 27.6476 137.358 27.6476 136.993 26.7358C136.65 26.0197 136.582 25.3185 136.475 24.5358C136.314 23.4135 136.035 22.3301 135.711 21.2449C135.824 21.2449 135.937 21.2449 136.053 21.2449C135.887 20.7984 135.724 20.4083 135.457 20.0118C135.143 19.4332 135.065 18.9244 134.964 18.2752C134.836 17.5334 134.721 16.8977 134.237 16.2989C133.815 15.7548 133.795 15.6913 133.789 15.0597C133.739 14.402 133.739 14.402 133.316 14.1757C132.922 14.005 132.528 13.8625 132.122 13.7244C132.066 13.668 132.009 13.6116 131.951 13.5535C131.653 13.5257 131.353 13.5058 131.054 13.4894C130.267 13.4325 129.542 13.3104 128.778 13.1155C126.982 12.6782 125.447 12.8939 123.675 13.3084C123.184 13.3911 122.728 13.3929 122.23 13.3826C121.459 13.3759 120.743 13.4022 119.987 13.5535C119.93 13.6099 119.874 13.6663 119.816 13.7244C119.205 13.7516 118.696 13.7007 118.107 13.5535C117.994 13.6099 117.881 13.6663 117.765 13.7244C116.229 14.0354 114.702 14.1268 113.139 14.1624C112.735 14.1726 112.33 14.1835 111.926 14.1951C111.663 14.2012 111.663 14.2012 111.394 14.2075C110.983 14.2337 110.639 14.3001 110.244 14.4081C109.663 14.4591 109.083 14.4947 108.501 14.5309C108.039 14.5263 108.039 14.5263 107.851 14.7499C107.257 14.7732 106.733 14.7682 106.153 14.6324C105.409 14.5565 104.945 14.7975 104.262 15.0918C104.206 15.0354 104.149 14.979 104.091 14.9208C103.728 14.8805 103.365 14.8407 103.002 14.804C100.998 14.5628 100.998 14.5628 100.673 14.2372C99.9383 14.1568 99.32 14.1359 98.6643 14.4935C97.5635 15.0016 96.1955 14.8476 95.0322 14.579C95.0322 14.6918 95.0322 14.8046 95.0322 14.9208C94.8348 14.8327 94.6374 14.7446 94.434 14.6538C93.2004 14.2452 91.54 14.2388 90.3332 14.7646C90.1172 14.9077 89.9056 15.0575 89.6996 15.2146C89.1543 15.6026 88.5097 15.8255 87.8535 15.9464C87.624 15.8963 87.3957 15.8398 87.1698 15.7755C86.7115 15.8414 86.7115 15.8414 86.3152 15.9464C86.2614 15.8556 86.2077 15.7648 86.1523 15.6713C85.7443 14.9978 85.3535 14.437 84.7769 13.8953C84.5209 13.5893 84.2683 13.281 84.0184 12.9699C83.532 12.4762 83.1593 12.3619 82.4695 12.325C81.9052 12.3348 81.9052 12.3348 81.508 12.4532C81.1876 12.528 81.1876 12.528 80.8137 12.4318C80.2096 12.3378 79.7603 12.4719 79.1726 12.6154C78.5677 12.749 78.014 12.8326 77.4573 12.5286C76.1032 11.9038 74.3312 12.4683 72.9833 12.8698C72.9269 12.7006 72.8705 12.5314 72.8124 12.357C72.8124 12.5262 72.8124 12.6955 72.8124 12.8698C72.1221 12.7759 71.4319 12.6816 70.7416 12.5871C70.5071 12.555 70.2725 12.523 70.0379 12.4911C69.6997 12.4451 69.3616 12.3987 69.0235 12.3524C68.8203 12.3246 68.6171 12.2969 68.4077 12.2683C67.8557 12.1861 67.8557 12.1861 67.3875 12.0796C66.9742 11.9797 66.9742 11.9797 66.4883 12.1861C66.4319 12.1297 66.3755 12.0733 66.3174 12.0152C65.9798 11.9893 65.6411 11.9773 65.3026 11.9725C65.1177 11.9681 64.9329 11.9636 64.7424 11.9591C64.5853 11.9776 64.4282 11.9961 64.2664 12.0152C64.1536 12.1844 64.0408 12.3536 63.9245 12.528C63.7201 12.4433 63.5156 12.3587 63.3049 12.2716C62.3002 11.9335 60.4566 11.5519 59.6515 12.357Z" fill="black"/>
</svg>
