<svg width="159" height="157" viewBox="0 0 159 157" fill="none" xmlns="http://www.w3.org/2000/svg">
<path d="M35.9441 65.2836C37.3351 63.292 38.8767 58.7922 38.6511 57.2432C38.6135 56.7637 38.9895 54.8827 39.5159 53.1861C40.3806 50.5305 40.7942 49.9772 42.3356 49.2765C43.3132 48.8339 44.8547 47.4692 45.6442 46.3258C48.5016 42.3056 54.0661 38.2853 59.7433 36.183C61.8488 35.3716 69.0298 35.4454 69.6315 36.2199C69.932 36.5518 70.1578 36.5518 70.308 36.183C70.4583 35.851 71.0981 35.7035 71.7746 35.8142C72.6395 35.9986 72.94 36.2568 72.7143 36.9207C72.4892 37.5846 72.564 37.6214 73.1283 37.0682C73.5043 36.7363 73.9551 36.5518 74.444 36.478C75.4217 36.478 75.3088 38.0271 74.2183 38.8017C73.1283 39.5762 73.5417 40.1664 74.7826 39.6869C75.2334 39.5394 75.6094 38.8386 75.6094 38.1747C75.6094 37.1051 75.7596 37.0313 77.3017 37.2895C78.3168 37.4739 79.2939 37.7321 80.2716 38.1009C81.3241 38.4329 82.0013 38.396 83.2041 37.8058C85.3472 36.6994 86.7757 36.7731 90.1597 38.2484C92.2654 39.1336 93.0922 39.7975 93.3179 40.7565C93.7313 42.3056 93.3553 48.3544 92.8664 48.8339C92.1899 49.5347 91.3631 48.1331 91.3631 46.3258C91.3631 45.1087 91.1 44.5185 90.6485 44.5185C90.0849 44.5185 89.972 44.9612 90.2351 46.5103C90.4602 47.8749 90.3854 48.5019 89.972 48.5019C89.6708 48.5019 89.4077 48.0593 89.4077 47.5061C89.4077 46.9528 89.1445 46.5103 88.8814 46.5103C88.6183 46.5103 88.3551 46.8791 88.3551 47.2479C88.3551 47.6167 87.9037 47.9856 87.34 47.9856C86.7757 47.9856 86.3249 48.3175 86.3249 48.7232C86.3997 49.2027 86.8138 49.5347 87.3026 49.4977C88.054 49.4977 88.2049 49.8297 88.1294 51.6001C87.9792 53.813 89.1071 55.9891 90.348 56.0261C90.6859 56.0261 90.7988 56.2842 90.6485 56.5793C90.4983 56.8744 89.7837 56.985 89.1071 56.8374C87.5658 56.4318 87.4529 57.3907 88.9569 59.2348C90.0468 60.5258 91.2503 60.5258 90.7614 59.2348C90.348 58.1652 91.7765 57.7227 92.7542 58.6816C93.7313 59.6406 93.7313 61.1896 92.7916 62.9969C92.077 64.251 91.8513 64.3616 89.8211 64.1034C87.9418 63.8452 87.4903 63.5502 86.7383 62.0011C86.2494 61.0052 85.5355 60.0832 84.6326 59.3824C83.9187 58.9398 82.7533 57.3907 82.0387 55.9154C78.3542 48.6126 78.2039 48.465 73.2786 47.211C70.7595 46.6209 69.707 46.5471 67.451 47.0266C65.3078 47.4692 64.3678 47.4323 63.4654 46.916C62.5631 46.3996 61.7736 46.3996 60.1193 46.8053C58.2394 47.3216 57.9386 47.2479 57.1115 46.289C56.2091 45.1825 56.2091 45.1825 56.6603 46.8422C57.2242 48.8707 56.1339 51.6738 54.5549 52.5222C53.8029 52.9279 53.5397 53.4074 53.7277 54.2925C53.9533 55.399 53.7653 55.5097 51.735 55.5097C50.1559 55.5097 49.4792 55.6941 49.4792 56.2104C49.4792 56.5793 48.7648 57.5751 47.9001 58.4234C46.6218 59.6775 46.3586 60.2307 46.6218 61.3003C46.885 62.1855 46.6218 63.1075 46.0202 63.9559C45.4186 64.8042 44.8923 66.6114 44.6667 68.8244C44.5163 70.7421 44.1027 73.914 43.8019 75.8693C43.3132 79.152 43.1628 79.3729 41.9221 79.5206C40.155 79.7784 38.3879 79.7046 36.6584 79.299C34.9289 79.0412 34.8161 78.8935 34.8537 77.1967C34.8913 76.1271 35.1921 75.0206 35.5681 74.615C36.0944 74.0987 36.0944 73.8039 35.6057 73.2506C35.3049 72.8444 35.2297 72.5496 35.4929 72.5496C36.0192 72.4388 36.508 72.181 36.9216 71.8486C37.8239 71.1852 37.7863 71.0745 36.2448 69.1192L34.5906 67.1277L35.9441 65.2836Z" fill="black"/>
<path d="M98.4683 125.624C98.694 128.022 98.6186 128.759 97.942 129.312C97.4906 129.682 97.1146 129.829 97.1146 129.608C97.1146 129.386 96.814 129.497 96.4381 129.792C95.9118 130.198 94.5955 130.161 91.3998 129.608C89.031 129.239 86.9634 128.87 86.7376 128.87C86.5119 128.87 86.2114 128.427 86.0611 127.874C85.798 127.063 84.2566 126.362 84.2566 127.063C84.1811 127.395 84.0683 127.726 83.9554 128.059C83.7297 128.649 83.8425 128.796 84.4817 128.575C84.9331 128.427 85.3091 128.538 85.3091 128.833C85.3091 129.128 84.294 129.386 82.9029 129.386C81.2486 129.386 80.0078 129.756 79.1429 130.382C78.429 130.935 77.4887 131.378 77.1127 131.378C76.7367 131.378 74.7445 131.931 72.8265 132.595C70.0442 133.554 68.9543 133.702 67.9392 133.296C66.5855 132.891 65.1944 132.558 63.8033 132.337C61.9986 132.079 60.6827 131.525 60.1187 130.862C59.63 130.309 58.9156 129.94 58.1636 129.866C56.7725 129.866 53.2384 128.944 51.6217 128.206C51.0201 127.911 49.9298 126.694 49.2155 125.477C48.5011 124.26 47.674 123.301 47.3732 123.301C47.0724 123.301 46.2452 122.01 45.5308 120.387C44.0646 117.031 43.6886 115.777 44.4029 115.777C44.6661 115.74 44.8541 115.518 44.8541 115.26C44.8541 114.965 44.4029 114.744 43.839 114.744C42.8615 114.744 42.8239 114.633 43.5758 113.232C45.1173 110.281 44.1398 107.294 42.2975 109.47C41.8463 109.912 41.2072 110.207 40.568 110.207C39.6656 110.207 39.4776 109.912 39.4025 107.958C39.2521 106.298 38.7633 104.712 37.9737 103.236C36.733 101.024 36.5827 100.433 36.8834 97.9619C37.1466 96.1181 37.0338 94.8269 36.6203 94.0527C36.2443 93.3886 36.0563 92.6138 36.0563 91.8396C36.1691 91.2864 35.7555 90.2906 35.2292 89.5896C34.2516 88.3723 33.3869 83.2088 33.9508 81.7337C34.1388 81.2912 34.6652 81.0696 35.342 81.2912C35.9059 81.402 37.7106 81.6598 39.3273 81.8445C40.944 82.0285 42.1471 82.3608 41.9967 82.6556C41.8463 82.951 42.1847 83.9837 42.7487 84.9056C43.651 86.3069 43.7262 86.8602 43.275 87.7089C42.9367 88.6308 42.8239 89.6265 42.9742 90.6223C43.1622 92.0605 43.0118 92.4668 42.4103 92.4298C41.9967 92.3929 41.6208 92.6138 41.4328 92.9831C41.2824 93.3517 41.5832 93.4256 42.3351 93.2779C43.3502 92.9831 43.463 93.1301 43.1622 94.5321C42.9742 95.5279 43.0494 96.155 43.3878 96.155C43.6886 96.155 43.7638 95.8965 43.5382 95.5648C43.275 95.1962 43.3878 95.1592 43.8014 95.3802C44.1774 95.6387 44.3277 96.1181 44.1774 96.5236C44.027 97.04 44.215 97.5563 44.6285 97.8887C45.606 98.6259 45.0421 100.47 43.839 100.47C43.4254 100.47 43.087 100.802 43.087 101.208C43.087 101.577 43.5382 101.946 44.1022 101.946C45.0421 101.946 45.1925 102.24 44.9669 103.716C44.9293 103.974 44.5157 104.233 44.0646 104.233C42.7863 104.233 43.6886 105.081 45.3429 105.375C46.8844 105.671 46.8844 105.671 46.0572 107.294C45.4556 108.511 45.3429 109.064 45.8692 110.097C46.3956 111.13 46.6212 111.314 47.2604 110.76C47.8996 110.207 48.1627 110.244 48.7643 111.056C49.5914 112.162 49.7418 112.752 49.1403 112.752C48.8771 112.752 48.8395 113.453 48.9523 114.375C49.1403 115.777 49.0651 115.887 48.0875 115.629C47.5236 115.481 46.922 115.518 46.7716 115.777C46.4708 116.293 47.7492 116.772 49.4034 116.772C50.1554 116.772 50.6441 117.031 50.6441 117.584C50.6441 118.137 50.9449 118.285 51.8096 117.99C52.2984 117.879 52.712 117.657 53.088 117.326C53.276 116.772 58.7652 117.51 59.442 118.174C59.8931 118.617 59.8931 118.764 59.2916 118.764C58.878 118.764 58.5396 119.206 58.4644 119.834C58.3892 120.461 58.6148 120.792 58.9908 120.645C59.4796 120.571 60.0059 120.719 60.3819 121.051C60.8331 121.42 63.6153 121.789 67.1498 122.01L73.1277 122.305L74.4807 120.203C75.2708 118.986 75.7596 118.395 75.6087 118.801C75.421 119.465 76.3233 119.576 81.2486 119.65C87.3768 119.797 88.5048 120.129 87.6025 120.94C86.7002 121.752 86.926 122.157 88.3545 122.157C89.3696 122.194 89.6327 122.01 89.4451 121.236C89.2567 120.461 89.4451 120.276 90.535 120.313C92.0016 120.313 98.4309 121.678 97.566 121.715C97.3029 121.752 97.3777 121.973 97.6789 122.157C97.904 122.452 98.3554 123.964 98.4683 125.624Z" fill="black"/>
<path d="M105.385 88.9994C105.385 90.4007 105.085 90.7693 103.393 91.655C102.265 92.2083 101.174 92.9086 101.024 93.1671C100.874 93.4249 99.7085 94.052 98.3922 94.6792C96.1362 95.638 96.0988 95.7488 96.4374 97.2978C96.6631 98.2566 96.7379 99.2524 96.7005 100.212C96.5877 100.912 96.5122 103.642 96.4374 106.26C96.2871 113.157 96.2871 113.231 95.272 113.01C94.6322 112.9 94.0312 113.194 93.7299 113.748C92.9032 115.039 93.5797 115.407 95.272 114.559C96.5876 113.895 96.5877 113.895 97.1139 116.219C97.3022 117.289 97.5654 118.358 97.9414 119.391C98.3174 120.276 97.4144 120.461 94.7077 120.054C93.3166 119.87 93.016 119.612 93.2411 118.838C93.4294 117.989 93.3166 117.989 91.4366 118.653C89.3315 119.354 83.8419 119.133 83.8419 118.285C83.8419 118.1 82.601 118.026 81.0596 118.174C78.0523 118.469 77.0372 117.841 78.9165 116.809C79.5937 116.477 80.496 115.37 80.9468 114.338C81.4737 113.268 82.3005 112.346 83.3156 111.682C84.2179 111.203 84.857 110.428 84.857 109.838C84.9325 109.174 85.3085 108.621 85.8721 108.289C87.0001 107.699 87.3013 105.08 86.3236 104.527C85.985 104.269 86.0604 103.863 86.6241 103.273C87.4516 102.388 87.3761 102.314 85.9102 101.502C85.0073 101.06 84.3681 100.507 84.5191 100.285C84.6693 100.064 84.5565 99.0684 84.2559 98.1096C83.6916 96.0436 81.9619 94.6792 79.4435 94.4945C78.2026 94.2736 77.0746 93.7573 76.0969 92.9824L74.4426 91.655L75.7583 89.4788C76.2852 88.4831 76.9243 87.5605 77.7137 86.7125C78.6915 85.9745 84.0302 83.2451 85.1582 82.9503C86.8872 82.5448 92.226 83.2088 92.8277 83.9461C93.2418 84.4624 93.5049 84.4994 93.7299 84.0938C93.9557 83.6883 94.8205 83.5775 95.9859 83.7984C97.2268 84.02 98.505 84.1307 99.7833 84.0938C100.798 84.0938 101.663 84.2785 101.663 84.6102C101.701 84.9049 101.964 85.1265 102.265 85.1265C103.693 85.0896 105.385 87.2657 105.385 88.9994Z" fill="black"/>
<path d="M117.456 126.03C115.463 124.148 115.387 124.075 115.538 122.895C115.763 120.792 115.914 120.386 116.779 119.427C117.23 118.911 117.568 118.358 117.869 117.731C118.019 117.251 118.245 116.772 118.508 116.329C118.922 115.665 118.959 115.665 119.523 116.145C120.05 116.588 120.238 116.625 121.291 116.255C122.23 115.961 122.644 115.924 123.208 116.219C123.659 116.44 124.148 116.551 124.636 116.551C125.727 116.588 126.818 117.768 127.381 119.538C128.058 121.751 127.833 123.595 126.667 124.886C126.291 125.255 125.99 125.661 125.727 126.104C125.69 126.251 124.975 126.731 124.223 127.173C123.321 127.726 122.268 127.984 121.178 127.947C119.561 127.947 119.523 127.91 117.456 126.03Z" fill="black"/>
<path d="M158.935 21.8943C158.859 23.5704 158.746 25.2813 158.672 26.9574C158.483 31.5666 158.296 36.1758 158.107 40.75C157.92 45.3243 157.657 49.9684 157.355 54.6474C156.717 64.0054 155.852 73.608 154.461 83.6296C154.461 85.3751 154.424 87.4003 154.386 89.6351C154.461 91.2765 154.612 92.9178 154.875 94.5235C154.687 94.9779 154.536 95.4666 154.349 95.9202C154.386 102.66 154.649 109.783 155.739 114.532C154.95 118.058 154.16 121.376 153.334 124.343C153.221 126.543 153.032 128.673 152.732 130.803C152.469 132.55 152.168 134.086 151.83 135.448C151.755 135.797 151.642 136.111 151.566 136.425C151.492 136.53 151.341 137.578 151.153 138.241C150.965 138.94 150.74 139.638 150.477 140.336C150.213 140.965 149.913 141.593 149.574 142.187C148.446 144.143 146.868 145.818 144.913 147.075C144.161 147.564 143.372 147.948 142.545 148.298C141.831 148.577 141.116 148.786 140.365 148.926C140.026 148.996 139.688 149.031 139.387 149.066C139.087 149.101 138.748 149.101 138.485 149.101C137.959 149.101 137.395 149.066 136.869 148.961C136.643 148.926 136.418 148.856 136.192 148.821C135.966 148.786 135.779 148.682 135.553 148.612C135.177 148.472 134.839 148.298 134.5 148.088C133.937 147.739 133.411 147.285 132.959 146.796C132.583 146.342 132.245 145.888 131.944 145.399C133.222 145.225 134.463 144.806 135.59 144.178C136.643 143.583 137.545 142.78 138.222 141.838C138.861 140.965 139.312 139.952 139.537 138.905C139.726 137.927 139.726 136.914 139.5 135.936C138.711 132.061 137.846 128.08 137.207 123.855C137.169 123.575 137.132 123.296 137.094 123.017C136.981 122.668 136.906 122.318 136.793 121.97C136.793 121.69 136.831 121.411 136.831 121.096C135.666 112.332 135.929 103.463 137.695 94.8032C139.199 88.6578 138.222 79.1249 138.147 71.1984C137.621 64.4593 140.252 57.3012 137.959 51.3651C139.8 47.2797 141.642 40.2262 142.921 32.3697C143.259 30.4143 143.522 28.3891 143.785 26.3638C143.86 25.9099 143.898 25.421 143.973 24.9671L143.635 24.9321C143.673 23.6053 143.823 22.2435 144.086 20.9166C144.199 20.5325 144.274 20.2183 144.349 19.904L144.274 19.3103C144.236 19.1008 144.161 18.8913 144.123 18.6818C143.409 16.2376 141.041 14.5266 138.297 14.4917C137.884 14.2473 137.997 14.1425 137.997 13.9679C137.997 13.7933 137.959 13.6188 137.019 13.4441C136.192 13.8283 135.327 14.1076 134.425 14.2822C133.372 14.4568 132.32 14.4917 131.267 14.3869C130.929 14.352 130.591 14.3171 130.252 14.2822C129.238 14.3869 128.26 14.4568 127.246 14.5615C126.757 15.0155 124.802 15.3297 122.847 15.7138L121.795 14.9456C120.742 15.0155 119.652 15.0853 118.562 15.1202C112.923 15.3995 107.172 15.5741 101.307 15.6789C89.6167 15.8884 77.5127 15.8884 65.3331 16.3423C58.9426 16.7264 51.9883 16.6217 44.658 16.6217C40.9742 16.6217 37.2526 16.6217 33.4184 16.7264L30.5238 16.8312L29.1706 16.8661L28.2308 16.936C26.9903 17.0407 25.825 17.1455 24.6972 17.355C24.3214 17.4597 23.9078 17.5296 23.5319 17.5994C22.8553 17.7391 22.2162 17.9486 21.6524 18.2978C21.3141 18.5073 21.0133 18.7168 20.7502 18.9961C20.4871 19.2755 20.2615 19.5897 20.0735 19.904C19.8856 20.2183 19.7728 20.6023 19.7353 20.9515C19.6977 21.3007 19.6977 21.6499 19.7353 21.9991C19.9232 22.5926 20.0735 23.1863 20.2615 23.7101C20.3743 24.0941 20.5247 24.4433 20.6374 24.7925C20.5999 24.9671 20.5999 25.1766 20.5999 25.3512C20.5623 25.5956 20.5623 25.8401 20.5623 26.1194C20.5623 26.7828 20.5247 27.4463 20.5247 28.1097C20.4871 29.4366 20.4871 30.7984 20.4495 32.1253C20.4119 34.8139 20.3743 37.5027 20.3367 40.0866C20.2239 45.2894 19.9232 50.108 19.0962 53.8094C17.7053 62.5738 18.0436 70.5001 17.0663 78.0771C15.5627 89.4604 16.8407 108.072 13.7207 117.675C13.3448 118.897 13.4952 122.843 13.3824 125.426C13.0065 126.613 12.593 127.801 12.217 129.023C12.1794 130.105 12.4426 131.153 12.9313 132.13C13.3448 133.003 13.6455 133.911 13.8711 134.854C14.059 135.762 14.4349 136.635 14.9988 137.403C15.6003 138.171 16.3521 138.835 17.2542 139.288C18.1564 139.743 19.1714 140.022 20.1863 140.092C21.2389 140.196 22.2538 140.301 23.3064 140.406L26.5392 140.685L30.1104 140.93C32.441 141.105 34.734 141.314 36.9519 141.523C45.861 142.326 53.6047 143.444 57.89 145.643C56.3864 145.923 50.635 146.377 53.0408 147.704C54.3565 148.403 55.597 149.17 56.7999 150.043C59.0178 150.672 62.1002 151.266 65.0699 151.894L65.5586 151.789L66.0846 151.929L65.1827 151.894C68.8668 152.663 72.3249 153.5 73.5658 154.583C73.5277 154.723 73.1143 154.932 72.5132 155.176C72.1373 155.526 71.2724 155.84 69.6562 156.224H69.13C67.1371 156.748 65.0323 157.132 64.3933 156.958C61.6867 156.643 59.0178 156.189 56.3864 155.56L56.236 155.665C51.4244 155.211 49.2817 154.129 47.1015 153.116C47.1015 153.186 47.0639 153.256 46.9887 153.326L44.5828 153.396L44.3573 153.745C44.1694 153.64 44.019 153.535 43.8687 153.43H43.5303C43.5679 153.361 43.5679 153.256 43.5679 153.186C43.4551 153.116 43.4175 152.976 43.4175 152.872C43.0416 152.628 42.5905 152.488 42.1395 152.488L40.2599 153.046L34.9972 151.545C36.6511 151.72 41.0493 151.964 44.0566 152.348C44.207 152.278 44.3573 152.208 44.5076 152.103C39.7712 150.637 34.922 149.485 29.9976 148.682C29.321 148.472 27.8173 148.716 25.9001 149.066L25.5243 149.136C25.4491 149.136 25.3739 149.17 25.2987 149.17L24.9979 149.205L23.8702 149.31C23.8326 149.45 23.7199 149.555 23.6071 149.659C23.3816 149.834 23.1184 149.973 22.8177 150.078L31.1253 150.951C30.4111 151.405 29.1706 151.615 27.5542 151.615C27.1407 151.615 26.7271 151.615 26.2761 151.615L25.5994 151.58L24.6221 151.545C23.7951 151.51 22.968 151.44 22.1034 151.37L19.3969 151.126C20.1111 150.881 21.8027 150.881 22.7049 150.777C23.156 150.707 23.4192 150.637 23.2312 150.533C22.968 150.393 22.7049 150.288 22.4418 150.218C21.7276 150.463 20.9757 150.672 20.2239 150.846C19.8104 150.742 19.3593 150.637 18.9082 150.533L18.194 150.358L18.5324 150.428L20.2239 150.812C18.9458 150.846 17.4798 150.916 16.1641 150.637C15.4875 150.533 14.7733 150.428 14.059 150.288C13.7207 150.218 13.3448 150.148 13.0065 150.008C12.6682 149.903 12.3298 149.799 11.9915 149.659C9.097 148.542 6.57843 146.691 4.73646 144.317C3.79668 143.095 3.04486 141.768 2.481 140.336C2.21787 139.638 1.99232 138.94 1.80437 138.206C1.69159 137.857 1.654 137.473 1.57881 137.123C1.50364 136.775 1.42846 136.39 1.39086 136.006C1.35327 135.623 1.31568 135.273 1.27809 134.889C1.16532 135.448 1.05255 135.936 0.939769 136.425C0.977362 135.867 1.01495 135.308 1.05255 134.749C0.86459 134.156 0.676632 133.527 0.488681 132.863L0 130.908L0.300723 129.721C0.375909 129.442 0.451088 129.163 0.488681 128.883C0.56386 128.534 0.639046 128.185 0.714225 127.835L0.751818 127.556L0.789411 127.382C0.826997 127.277 0.86459 127.172 0.902182 127.068C0.902182 127.068 0.902182 127.068 0.902182 127.033C-0.30073 126.508 1.01495 117.988 0.826997 113.415C1.27809 111.983 1.72918 111.564 2.21786 112.716C1.31568 114.916 1.91714 116.348 2.14268 118.373L2.18027 117.535C2.40582 112.786 2.29305 107.653 2.33064 103.358C2.18027 107.478 2.10509 112.192 0.56386 109.678C1.87954 107.898 2.481 101.053 3.38318 95.3967C3.38318 94.1398 3.38319 92.8829 3.42077 91.6253L3.04486 91.5211C2.8945 92.3586 2.78173 93.2317 2.74413 94.2796C2.78173 92.5334 3.04486 90.7878 3.49596 89.1115C3.60873 84.502 3.64632 79.7184 3.00727 74.2714C2.44341 66.3449 3.90945 54.9965 3.7215 44.4862C3.87187 40.8548 4.135 37.1186 4.43573 33.3474C4.58609 31.6015 4.73646 29.8207 4.88682 28.0399C4.88682 28.1097 4.84923 28.1796 4.84923 28.2494C4.81164 27.7256 4.77405 27.2368 4.73646 26.713L4.69886 25.9448L4.66128 25.1416C4.62368 23.4307 4.62368 21.6848 4.66128 19.9389L4.77405 18.1581L4.84923 17.5645L5.03719 16.4122L5.30032 15.3297C5.63864 13.8632 6.20251 12.4665 6.9919 11.1745C7.81889 9.84761 8.79627 8.66035 9.99919 7.61283C12.3674 5.51775 15.3371 4.12103 18.5324 3.63218C20.1863 3.35283 21.8403 3.24808 23.4944 3.283C25.2235 3.31791 26.9151 3.38775 28.6067 3.42267L29.2458 3.45758H29.5089L29.9976 3.4925L31.0501 3.42267C31.7643 3.35283 32.4786 3.31791 33.1552 3.24808C35.8993 2.96873 38.6435 2.58463 41.35 2.02595C44.2821 1.43234 49.8456 1.50217 54.8452 2.82906C65.9343 -1.15159 86.572 0.0705371 101.796 0.594307C105.856 0.594307 109.841 1.60693 113.375 3.4925C113.562 3.45758 113.712 3.42267 113.901 3.42267C117.283 3.03857 120.667 2.68939 124.125 2.37513C128.072 2.02595 130.215 1.71168 137.959 1.43234H139.274C139.688 1.43234 140.139 1.43234 140.552 1.46726C141.379 1.50217 142.207 1.60693 143.033 1.7466L144.236 1.92119L145.364 2.20054C149.349 3.283 152.807 5.55267 155.25 8.66035C156.228 9.8825 157.017 11.2443 157.618 12.641L158.033 13.6886C158.145 14.0378 158.258 14.3869 158.37 14.771C158.483 15.1551 158.559 15.5043 158.634 15.8884C158.709 16.2725 158.822 16.6217 158.859 17.0058C159.01 18.6469 159.047 20.2531 158.935 21.8943ZM3.23282 90.8577C3.308 90.5781 3.34559 90.2985 3.42077 90.0196C3.308 90.2985 3.27041 90.5781 3.23282 90.8577ZM45.1843 152.523C45.485 152.593 45.7858 152.628 46.0489 152.663C45.8234 152.558 45.5602 152.453 45.2971 152.348L45.1843 152.523Z" fill="black"/>
</svg>
